<svg id="Capa_1" data-name="Capa 1" xmlns="http://www.w3.org/2000/svg" viewBox="0 0 409.71 355.6"><defs><style>.cls-1{fill:#393b50;}.cls-2{fill:none;}.cls-3{fill:#fff;}.cls-4{fill:#eaa79f;}.cls-5{fill:#f5d3cf;}</style></defs><ellipse class="cls-1" cx="236.54" cy="314.25" rx="162.72" ry="22.07"/><g id="Planting_bulbs" data-name="Planting bulbs"><path class="cls-1" d="M49.83,243.57a.34.34,0,0,1-.14,0,.5.5,0,0,1-.29-.63l1.09-3.82a.45.45,0,0,1,.57-.32.5.5,0,0,1,.29.62l-1.09,3.82A.45.45,0,0,1,49.83,243.57Z"/><path class="cls-1" d="M47.38,252.16a.34.34,0,0,1-.14,0,.52.52,0,0,1-.3-.63L48,247.69a.45.45,0,0,1,.57-.32.51.51,0,0,1,.3.63l-1.09,3.81A.45.45,0,0,1,47.38,252.16Z"/><path class="cls-1" d="M46.83,244.9a.31.31,0,0,1-.13,0l-3.47-1.2a.5.5,0,0,1-.29-.63.44.44,0,0,1,.57-.32l3.46,1.2a.51.51,0,0,1,.3.62A.46.46,0,0,1,46.83,244.9Z"/><path class="cls-1" d="M54.63,247.6a.31.31,0,0,1-.13,0L51,246.37a.51.51,0,0,1-.3-.62.44.44,0,0,1,.57-.33l3.47,1.2a.5.5,0,0,1,.29.63A.46.46,0,0,1,54.63,247.6Z"/><path class="cls-1" d="M21.91,265.39a.48.48,0,0,1-.45-.5v-4a.45.45,0,1,1,.9,0v4A.48.48,0,0,1,21.91,265.39Z"/><path class="cls-1" d="M21.91,274.39a.47.47,0,0,1-.45-.5v-4a.45.45,0,1,1,.9,0v4A.47.47,0,0,1,21.91,274.39Z"/><path class="cls-1" d="M19.87,267.64H16.23a.48.48,0,0,1-.45-.5.47.47,0,0,1,.45-.5h3.64a.47.47,0,0,1,.45.5A.48.48,0,0,1,19.87,267.64Z"/><path class="cls-1" d="M28,267.64H24.41a.49.49,0,0,1-.46-.5.48.48,0,0,1,.46-.5H28a.47.47,0,0,1,.45.5A.48.48,0,0,1,28,267.64Z"/><path class="cls-1" d="M24.08,235.51a4.16,4.16,0,0,1,0-8.29,4.16,4.16,0,0,1,0,8.29Zm0-7.28a3.15,3.15,0,0,0,0,6.28,3.15,3.15,0,0,0,0-6.28Z"/><path class="cls-2" d="M343.49,35a.53.53,0,0,1,.06-.7.43.43,0,0,1,.64.07,24.34,24.34,0,0,1,4.63,13.69h26.29C374.74,36.39,366,27,355.3,27s-19.45,9.4-19.81,21.11h12.43A23.27,23.27,0,0,0,343.49,35Z"/><polygon class="cls-2" points="336.83 306.71 336.83 306.71 336.83 306.69 336.83 306.71"/><path class="cls-3" d="M116.65,147l.23-1.24c-.34-.4-.67-.8-1-1.22Q116.34,145.84,116.65,147Z"/><path class="cls-4" d="M113.31,136a16.86,16.86,0,0,0,3.79,8.55l5.21-28.84-1.62,2C116.29,123,112.13,128,113.31,136Z"/><path class="cls-4" d="M138.86,28.73c-1-2.15-6.52-12.94-15.49-14.2a13.27,13.27,0,0,0-1.8-.12c-5.8,0-12.83,3.61-19.2,9.94-7.81,7.78-16.05,21.29-15.73,35.9.21,9.43,4.11,15.46,7.88,21.29,4.16,6.44,8.46,13.1,7.85,24.24a32.22,32.22,0,0,1-5.79,17c1.12.77,2.24,1.49,3.35,2.2,4.62,3,9,5.8,12.67,12.08-.06-.3-.14-.59-.19-.91-1.25-8.55,3.26-13.94,7.61-19.16.89-1.07,1.79-2.16,2.65-3.27l3.8-21c-1.44-3.46-3.73-6.3-6.12-9.24-3.93-4.84-8.38-10.33-9.78-19.7a41.5,41.5,0,0,1,2.72-21.41.44.44,0,0,1,.6-.26.52.52,0,0,1,.23.66,40.32,40.32,0,0,0-2.65,20.85c1.35,9.09,5.52,14.22,9.56,19.19a44.12,44.12,0,0,1,5.73,8.29l6.84-37.8a6.12,6.12,0,0,1,5.06-5.15c.05-.16.09-.31.14-.46C140.73,41.56,142.4,36.24,138.86,28.73Z"/><path class="cls-1" d="M96.58,122.82a32.22,32.22,0,0,0,5.79-17C103,94.64,98.68,88,94.52,81.54c-3.77-5.83-7.67-11.86-7.88-21.29-.32-14.61,7.92-28.12,15.73-35.9,6.37-6.33,13.4-9.94,19.2-9.94a13.27,13.27,0,0,1,1.8.12c9,1.26,14.47,12,15.49,14.2,3.54,7.51,1.87,12.83-.06,19-.05.15-.09.3-.14.46a4.05,4.05,0,0,1,.7-.07h.28l0-.07c1.91-6.1,3.72-11.87,0-19.76-1-2.23-6.76-13.41-16.18-14.73-6.46-.9-14.38,2.76-21.72,10.07-8,7.92-16.36,21.72-16,36.66.22,9.74,4.2,15.9,8,21.85,4.25,6.59,8.28,12.81,7.68,23.6a31.32,31.32,0,0,1-5.65,16.57Z"/><path class="cls-1" d="M112.41,136.19c0,.32.13.61.19.91a39.76,39.76,0,0,1,2.43,5.09c.33.82.61,1.61.87,2.39.31.42.64.82,1,1.22l.22-1.22a16.86,16.86,0,0,1-3.79-8.55c-1.18-8.07,3-13,7.38-18.32l1.62-2,.36-2c-.86,1.11-1.76,2.2-2.65,3.27C115.67,122.25,111.16,127.64,112.41,136.19Z"/><path class="cls-1" d="M111.47,63.64a40.32,40.32,0,0,1,2.65-20.85.52.52,0,0,0-.23-.66.44.44,0,0,0-.6.26,41.5,41.5,0,0,0-2.72,21.41c1.4,9.37,5.85,14.86,9.78,19.7,2.39,2.94,4.68,5.78,6.12,9.24l.29-1.62A44.12,44.12,0,0,0,121,82.83C117,77.86,112.82,72.73,111.47,63.64Z"/><path class="cls-4" d="M99.47,125.89c-5.35-3.43-11.41-7.32-17.1-17.29-7.14-12.49-7.21-23-7.28-33.14C75,65.06,75,55.24,67.48,43.85c-7.2-11-20.14-21.55-33.21-21.55a23.66,23.66,0,0,0-5.08.55c-8.93,2-18.91,9.81-20.12,19.43-.71,5.57,1.89,9.33,5.19,14.1a64.55,64.55,0,0,1,6.82,11.78c5.2,12.21,3.12,20.83.92,30-1.78,7.41-3.63,15.08-1.27,25,3.39,14.19,12.53,21.13,22.22,28.49,10.65,8.09,21.66,16.45,26.87,35.09a39.24,39.24,0,0,1,1.51,15.59,38.25,38.25,0,0,0,1.12,14c3.7,14.62,13.44,26.82,25.12,36.34l4.79-26.51c-.43-1.46-.82-2.92-1.13-4.4-1.9-9.07-1.37-17.36-.87-25.38.76-12,1.48-23.29-6-35.73-5.25-8.76-11.27-12.72-17.09-16.55-6.51-4.28-12.66-8.32-16.11-18.71-2.4-7.22-1.9-12.72-1.31-19.08a86.51,86.51,0,0,0-.52-24.14,102,102,0,0,0-10.3-30.84.52.52,0,0,1,.17-.68.43.43,0,0,1,.62.19,102.71,102.71,0,0,1,10.4,31.15,87,87,0,0,1,.53,24.42c-.59,6.5-1.06,11.63,1.27,18.64,3.34,10.05,9.07,13.82,15.72,18.19,5.63,3.71,12,7.91,17.37,16.86,7.61,12.72,6.89,24.2,6.12,36.35-.5,7.94-1,16.16.84,25.08.18.86.41,1.7.63,2.55l13.51-74.76a41.53,41.53,0,0,0-2-6.68C110.34,132.85,105.3,129.62,99.47,125.89Z"/><path class="cls-1" d="M97.57,252.62c-11.68-9.52-21.42-21.72-25.12-36.34a38.25,38.25,0,0,1-1.12-14,39.24,39.24,0,0,0-1.51-15.59c-5.21-18.64-16.22-27-26.87-35.09-9.69-7.36-18.83-14.3-22.22-28.49-2.36-9.92-.51-17.59,1.27-25,2.2-9.14,4.28-17.76-.92-30a64.55,64.55,0,0,0-6.82-11.78c-3.3-4.77-5.9-8.53-5.19-14.1,1.21-9.62,11.19-17.44,20.12-19.43a23.66,23.66,0,0,1,5.08-.55c13.07,0,26,10.56,33.21,21.55C75,55.24,75,65.06,75.09,75.46c.07,10.15.14,20.65,7.28,33.14,5.69,10,11.75,13.86,17.1,17.29,5.83,3.73,10.87,7,14.73,16.7a41.53,41.53,0,0,1,2,6.68l.4-2.23q-.32-1.2-.75-2.46c-.26-.78-.54-1.57-.87-2.39a39.76,39.76,0,0,0-2.43-5.09c-3.63-6.28-8-9.12-12.67-12.08-1.11-.71-2.23-1.43-3.35-2.2l-.77-.53a41.38,41.38,0,0,1-12.68-14.22c-7-12.25-7.06-22.6-7.13-32.62-.08-10.56-.15-20.54-7.78-32.19C59.92,30.6,44.11,18.5,29,21.87,19.77,23.93,9.44,32.08,8.17,42.14c-.76,6,1.94,9.9,5.36,14.85a62.77,62.77,0,0,1,6.73,11.6c5.06,11.87,3,20.33.87,29.28-1.82,7.54-3.7,15.34-1.27,25.51,3.46,14.55,12.75,21.6,22.57,29.06C53,160.43,63.84,168.7,69,187a37.94,37.94,0,0,1,1.48,15.21,38.91,38.91,0,0,0,1.14,14.33c4.12,16.24,15.05,28.58,25.79,37.23Z"/><path class="cls-1" d="M101.27,196.4c.77-12.15,1.49-23.63-6.12-36.35-5.35-9-11.74-13.15-17.37-16.86-6.65-4.37-12.38-8.14-15.72-18.19-2.33-7-1.86-12.14-1.27-18.64a87,87,0,0,0-.53-24.42,102.71,102.71,0,0,0-10.4-31.15.43.43,0,0,0-.62-.19.52.52,0,0,0-.17.68,102,102,0,0,1,10.3,30.84,86.51,86.51,0,0,1,.52,24.14c-.59,6.36-1.09,11.86,1.31,19.08,3.45,10.39,9.6,14.43,16.11,18.71,5.82,3.83,11.84,7.79,17.09,16.55,7.44,12.44,6.72,23.75,6,35.73-.5,8-1,16.31.87,25.38.31,1.48.7,2.94,1.13,4.4l.38-2.08c-.22-.85-.45-1.69-.63-2.55C100.25,212.56,100.77,204.34,101.27,196.4Z"/><path class="cls-4" d="M336.83,306.69v0a.76.76,0,0,1,.26-.06h41a5.4,5.4,0,0,0,5.11-5.64V63.1L371.49,128Z"/><path class="cls-1" d="M384.48,53.28a7.28,7.28,0,0,1,0,2.55l-1.31,7.27V301a5.4,5.4,0,0,1-5.11,5.64h-41a.76.76,0,0,0-.26.06h0l-.38,1.93a.94.94,0,0,0,.65.28h41c3.95,0,7.17-3.55,7.17-7.91V57A9.37,9.37,0,0,0,384.48,53.28Z"/><polygon class="cls-1" points="219.12 188.77 192.29 188.77 187.46 216.76 214.28 216.76 219.12 188.77"/><polygon class="cls-3" points="183.06 216.76 187.9 188.77 161.08 188.77 156.24 216.76 183.06 216.76"/><polygon class="cls-3" points="311.62 221.17 306.78 249.16 333.6 249.16 338.44 221.17 311.62 221.17"/><polygon class="cls-3" points="312.77 188.77 285.95 188.77 281.11 216.76 307.94 216.76 312.77 188.77"/><polygon class="cls-1" points="281.57 188.77 254.75 188.77 249.91 216.76 276.74 216.76 281.57 188.77"/><polygon class="cls-1" points="275.56 249.16 302.38 249.16 307.22 221.17 280.4 221.17 275.56 249.16"/><polygon class="cls-3" points="250.34 188.77 223.51 188.77 218.68 216.76 245.5 216.76 250.34 188.77"/><polygon class="cls-1" points="199.01 123.93 172.19 123.93 167.35 151.92 194.18 151.92 199.01 123.93"/><polygon class="cls-1" points="244.34 249.16 271.17 249.16 276 221.17 249.18 221.17 244.34 249.16"/><polygon class="cls-3" points="181.91 249.16 208.73 249.16 213.57 221.17 186.75 221.17 181.91 249.16"/><polygon class="cls-1" points="119.47 249.16 146.3 249.16 151.13 221.17 124.31 221.17 119.47 249.16"/><polygon class="cls-3" points="213.13 249.16 239.95 249.16 244.79 221.17 217.96 221.17 213.13 249.16"/><polygon class="cls-1" points="292.14 151.92 318.96 151.92 323.8 123.93 296.98 123.93 292.14 151.92"/><polygon class="cls-1" points="150.69 249.16 177.51 249.16 182.35 221.17 155.53 221.17 150.69 249.16"/><polygon class="cls-1" points="224.17 184.46 251 184.46 255.84 156.47 229.01 156.47 224.17 184.46"/><polygon class="cls-1" points="287.34 156.36 260.51 156.36 255.68 184.35 282.5 184.35 287.34 156.36"/><polygon class="cls-3" points="261.14 123.93 234.32 123.93 229.48 151.92 256.3 151.92 261.14 123.93"/><polygon class="cls-3" points="229.88 123.93 203.05 123.93 198.22 151.92 225.04 151.92 229.88 123.93"/><polygon class="cls-1" points="291.97 123.93 265.14 123.93 260.3 151.92 287.13 151.92 291.97 123.93"/><polygon class="cls-1" points="193.01 184.35 219.83 184.35 224.67 156.36 197.84 156.36 193.01 184.35"/><polygon class="cls-3" points="161.79 184.35 188.61 184.35 193.45 156.36 166.63 156.36 161.79 184.35"/><polygon class="cls-1" points="162.95 151.95 167.78 123.96 140.96 123.96 136.12 151.95 162.95 151.95"/><polygon class="cls-3" points="157.4 184.35 162.23 156.36 135.41 156.36 130.57 184.35 157.4 184.35"/><polygon class="cls-3" points="125.02 216.76 151.85 216.76 156.68 188.77 129.86 188.77 125.02 216.76"/><polygon class="cls-3" points="291.68 156.47 286.84 184.46 313.67 184.46 318.51 156.47 291.68 156.47"/><polygon class="cls-1" points="323.43 151.95 350.25 151.95 355.09 123.96 328.26 123.96 323.43 151.95"/><polygon class="cls-3" points="317.51 184.35 344.33 184.35 349.17 156.36 322.35 156.36 317.51 184.35"/><polygon class="cls-3" points="312.33 216.76 339.15 216.76 343.99 188.77 317.17 188.77 312.33 216.76"/><path class="cls-5" d="M355.3,70.71a.48.48,0,0,1,.45.5.47.47,0,0,1-.45.5c-10.9,0-19.85-9.3-20.68-21.08H308.34c.83,11.22,9.36,20.08,19.76,20.08a.49.49,0,0,1,.46.5.48.48,0,0,1-.46.5c-10.9,0-19.84-9.3-20.67-21.08H281.14c.83,11.22,9.37,20.08,19.77,20.08a.48.48,0,0,1,.45.5.47.47,0,0,1-.45.5c-10.9,0-19.84-9.3-20.67-21.08H254c.83,11.22,9.37,20.08,19.76,20.08a.49.49,0,0,1,.46.5.48.48,0,0,1-.46.5c-10.89,0-19.84-9.3-20.67-21.08H226.76c.82,11.22,9.36,20.08,19.76,20.08a.48.48,0,0,1,.45.5.47.47,0,0,1-.45.5c-10.9,0-19.84-9.3-20.67-21.08H199.56c.83,11.22,9.37,20.08,19.77,20.08a.48.48,0,0,1,.45.5.47.47,0,0,1-.45.5c-10.9,0-19.85-9.3-20.68-21.08H172.37c.83,11.22,9.36,20.08,19.76,20.08a.49.49,0,0,1,.46.5.48.48,0,0,1-.46.5c-10.9,0-19.84-9.3-20.67-21.08H145.18c.82,11.22,9.36,20.08,19.76,20.08a.48.48,0,0,1,.45.5.47.47,0,0,1-.45.5c-10.9,0-19.84-9.3-20.67-21.08h-4.91a3.7,3.7,0,0,0-3.51,3.18L88.26,317.08a4.17,4.17,0,0,0,.75,3.26,3.43,3.43,0,0,0,2.76,1.44l229.77,1.79c5.56.25,10.43-3.93,11.59-9.9l36.11-186.15,13-72.18a4.24,4.24,0,0,0-.74-3.27,3.46,3.46,0,0,0-2.77-1.44H335.53C336.36,61.85,344.9,70.71,355.3,70.71Zm-30.09,2.88a.43.43,0,0,1,.65,0,3.17,3.17,0,0,0,2.44,1.18,3.67,3.67,0,0,0,0-7.3,3.23,3.23,0,0,0-2.68,1.5.43.43,0,0,1-.63.11.53.53,0,0,1-.1-.7,4.12,4.12,0,0,1,3.41-1.91,4.67,4.67,0,0,1,0,9.3,4.06,4.06,0,0,1-3.11-1.51A.53.53,0,0,1,325.21,73.59Zm-26.72,0a.42.42,0,0,1,.64,0,3.2,3.2,0,0,0,2.44,1.18,3.67,3.67,0,0,0,0-7.3A3.23,3.23,0,0,0,298.9,69a.44.44,0,0,1-.64.11.55.55,0,0,1-.1-.7,4.13,4.13,0,0,1,3.41-1.91,4.67,4.67,0,0,1,0,9.3,4.06,4.06,0,0,1-3.11-1.51A.53.53,0,0,1,298.49,73.59Zm-1.89,49.34h27.75a.44.44,0,0,1,.35.18.53.53,0,0,1,.1.41l-5,29a.48.48,0,0,1-.45.41H291.59a.45.45,0,0,1-.35-.18.57.57,0,0,1-.1-.42l5-29A.48.48,0,0,1,296.6,122.93Zm-44.78,62.12a.47.47,0,0,1-.44.41H223.63a.44.44,0,0,1-.35-.18.53.53,0,0,1-.1-.42l5-29a.47.47,0,0,1,.45-.4h27.75a.44.44,0,0,1,.35.18.53.53,0,0,1,.09.41Zm7.87-29.28a.47.47,0,0,1,.45-.41h27.75a.47.47,0,0,1,.35.18.56.56,0,0,1,.09.42l-5,29a.46.46,0,0,1-.44.4H255.13a.41.41,0,0,1-.35-.18.53.53,0,0,1-.1-.41Zm-39,29.18a.46.46,0,0,1-.44.4H192.46a.41.41,0,0,1-.35-.18.53.53,0,0,1-.1-.41l5-29a.47.47,0,0,1,.45-.41h27.75a.47.47,0,0,1,.35.18.56.56,0,0,1,.09.42Zm-31.21,0a.48.48,0,0,1-.45.4H161.24a.44.44,0,0,1-.35-.18.53.53,0,0,1-.1-.41l5-29a.48.48,0,0,1,.45-.41H194a.45.45,0,0,1,.35.18.57.57,0,0,1,.1.42Zm-1,2.82a.42.42,0,0,1,.35.18.53.53,0,0,1,.1.41l-5,29a.48.48,0,0,1-.45.41H155.69a.47.47,0,0,1-.35-.18.55.55,0,0,1-.1-.41l5-29a.46.46,0,0,1,.44-.4Zm3,.4a.47.47,0,0,1,.45-.4h27.75a.44.44,0,0,1,.35.18.53.53,0,0,1,.09.41l-5,29a.46.46,0,0,1-.44.41H186.91a.45.45,0,0,1-.35-.18.55.55,0,0,1-.1-.41Zm31.22,0a.47.47,0,0,1,.45-.4h27.75a.44.44,0,0,1,.35.18.53.53,0,0,1,.09.41l-5,29a.47.47,0,0,1-.44.41H218.13a.44.44,0,0,1-.35-.18.51.51,0,0,1-.1-.41Zm31.24,0a.47.47,0,0,1,.44-.4h27.75a.41.41,0,0,1,.35.18.53.53,0,0,1,.1.41l-5,29a.47.47,0,0,1-.45.41H249.36a.47.47,0,0,1-.35-.18.55.55,0,0,1-.09-.41Zm31.2,0a.46.46,0,0,1,.44-.4h27.75a.41.41,0,0,1,.35.18.53.53,0,0,1,.1.41l-5,29a.47.47,0,0,1-.45.41H280.56a.47.47,0,0,1-.35-.18.55.55,0,0,1-.09-.41Zm1.17-2.71a.44.44,0,0,1-.35-.18.53.53,0,0,1-.1-.42l5-29a.47.47,0,0,1,.45-.4h27.75a.41.41,0,0,1,.34.18.49.49,0,0,1,.1.41l-5,29a.47.47,0,0,1-.45.41ZM270.19,73.59a.43.43,0,0,1,.65,0,3.17,3.17,0,0,0,2.44,1.18,3.67,3.67,0,0,0,0-7.3A3.23,3.23,0,0,0,270.6,69a.43.43,0,0,1-.63.11.53.53,0,0,1-.1-.7,4.1,4.1,0,0,1,3.41-1.91,4.67,4.67,0,0,1,0,9.3,4,4,0,0,1-3.11-1.51A.53.53,0,0,1,270.19,73.59Zm-5.42,49.34h27.75a.44.44,0,0,1,.35.18.53.53,0,0,1,.09.41l-5,29a.47.47,0,0,1-.44.41H259.76a.44.44,0,0,1-.35-.18.53.53,0,0,1-.1-.42l5-29A.47.47,0,0,1,264.77,122.93ZM243.19,73.59a.42.42,0,0,1,.64,0,3.17,3.17,0,0,0,2.44,1.18,3.67,3.67,0,0,0,0-7.3,3.26,3.26,0,0,0-2.68,1.5.43.43,0,0,1-.63.11.54.54,0,0,1-.1-.7,4.12,4.12,0,0,1,3.41-1.91,4.67,4.67,0,0,1,0,9.3,4.06,4.06,0,0,1-3.11-1.51A.52.52,0,0,1,243.19,73.59Zm-9.69,49.74a.46.46,0,0,1,.44-.4h27.75a.42.42,0,0,1,.35.18.53.53,0,0,1,.1.41l-5,29a.47.47,0,0,1-.45.41H228.93a.47.47,0,0,1-.35-.18.57.57,0,0,1-.1-.42ZM215.7,73.59a.42.42,0,0,1,.64,0,3.17,3.17,0,0,0,2.44,1.18,3.67,3.67,0,0,0,0-7.3A3.24,3.24,0,0,0,216.1,69a.43.43,0,0,1-.63.11.54.54,0,0,1-.1-.7,4.12,4.12,0,0,1,3.41-1.91,4.67,4.67,0,0,1,0,9.3,4.06,4.06,0,0,1-3.11-1.51A.52.52,0,0,1,215.7,73.59Zm-13,49.34h27.75a.44.44,0,0,1,.35.18.53.53,0,0,1,.09.41l-5,29a.46.46,0,0,1-.44.41H197.67a.44.44,0,0,1-.35-.18.57.57,0,0,1-.1-.42l5-29A.47.47,0,0,1,202.68,122.93ZM189,73.59a.42.42,0,0,1,.64,0,3.2,3.2,0,0,0,2.44,1.18,3.67,3.67,0,0,0,0-7.3,3.23,3.23,0,0,0-2.67,1.5.44.44,0,0,1-.64.11.55.55,0,0,1-.1-.7,4.13,4.13,0,0,1,3.41-1.91,4.67,4.67,0,0,1,0,9.3,4.06,4.06,0,0,1-3.11-1.51A.53.53,0,0,1,189,73.59Zm-17.16,49.34h27.75a.41.41,0,0,1,.35.18.49.49,0,0,1,.1.41l-5,29a.47.47,0,0,1-.45.41H166.8a.47.47,0,0,1-.35-.18.56.56,0,0,1-.09-.42l5-29A.47.47,0,0,1,171.81,122.93Zm-9.56-49.34a.42.42,0,0,1,.64,0,3.17,3.17,0,0,0,2.44,1.18,3.67,3.67,0,0,0,0-7.3,3.26,3.26,0,0,0-2.68,1.5.43.43,0,0,1-.63.11.54.54,0,0,1-.1-.7,4.12,4.12,0,0,1,3.41-1.91,4.67,4.67,0,0,1,0,9.3,4.06,4.06,0,0,1-3.11-1.51A.52.52,0,0,1,162.25,73.59Zm-22.11,49.77a.46.46,0,0,1,.44-.4h27.75a.41.41,0,0,1,.35.18.53.53,0,0,1,.1.41l-5,29a.47.47,0,0,1-.45.41H135.57a.47.47,0,0,1-.35-.18.56.56,0,0,1-.09-.42Zm-5.55,32.41a.47.47,0,0,1,.44-.41h27.75a.44.44,0,0,1,.35.18.57.57,0,0,1,.1.42l-5,29a.47.47,0,0,1-.45.4H130a.44.44,0,0,1-.35-.18.53.53,0,0,1-.09-.41Zm-5.11,32h27.75a.41.41,0,0,1,.35.18.53.53,0,0,1,.1.41l-5,29a.47.47,0,0,1-.45.41H124.47a.47.47,0,0,1-.35-.18.55.55,0,0,1-.09-.41l5-29A.47.47,0,0,1,129.48,187.77Zm17.19,62.4H118.92a.45.45,0,0,1-.35-.19.53.53,0,0,1-.09-.41l5-29a.47.47,0,0,1,.44-.41h27.75a.44.44,0,0,1,.35.18.57.57,0,0,1,.1.42l-5,29A.48.48,0,0,1,146.67,250.17Zm31.22,0H150.14a.45.45,0,0,1-.35-.19.53.53,0,0,1-.1-.41l5-29a.46.46,0,0,1,.44-.41H182.9a.45.45,0,0,1,.35.18.57.57,0,0,1,.1.42l-5,29A.48.48,0,0,1,177.89,250.17Zm31.22,0H181.36A.43.43,0,0,1,181,250a.53.53,0,0,1-.1-.41l5-29a.47.47,0,0,1,.45-.41h27.75a.47.47,0,0,1,.35.18.56.56,0,0,1,.09.42l-5,29A.47.47,0,0,1,209.11,250.17Zm31.22,0H212.58a.42.42,0,0,1-.35-.19.53.53,0,0,1-.1-.41l5-29a.47.47,0,0,1,.45-.41h27.75a.47.47,0,0,1,.35.18.56.56,0,0,1,.09.42l-5,29A.48.48,0,0,1,240.33,250.17Zm31.21,0H243.79a.45.45,0,0,1-.35-.19.53.53,0,0,1-.09-.41l5-29a.47.47,0,0,1,.44-.41h27.75a.44.44,0,0,1,.35.18.53.53,0,0,1,.1.42l-5,29A.48.48,0,0,1,271.54,250.17Zm31.22,0H275a.45.45,0,0,1-.35-.19.53.53,0,0,1-.09-.41l5-29a.46.46,0,0,1,.44-.41h27.75a.44.44,0,0,1,.35.18.57.57,0,0,1,.1.42l-5,29A.48.48,0,0,1,302.76,250.17Zm31.66-.41a.47.47,0,0,1-.44.41H306.23a.43.43,0,0,1-.35-.19.53.53,0,0,1-.1-.41l5-29a.47.47,0,0,1,.45-.41H339a.47.47,0,0,1,.35.18.57.57,0,0,1,.1.42ZM340,217.35a.46.46,0,0,1-.44.41H311.78a.45.45,0,0,1-.35-.18.55.55,0,0,1-.1-.41l5-29a.47.47,0,0,1,.45-.4h27.75a.44.44,0,0,1,.35.18.53.53,0,0,1,.1.41Zm5.19-32.4a.48.48,0,0,1-.45.4H317a.42.42,0,0,1-.35-.18.53.53,0,0,1-.1-.41l5-29a.48.48,0,0,1,.45-.41h27.75a.47.47,0,0,1,.35.18.57.57,0,0,1,.1.42Zm5.91-32.41a.46.46,0,0,1-.44.41H322.88a.45.45,0,0,1-.35-.18.57.57,0,0,1-.1-.42l5-29a.47.47,0,0,1,.45-.4h27.75a.44.44,0,0,1,.35.18.58.58,0,0,1,.1.41Zm.54-84.13A4.13,4.13,0,0,1,355,66.5a4.67,4.67,0,0,1,0,9.3,4.06,4.06,0,0,1-3.11-1.51.52.52,0,0,1,0-.7.42.42,0,0,1,.64,0A3.2,3.2,0,0,0,355,74.8a3.67,3.67,0,0,0,0-7.3,3.23,3.23,0,0,0-2.67,1.5.44.44,0,0,1-.64.11A.54.54,0,0,1,351.61,68.41Z"/><path class="cls-1" d="M199.48,48.86H212c0-.25,0-.5,0-.75H199.52c0,.25,0,.5,0,.75Z"/><path class="cls-1" d="M253.87,48.86h12.49c0-.25,0-.5,0-.75H253.9c0,.25,0,.5,0,.75Z"/><path class="cls-1" d="M185.69,48.86h12.88c0-.25,0-.5,0-.75h-13c0,.25,0,.5,0,.75Z"/><path class="cls-1" d="M336.83,306.69,371.49,128,383.18,63.1l1.31-7.27a7.28,7.28,0,0,0,0-2.55,6.9,6.9,0,0,0-1.21-2.82,5.67,5.67,0,0,0-4.55-2.36H376c0,.25,0,.5,0,.75h2.67a5,5,0,0,1,4,2.09,6.12,6.12,0,0,1,1.08,4.73l-13,72.2L360,180.47a.47.47,0,0,1-.44.39h-.1a.51.51,0,0,1-.35-.6l10.79-52.58,13-72.18a5.09,5.09,0,0,0-.89-3.91,4.14,4.14,0,0,0-3.31-1.72H335.5c0,.26,0,.52,0,.77h43.19a3.46,3.46,0,0,1,2.77,1.44,4.24,4.24,0,0,1,.74,3.27l-13,72.18L333.13,313.67c-1.16,6-6,10.15-11.59,9.9L91.77,321.78A3.43,3.43,0,0,1,89,320.34a4.17,4.17,0,0,1-.75-3.26L135.85,53.81a3.7,3.7,0,0,1,3.51-3.18h4.91c0-.25,0-.51,0-.77h-4.87a4.41,4.41,0,0,0-4.19,3.8l-15.73,87a.46.46,0,0,1-.53.4.5.5,0,0,1-.36-.59l15.73-87a5.36,5.36,0,0,1,5.08-4.61h4.83c0-.25,0-.5,0-.75h-4.86a4.05,4.05,0,0,0-.7.07,6.12,6.12,0,0,0-5.06,5.15l-6.84,37.8-.29,1.62-3.8,21-.36,2-5.21,28.84-.22,1.22-.23,1.24-.4,2.23L102.74,224l-.38,2.08-4.79,26.51-.21,1.16L86,316.58A7,7,0,0,0,87.23,322a5.65,5.65,0,0,0,4.54,2.37l229.72,1.78H322c6.44,0,12-4.93,13.37-11.91l1.07-5.56.38-1.93Z"/><path class="cls-1" d="M212.88,48.86h12.89c0-.25,0-.5,0-.75H212.86c0,.25,0,.5,0,.75Z"/><path class="cls-1" d="M267.27,48.86h12.88c0-.25,0-.5,0-.75H267.24c0,.25,0,.5,0,.75Z"/><path class="cls-1" d="M240.08,48.86H253c0-.25,0-.5,0-.75H240.05c0,.25,0,.5,0,.75Z"/><path class="cls-1" d="M145.09,48.86h26.29c0-.25,0-.5,0-.75H145.13c0,.25,0,.5,0,.75Z"/><path class="cls-1" d="M172.29,48.86h12.49c0-.25,0-.5,0-.75H172.32c0,.25,0,.5,0,.75Z"/><path class="cls-1" d="M348.85,48.85h26.29c0-.25,0-.5,0-.75H348.82C348.83,48.35,348.85,48.6,348.85,48.85Z"/><path class="cls-1" d="M226.68,48.86h12.49c0-.25,0-.5,0-.75H226.71c0,.25,0,.5,0,.75Z"/><path class="cls-1" d="M348,48.85c0-.25,0-.5,0-.75H335.49c0,.25,0,.5,0,.75H348Z"/><path class="cls-1" d="M294.47,48.85h12.88c0-.25,0-.5,0-.75H294.44C294.45,48.35,294.47,48.6,294.47,48.85Z"/><path class="cls-1" d="M321.66,48.85h12.88c0-.25,0-.5,0-.75H321.63C321.64,48.35,321.66,48.6,321.66,48.85Z"/><path class="cls-1" d="M308.26,48.85h12.49c0-.25,0-.5,0-.75H308.29C308.28,48.35,308.26,48.6,308.26,48.85Z"/><path class="cls-1" d="M281.06,48.85h12.5c0-.25,0-.5,0-.75H281.1C281.09,48.35,281.06,48.6,281.06,48.85Z"/><path class="cls-1" d="M171.43,49.86H145.14c0,.26,0,.52,0,.77h26.28C171.44,50.38,171.44,50.12,171.43,49.86Z"/><path class="cls-1" d="M253,49.86H226.72c0,.26,0,.52,0,.77H253Z"/><path class="cls-1" d="M198.62,49.86H172.33c0,.26,0,.52,0,.77h26.28Z"/><path class="cls-1" d="M225.81,49.86H199.53c0,.26,0,.52,0,.77h26.29C225.83,50.38,225.82,50.12,225.81,49.86Z"/><path class="cls-1" d="M280.24,50.63c0-.25,0-.51,0-.77H253.92c0,.26,0,.52,0,.77Z"/><path class="cls-1" d="M334.59,49.86H308.3c0,.26,0,.52,0,.77h26.28Z"/><path class="cls-1" d="M307.4,49.86H281.11l0,.77h26.29C307.41,50.38,307.41,50.12,307.4,49.86Z"/><path class="cls-1" d="M144.19,48.86h-4.83a5.36,5.36,0,0,0-5.08,4.61l-15.73,87a.5.5,0,0,0,.36.59.46.46,0,0,0,.53-.4l15.73-87a4.41,4.41,0,0,1,4.19-3.8h4.87C144.22,49.53,144.19,49.2,144.19,48.86Z"/><path class="cls-1" d="M375.59,49.35a.48.48,0,0,1-.45-.49H348.85a.45.45,0,1,1-.9,0h-12.5c0,.34,0,.67.05,1h43.22A4.14,4.14,0,0,1,382,51.58a5.09,5.09,0,0,1,.89,3.91l-13,72.18-10.79,52.58a.51.51,0,0,0,.35.6h.1a.47.47,0,0,0,.44-.39l10.79-52.59,13-72.2A6.12,6.12,0,0,0,382.73,51a5,5,0,0,0-4-2.09h-2.67A.49.49,0,0,1,375.59,49.35Z"/><path class="cls-1" d="M253,48.86H240.08a.46.46,0,1,1-.91,0H226.68c0,.34,0,.67,0,1H253C253,49.53,253,49.2,253,48.86Z"/><path class="cls-1" d="M171.38,48.86H145.09c0,.34,0,.67,0,1h26.29C171.41,49.53,171.38,49.2,171.38,48.86Z"/><path class="cls-1" d="M198.57,48.86H185.69a.46.46,0,1,1-.91,0H172.29c0,.34,0,.67,0,1h26.29C198.61,49.53,198.57,49.2,198.57,48.86Z"/><path class="cls-1" d="M225.77,48.86H212.88a.47.47,0,0,1-.45.49.48.48,0,0,1-.45-.49h-12.5c0,.34,0,.67.05,1h26.28C225.8,49.53,225.77,49.2,225.77,48.86Z"/><path class="cls-1" d="M280.2,49.86c0-.33,0-.66,0-1H267.27a.48.48,0,0,1-.45.49.47.47,0,0,1-.45-.49h-12.5c0,.34,0,.67,0,1Z"/><path class="cls-1" d="M307.35,48.86H294.46a.47.47,0,0,1-.45.49.48.48,0,0,1-.45-.49h-12.5c0,.34,0,.67.05,1H307.4C307.38,49.53,307.35,49.2,307.35,48.86Z"/><path class="cls-1" d="M334.54,48.86H321.66a.46.46,0,1,1-.91,0H308.26c0,.34,0,.67,0,1h26.29C334.58,49.53,334.54,49.2,334.54,48.86Z"/><path class="cls-1" d="M124,217.17a.55.55,0,0,0,.09.41.47.47,0,0,0,.35.18h27.75a.47.47,0,0,0,.45-.41l5-29a.53.53,0,0,0-.1-.41.41.41,0,0,0-.35-.18H129.48a.47.47,0,0,0-.44.4Zm5.83-28.4h26.82l-4.83,28H125Z"/><path class="cls-1" d="M160.26,188.17l-5,29a.55.55,0,0,0,.1.41.47.47,0,0,0,.35.18h27.75a.48.48,0,0,0,.45-.41l5-29a.53.53,0,0,0-.1-.41.42.42,0,0,0-.35-.18H160.7A.46.46,0,0,0,160.26,188.17Zm27.64.6-4.84,28H156.24l4.84-28Z"/><path class="cls-1" d="M186.91,217.76h27.75a.46.46,0,0,0,.44-.41l5-29A.53.53,0,0,0,220,188a.44.44,0,0,0-.35-.18H191.92a.47.47,0,0,0-.45.4l-5,29a.55.55,0,0,0,.1.41A.45.45,0,0,0,186.91,217.76Zm5.38-29h26.83l-4.84,28H187.46Z"/><path class="cls-1" d="M218.13,217.76h27.75a.47.47,0,0,0,.44-.41l5-29a.53.53,0,0,0-.09-.41.44.44,0,0,0-.35-.18H223.14a.47.47,0,0,0-.45.4l-5,29a.51.51,0,0,0,.1.41A.44.44,0,0,0,218.13,217.76Zm5.38-29h26.83l-4.84,28H218.67Z"/><path class="cls-1" d="M249.36,217.76h27.75a.47.47,0,0,0,.45-.41l5-29a.53.53,0,0,0-.1-.41.41.41,0,0,0-.35-.18H254.37a.47.47,0,0,0-.44.4l-5,29a.55.55,0,0,0,.09.41A.47.47,0,0,0,249.36,217.76Zm5.39-29h26.82l-4.83,28H249.91Z"/><path class="cls-1" d="M256.39,155.47H228.64a.47.47,0,0,0-.45.4l-5,29a.53.53,0,0,0,.1.42.44.44,0,0,0,.35.18h27.75a.47.47,0,0,0,.44-.41l5-29a.53.53,0,0,0-.09-.41A.44.44,0,0,0,256.39,155.47Zm-5.39,29H224.17l4.84-28h26.83Z"/><path class="cls-1" d="M280.56,217.76h27.75a.47.47,0,0,0,.45-.41l5-29a.53.53,0,0,0-.1-.41.41.41,0,0,0-.35-.18H285.57a.46.46,0,0,0-.44.4l-5,29a.55.55,0,0,0,.09.41A.47.47,0,0,0,280.56,217.76Zm5.39-29h26.82l-4.83,28H281.11Z"/><path class="cls-1" d="M344.54,187.77H316.79a.47.47,0,0,0-.45.4l-5,29a.55.55,0,0,0,.1.41.45.45,0,0,0,.35.18h27.75a.46.46,0,0,0,.44-.41l5-29a.53.53,0,0,0-.1-.41A.44.44,0,0,0,344.54,187.77Zm-5.39,29H312.33l4.84-28H344Z"/><path class="cls-1" d="M152,220.35a.44.44,0,0,0-.35-.18H123.93a.47.47,0,0,0-.44.41l-5,29a.53.53,0,0,0,.09.41.45.45,0,0,0,.35.19h27.75a.48.48,0,0,0,.45-.41l5-29A.57.57,0,0,0,152,220.35Zm-5.73,28.81H119.47l4.84-28h26.82Z"/><path class="cls-1" d="M183.25,220.35a.45.45,0,0,0-.35-.18H155.15a.46.46,0,0,0-.44.41l-5,29a.53.53,0,0,0,.1.41.45.45,0,0,0,.35.19h27.75a.48.48,0,0,0,.45-.41l5-29A.57.57,0,0,0,183.25,220.35Zm-5.74,28.81H150.69l4.84-28h26.82Z"/><path class="cls-1" d="M214.47,220.35a.47.47,0,0,0-.35-.18H186.37a.47.47,0,0,0-.45.41l-5,29a.53.53,0,0,0,.1.41.43.43,0,0,0,.35.19h27.75a.47.47,0,0,0,.44-.41l5-29A.56.56,0,0,0,214.47,220.35Zm-5.74,28.81H181.91l4.83-28h26.83Z"/><path class="cls-1" d="M245.69,220.35a.47.47,0,0,0-.35-.18H217.59a.47.47,0,0,0-.45.41l-5,29a.53.53,0,0,0,.1.41.42.42,0,0,0,.35.19h27.75a.48.48,0,0,0,.44-.41l5-29A.56.56,0,0,0,245.69,220.35ZM240,249.16H213.13l4.83-28h26.83Z"/><path class="cls-1" d="M276.9,220.35a.44.44,0,0,0-.35-.18H248.8a.47.47,0,0,0-.44.41l-5,29a.53.53,0,0,0,.09.41.45.45,0,0,0,.35.19h27.75a.48.48,0,0,0,.45-.41l5-29A.53.53,0,0,0,276.9,220.35Zm-5.73,28.81H244.34l4.84-28H276Z"/><path class="cls-1" d="M308.12,220.35a.44.44,0,0,0-.35-.18H280a.46.46,0,0,0-.44.41l-5,29a.53.53,0,0,0,.09.41.45.45,0,0,0,.35.19h27.75a.48.48,0,0,0,.45-.41l5-29A.57.57,0,0,0,308.12,220.35Zm-5.73,28.81H275.56l4.84-28h26.82Z"/><path class="cls-1" d="M339,220.17H311.24a.47.47,0,0,0-.45.41l-5,29a.53.53,0,0,0,.1.41.43.43,0,0,0,.35.19H334a.47.47,0,0,0,.44-.41l5-29a.57.57,0,0,0-.1-.42A.47.47,0,0,0,339,220.17Zm-5.39,29H306.78l4.84-28h26.82Z"/><path class="cls-1" d="M135.57,153h27.75a.47.47,0,0,0,.45-.41l5-29a.53.53,0,0,0-.1-.41.41.41,0,0,0-.35-.18H140.58a.46.46,0,0,0-.44.4l-5,29a.56.56,0,0,0,.09.42A.47.47,0,0,0,135.57,153ZM141,124h26.82L163,152H136.12Z"/><path class="cls-1" d="M166.45,152.74a.47.47,0,0,0,.35.18h27.75a.47.47,0,0,0,.45-.41l5-29a.49.49,0,0,0-.1-.41.41.41,0,0,0-.35-.18H171.81a.47.47,0,0,0-.44.4l-5,29A.56.56,0,0,0,166.45,152.74Zm5.74-28.81H199l-4.84,28H167.35Z"/><path class="cls-1" d="M197.32,152.74a.44.44,0,0,0,.35.18h27.75a.46.46,0,0,0,.44-.41l5-29a.53.53,0,0,0-.09-.41.44.44,0,0,0-.35-.18H202.68a.47.47,0,0,0-.45.4l-5,29A.57.57,0,0,0,197.32,152.74Zm5.73-28.81h26.83l-4.84,28H198.22Z"/><path class="cls-1" d="M228.58,152.74a.47.47,0,0,0,.35.18h27.75a.47.47,0,0,0,.45-.41l5-29a.53.53,0,0,0-.1-.41.42.42,0,0,0-.35-.18H233.94a.46.46,0,0,0-.44.4l-5,29A.57.57,0,0,0,228.58,152.74Zm5.74-28.81h26.82l-4.84,28H229.48Z"/><path class="cls-1" d="M259.41,152.74a.44.44,0,0,0,.35.18h27.75a.47.47,0,0,0,.44-.41l5-29a.53.53,0,0,0-.09-.41.44.44,0,0,0-.35-.18H264.77a.47.47,0,0,0-.45.4l-5,29A.53.53,0,0,0,259.41,152.74Zm5.73-28.81H292l-4.84,28H260.3Z"/><path class="cls-1" d="M291.14,152.32a.57.57,0,0,0,.1.42.45.45,0,0,0,.35.18h27.75a.48.48,0,0,0,.45-.41l5-29a.53.53,0,0,0-.1-.41.44.44,0,0,0-.35-.18H296.6a.48.48,0,0,0-.45.4ZM297,123.93H323.8l-4.84,28H292.14Z"/><path class="cls-1" d="M355.64,123H327.89a.47.47,0,0,0-.45.4l-5,29a.57.57,0,0,0,.1.42.45.45,0,0,0,.35.18h27.75a.46.46,0,0,0,.44-.41l5-29a.58.58,0,0,0-.1-.41A.44.44,0,0,0,355.64,123Zm-5.39,29H323.43l4.84-28h26.82Z"/><path class="cls-1" d="M130,185.35h27.75a.47.47,0,0,0,.45-.4l5-29a.57.57,0,0,0-.1-.42.44.44,0,0,0-.35-.18H135a.47.47,0,0,0-.44.41l-5,29a.53.53,0,0,0,.09.41A.44.44,0,0,0,130,185.35Zm5.39-29h26.82l-4.83,28H130.57Z"/><path class="cls-1" d="M194,155.36H166.25a.48.48,0,0,0-.45.41l-5,29a.53.53,0,0,0,.1.41.44.44,0,0,0,.35.18H189a.48.48,0,0,0,.45-.4l5-29a.57.57,0,0,0-.1-.42A.45.45,0,0,0,194,155.36Zm-5.39,29H161.79l4.84-28h26.82Z"/><path class="cls-1" d="M225.22,155.36H197.47a.47.47,0,0,0-.45.41l-5,29a.53.53,0,0,0,.1.41.41.41,0,0,0,.35.18h27.75a.46.46,0,0,0,.44-.4l5-29a.56.56,0,0,0-.09-.42A.47.47,0,0,0,225.22,155.36Zm-5.39,29H193l4.83-28h26.83Z"/><path class="cls-1" d="M314.49,185.05l5-29a.49.49,0,0,0-.1-.41.41.41,0,0,0-.34-.18H291.31a.47.47,0,0,0-.45.4l-5,29a.53.53,0,0,0,.1.42.44.44,0,0,0,.35.18H314A.47.47,0,0,0,314.49,185.05Zm-27.65-.59,4.84-28h26.83l-4.84,28Z"/><path class="cls-1" d="M255.13,185.35h27.75a.46.46,0,0,0,.44-.4l5-29a.56.56,0,0,0-.09-.42.47.47,0,0,0-.35-.18H260.14a.47.47,0,0,0-.45.41l-5,29a.53.53,0,0,0,.1.41A.41.41,0,0,0,255.13,185.35Zm5.38-29h26.83l-4.84,28H255.68Z"/><path class="cls-1" d="M349.72,155.36H322a.48.48,0,0,0-.45.41l-5,29a.53.53,0,0,0,.1.41.42.42,0,0,0,.35.18h27.75a.48.48,0,0,0,.45-.4l5-29a.57.57,0,0,0-.1-.42A.47.47,0,0,0,349.72,155.36Zm-5.39,29H317.51l4.84-28h26.82Z"/><path class="cls-1" d="M184.78,48.86a.46.46,0,1,0,.91,0h0c0-.25,0-.5,0-.75a24,24,0,0,0-4.35-13.29.42.42,0,0,0-.63-.09.52.52,0,0,0-.08.7,23.05,23.05,0,0,1,4.15,12.68c0,.25,0,.5,0,.75Z"/><path class="cls-1" d="M144.19,48.86c0,.34,0,.67,0,1s0,.52,0,.77c.83,11.78,9.77,21.08,20.67,21.08a.47.47,0,0,0,.45-.5.48.48,0,0,0-.45-.5c-10.4,0-18.94-8.86-19.76-20.08,0-.25,0-.51,0-.77s0-.66,0-1h0c0-.25,0-.5,0-.75.36-11.71,9.1-21.11,19.81-21.11a18.48,18.48,0,0,1,11.48,4,.43.43,0,0,0,.64-.12.55.55,0,0,0-.11-.7,19.33,19.33,0,0,0-12-4.21c-11.21,0-20.35,9.85-20.72,22.11,0,.25,0,.5,0,.75Z"/><path class="cls-1" d="M212,48.86a.48.48,0,0,0,.45.49.47.47,0,0,0,.45-.49h0c0-.25,0-.5,0-.75a24.31,24.31,0,0,0-4.55-13.56.42.42,0,0,0-.63-.08.52.52,0,0,0-.07.7A23,23,0,0,1,212,48.1c0,.25,0,.5,0,.75Z"/><path class="cls-1" d="M171.38,48.86c0,.34,0,.67.05,1s0,.52,0,.77c.83,11.78,9.77,21.08,20.67,21.08a.48.48,0,0,0,.46-.5.49.49,0,0,0-.46-.5c-10.4,0-18.93-8.86-19.76-20.08,0-.25,0-.51,0-.77s0-.66,0-1h0c0-.25,0-.5,0-.75.37-11.71,9.1-21.11,19.81-21.11a18.42,18.42,0,0,1,11,3.63.43.43,0,0,0,.63-.14.55.55,0,0,0-.12-.7A19.35,19.35,0,0,0,192.13,26c-11.21,0-20.35,9.85-20.72,22.11,0,.25,0,.5,0,.75Z"/><path class="cls-1" d="M239.17,48.86a.46.46,0,1,0,.91,0h0c0-.25,0-.5,0-.75a24.28,24.28,0,0,0-4.68-13.75.42.42,0,0,0-.64-.07.53.53,0,0,0-.06.7,23.22,23.22,0,0,1,4.47,13.12c0,.25,0,.5,0,.75Z"/><path class="cls-1" d="M198.57,48.86c0,.34,0,.67.05,1l0,.77c.83,11.78,9.78,21.08,20.68,21.08a.47.47,0,0,0,.45-.5.48.48,0,0,0-.45-.5c-10.4,0-18.94-8.86-19.77-20.08,0-.25,0-.51,0-.77s-.05-.66-.05-1h0c0-.25,0-.5,0-.75C199.88,36.39,208.61,27,219.33,27a18.47,18.47,0,0,1,11.33,3.91.43.43,0,0,0,.63-.12.53.53,0,0,0-.11-.7A19.33,19.33,0,0,0,219.33,26C208.11,26,199,35.84,198.61,48.1c0,.25,0,.5,0,.75Z"/><path class="cls-1" d="M266.37,48.86a.47.47,0,0,0,.45.49.48.48,0,0,0,.45-.49h0c0-.25,0-.5,0-.75a24.23,24.23,0,0,0-4.8-13.91.42.42,0,0,0-.64-.06.53.53,0,0,0-.05.7,23.18,23.18,0,0,1,4.58,13.27c0,.25,0,.5,0,.75Z"/><path class="cls-1" d="M225.77,48.86c0,.34,0,.67,0,1s0,.52,0,.77c.83,11.78,9.77,21.08,20.67,21.08a.47.47,0,0,0,.45-.5.48.48,0,0,0-.45-.5c-10.4,0-18.94-8.86-19.76-20.08,0-.25,0-.51,0-.77s0-.66,0-1h0c0-.25,0-.5,0-.75.36-11.71,9.1-21.11,19.81-21.11a18.47,18.47,0,0,1,11.09,3.73.43.43,0,0,0,.63-.13.54.54,0,0,0-.12-.7,19.34,19.34,0,0,0-11.6-3.9c-11.21,0-20.35,9.85-20.72,22.11,0,.25,0,.5,0,.75Z"/><path class="cls-1" d="M293.56,48.85h0a.48.48,0,0,0,.45.49.47.47,0,0,0,.45-.49h0c0-.25,0-.5,0-.75A24.07,24.07,0,0,0,290,34.64a.42.42,0,0,0-.63-.08.55.55,0,0,0-.08.71,22.92,22.92,0,0,1,4.27,12.83C293.54,48.35,293.56,48.6,293.56,48.85Z"/><path class="cls-1" d="M253,48.86c0,.34,0,.67,0,1l0,.77c.83,11.78,9.78,21.08,20.67,21.08a.48.48,0,0,0,.46-.5.49.49,0,0,0-.46-.5c-10.39,0-18.93-8.86-19.76-20.08,0-.25,0-.51,0-.77s0-.66,0-1h0c0-.25,0-.5,0-.75C254.27,36.39,263,27,273.71,27a18.51,18.51,0,0,1,11.06,3.7.42.42,0,0,0,.63-.13.54.54,0,0,0-.12-.7A19.37,19.37,0,0,0,273.71,26C262.5,26,253.36,35.84,253,48.1c0,.25,0,.5,0,.75Z"/><path class="cls-1" d="M320.75,48.85h0a.46.46,0,1,0,.91,0h0c0-.25,0-.5,0-.75a24,24,0,0,0-4.42-13.4.43.43,0,0,0-.64-.08.53.53,0,0,0-.07.7,23,23,0,0,1,4.22,12.78C320.73,48.35,320.75,48.6,320.75,48.85Z"/><path class="cls-1" d="M280.15,48.85h0c0,.34,0,.67,0,1s0,.52,0,.77c.83,11.78,9.77,21.08,20.67,21.08a.47.47,0,0,0,.45-.5.48.48,0,0,0-.45-.5c-10.4,0-18.94-8.86-19.77-20.08l0-.77c0-.33-.05-.66-.05-1h0c0-.25,0-.5,0-.75C281.46,36.39,290.2,27,300.91,27a18.4,18.4,0,0,1,10.84,3.55.43.43,0,0,0,.63-.15.53.53,0,0,0-.13-.69A19.32,19.32,0,0,0,300.91,26c-11.21,0-20.36,9.85-20.72,22.11C280.18,48.35,280.15,48.6,280.15,48.85Z"/><path class="cls-1" d="M348.82,48.1a24.34,24.34,0,0,0-4.63-13.69.43.43,0,0,0-.64-.07.53.53,0,0,0-.06.7,23.27,23.27,0,0,1,4.43,13.06c0,.25,0,.5,0,.75h0a.45.45,0,1,0,.9,0h0C348.85,48.6,348.83,48.35,348.82,48.1Z"/><path class="cls-1" d="M307.35,48.85h0c0,.34,0,.67,0,1s0,.52,0,.77c.83,11.78,9.77,21.08,20.67,21.08a.48.48,0,0,0,.46-.5.49.49,0,0,0-.46-.5c-10.4,0-18.93-8.86-19.76-20.08,0-.25,0-.51,0-.77s0-.66,0-1h0c0-.25,0-.5,0-.75C308.66,36.39,317.39,27,328.1,27a18.53,18.53,0,0,1,10.81,3.52.42.42,0,0,0,.62-.15.53.53,0,0,0-.13-.69A19.31,19.31,0,0,0,328.1,26c-11.21,0-20.35,9.85-20.72,22.11C307.38,48.35,307.35,48.6,307.35,48.85Z"/><path class="cls-1" d="M334.54,48.85h0c0,.34,0,.67,0,1l0,.77c.83,11.78,9.78,21.08,20.68,21.08a.47.47,0,0,0,.45-.5.48.48,0,0,0-.45-.5c-10.4,0-18.94-8.86-19.77-20.08,0-.25,0-.51,0-.77s-.05-.66-.05-1h0c0-.25,0-.5,0-.75C335.85,36.39,344.58,27,355.3,27s19.44,9.4,19.81,21.11c0,.25,0,.5,0,.75h0a.46.46,0,1,0,.91,0h0c0-.25,0-.5,0-.75C375.65,35.84,366.51,26,355.3,26s-20.36,9.85-20.72,22.11C334.57,48.35,334.54,48.6,334.54,48.85Z"/><path class="cls-1" d="M165.33,75.8a4.67,4.67,0,0,0,0-9.3,4.12,4.12,0,0,0-3.41,1.91.54.54,0,0,0,.1.7.43.43,0,0,0,.63-.11,3.26,3.26,0,0,1,2.68-1.5,3.67,3.67,0,0,1,0,7.3,3.17,3.17,0,0,1-2.44-1.18.42.42,0,0,0-.64,0,.52.52,0,0,0,0,.7A4.06,4.06,0,0,0,165.33,75.8Z"/><path class="cls-1" d="M192.05,75.8a4.67,4.67,0,0,0,0-9.3,4.13,4.13,0,0,0-3.41,1.91.55.55,0,0,0,.1.7.44.44,0,0,0,.64-.11,3.23,3.23,0,0,1,2.67-1.5,3.67,3.67,0,0,1,0,7.3,3.2,3.2,0,0,1-2.44-1.18.42.42,0,0,0-.64,0,.53.53,0,0,0,0,.7A4.06,4.06,0,0,0,192.05,75.8Z"/><path class="cls-1" d="M218.78,75.8a4.67,4.67,0,0,0,0-9.3,4.12,4.12,0,0,0-3.41,1.91.54.54,0,0,0,.1.7.43.43,0,0,0,.63-.11,3.24,3.24,0,0,1,2.68-1.5,3.67,3.67,0,0,1,0,7.3,3.17,3.17,0,0,1-2.44-1.18.42.42,0,0,0-.64,0,.52.52,0,0,0,0,.7A4.06,4.06,0,0,0,218.78,75.8Z"/><path class="cls-1" d="M246.27,75.8a4.67,4.67,0,0,0,0-9.3,4.12,4.12,0,0,0-3.41,1.91.54.54,0,0,0,.1.7.43.43,0,0,0,.63-.11,3.26,3.26,0,0,1,2.68-1.5,3.67,3.67,0,0,1,0,7.3,3.17,3.17,0,0,1-2.44-1.18.42.42,0,0,0-.64,0,.52.52,0,0,0,0,.7A4.06,4.06,0,0,0,246.27,75.8Z"/><path class="cls-1" d="M273.28,75.8a4.67,4.67,0,0,0,0-9.3,4.1,4.1,0,0,0-3.41,1.91.53.53,0,0,0,.1.7.43.43,0,0,0,.63-.11,3.23,3.23,0,0,1,2.68-1.5,3.67,3.67,0,0,1,0,7.3,3.17,3.17,0,0,1-2.44-1.18.43.43,0,0,0-.65,0,.53.53,0,0,0,0,.7A4,4,0,0,0,273.28,75.8Z"/><path class="cls-1" d="M301.57,75.8a4.67,4.67,0,0,0,0-9.3,4.13,4.13,0,0,0-3.41,1.91.55.55,0,0,0,.1.7.44.44,0,0,0,.64-.11,3.23,3.23,0,0,1,2.67-1.5,3.67,3.67,0,0,1,0,7.3,3.2,3.2,0,0,1-2.44-1.18.42.42,0,0,0-.64,0,.53.53,0,0,0,0,.7A4.06,4.06,0,0,0,301.57,75.8Z"/><path class="cls-1" d="M328.3,75.8a4.67,4.67,0,0,0,0-9.3,4.12,4.12,0,0,0-3.41,1.91.53.53,0,0,0,.1.7.43.43,0,0,0,.63-.11,3.23,3.23,0,0,1,2.68-1.5,3.67,3.67,0,0,1,0,7.3,3.17,3.17,0,0,1-2.44-1.18.43.43,0,0,0-.65,0,.53.53,0,0,0,0,.7A4.06,4.06,0,0,0,328.3,75.8Z"/><path class="cls-1" d="M352.35,69A3.23,3.23,0,0,1,355,67.5a3.67,3.67,0,0,1,0,7.3,3.2,3.2,0,0,1-2.44-1.18.42.42,0,0,0-.64,0,.52.52,0,0,0,0,.7A4.06,4.06,0,0,0,355,75.8a4.67,4.67,0,0,0,0-9.3,4.13,4.13,0,0,0-3.41,1.91.54.54,0,0,0,.1.7A.44.44,0,0,0,352.35,69Z"/><path class="cls-3" d="M172.41,149c-3.23-.67-10.74-4.86-10.74-4.86-21.14,7.32-30.78,14.36-34.07,21.26a3.47,3.47,0,0,1-1,1.23c-4.88,3.91-8.78,4.19-12.11,2.4a2.13,2.13,0,0,1-1-2.1c1.44-15.54,9-26.85,43.51-28,0,0,6.8.23,7,0,2.62-3,6.91-.18,8.89,2.8s6.72,3.8,6.72,3.8S175.64,149.67,172.41,149Z"/><path class="cls-1" d="M167,137.2c2.43.19,4.83,2.26,6.14,4.23,1.86,2.8,6.43,3.63,6.48,3.64a.43.43,0,0,1,.31.3.45.45,0,0,1-.11.43c-.16.18-4.13,4.32-7.52,3.62-3-.64-9.62-4.23-10.7-4.83-19.09,6.62-30.11,13.49-33.69,21a4,4,0,0,1-1.1,1.38c-4.6,3.68-8.69,4.48-12.5,2.43a2.57,2.57,0,0,1-1.25-2.52c1.5-16.21,9.56-27.25,43.91-28.43,2.9.09,6.16.14,6.77.06a3.9,3.9,0,0,1,2.74-1.32Zm-10,2.1c-33.76,1.17-41.67,11.9-43.14,27.67a1.72,1.72,0,0,0,.82,1.66c3.53,1.9,7.36,1.13,11.71-2.36a3.12,3.12,0,0,0,.86-1.08c3.69-7.74,14.91-14.76,34.29-21.47a.39.39,0,0,1,.3,0c.07,0,7.5,4.17,10.63,4.82,2.31.48,5.08-1.75,6.27-2.83-1.48-.38-4.63-1.44-6.19-3.8-1.17-1.75-3.41-3.72-5.58-3.88a3.16,3.16,0,0,0-2.72,1.13c-.07.08-.14.16-1,.2S160.58,139.42,157,139.3Z"/><path class="cls-1" d="M111.59,75.9A15.13,15.13,0,0,0,95.72,71c-6.22,1.87-9.36,7.81-11.58,12-3.91,7.4-2,10.08-5.1,14.37C73.6,105,60.38,100,53.94,105.81c-15.46,14-7,37.26,6.68,48.22,9.14,7.31,21.57,3.08,24.95,1.93,10.27-3.49,27.28-10.32,28.92-26.65,1.11-11-9.06-19.79-3.6-28.94,1.4-2.33,2.55-3,3.58-5.88C116.15,89.76,116.53,81.79,111.59,75.9Z"/><path class="cls-1" d="M95.52,77.2c2.34-2.09.86-8.26-.64-11.59-.56-1.24-3.07-6.82-6.37-6.6s-6.64,6.49-5.43,11.46C84.6,76.68,92.78,79.65,95.52,77.2Z"/><path class="cls-5" d="M129.48,193.18l-7.14-45.29,6.82-4.3s-8.36-25.51-17.73-28h0c-.34-.16-.69-.31-1-.44a45.33,45.33,0,0,0-27.89-1h0s-6.2.9-6.74,1C72.27,116.12,63.33,119,59,132c-1.26,3.78-2.71,9-3.85,13.36-1.28,4.83,4,11.88,7.54,15l3.53,1.83,5-3.34a141.27,141.27,0,0,1-3,22.28l-2.13,9.76c-.51,6.25,2.53,12.25,7.69,14.9l.36.18c4,1.94,16,2,25.85,2,9.23,0,15.74-1.7,20.05-3.5C124.14,202.7,130,198,129.48,193.18Z"/><path class="cls-1" d="M100,208.36c-11.48,0-22.11-.16-26-2-.13,0-.25-.12-.37-.18-5.27-2.7-8.45-8.86-7.92-15.33a.13.13,0,0,1,0-.06L67.81,181a141.76,141.76,0,0,0,3-21.38l-4.35,2.91a.36.36,0,0,1-.36,0l-3.53-1.83-.08-.05c-3.12-2.72-9.1-10.08-7.68-15.46,1.51-5.73,2.81-10.23,3.87-13.39,3-9.13,8.76-14.86,17-17,.55-.14,6.14-1,6.78-1.06h0a45.59,45.59,0,0,1,28,1.07c.32.12.65.25,1,.43,9.47,2.49,17.65,27.17,18,28.22a.46.46,0,0,1-.17.52l-6.59,4.15,7.09,45v0c.54,5.05-5.36,9.88-9.72,11.7C114.54,207.17,107.75,208.36,100,208.36ZM66.44,190.92C66,197,69,202.82,73.91,205.36l.36.18c4.06,2,17.08,2,25.69,2,7.69,0,14.39-1.17,19.92-3.47,4-1.67,9.69-6.25,9.21-10.79L122,148a.43.43,0,0,1,.19-.44l6.53-4.12c-1-3-8.82-25-17.29-27.34l-.11,0a10.53,10.53,0,0,0-1-.42,44.89,44.89,0,0,0-27.67-1,.25.25,0,0,1-.12,0c-2.48.37-6.25.93-6.63,1-8,2.1-13.52,7.65-16.46,16.48-1,3.1-2.36,7.71-3.85,13.34-1.18,4.47,3.69,11.29,7.38,14.52l3.3,1.71,4.8-3.22a.38.38,0,0,1,.41,0,.43.43,0,0,1,.18.39,143,143,0,0,1-3,22.35Z"/><path class="cls-3" d="M102.85,102.82a2.39,2.39,0,0,0,3-.54A15.91,15.91,0,0,0,108,99.2l1.13,0a.68.68,0,0,0,.67-.7l.2-4.84a9.58,9.58,0,0,0,1.29-3.94c.14-1.8-1.32-5-2.79-5.83-2-1.08-5.6-1.65-7.49,1.46-.81,1.34-2.12,2.3-2.91,2.15S97,86.68,96.67,86c-.69-1.37-2.4-2.64-4-.49s-.51,4.18.52,5.85c.42.68,0,2.55-.2,3.35l-2.43,11.43a8.92,8.92,0,0,1-5.09,6.42l-2.61,1.1s2.88,9.62,14.41,9.35c8.8-.21,8.12-8.16,8.12-8.16l-1.15-.56a7.83,7.83,0,0,1-4-8.65l.77-3.77Z"/><path class="cls-1" d="M96.76,123.39a14.65,14.65,0,0,1-14.31-9.65.45.45,0,0,1,.23-.53l2.61-1.1A8.47,8.47,0,0,0,90.14,106l2.47-11.62c.14-.64.51-2.35.22-2.82-1-1.54-2.4-3.88-.5-6.37a2.66,2.66,0,0,1,2.39-1.29A3.19,3.19,0,0,1,97,85.74l.07.14c.35.7.59,1.13,1.08,1.23s1.75-.67,2.53-2c1.85-3.07,5.43-3,8-1.62,1.69.91,3.15,4.35,3,6.25a9.88,9.88,0,0,1-1.3,4l-.19,4.74a1.09,1.09,0,0,1-1,1.11h0l-.9,0a17.08,17.08,0,0,1-2.12,2.94,2.76,2.76,0,0,1-3.43.63l-1.38-.77-.66,3.24a7.4,7.4,0,0,0,3.73,8.16l1.15.57a.41.41,0,0,1,.23.35,8.79,8.79,0,0,1-1.76,5.78c-1.47,1.82-3.74,2.78-6.74,2.85Zm-13.44-9.53c.67,1.77,4,8.92,13.9,8.67,2.77-.06,4.85-.92,6.17-2.55a7.91,7.91,0,0,0,1.58-4.9l-.93-.45a8.29,8.29,0,0,1-4.17-9.14l.77-3.77a.41.41,0,0,1,.22-.29.34.34,0,0,1,.34,0l1.82,1a2,2,0,0,0,2.53-.46,16.19,16.19,0,0,0,2.12-3,.38.38,0,0,1,.34-.2l1.13,0a.29.29,0,0,0,.28-.29l.19-4.84a.37.37,0,0,1,.06-.21,9.34,9.34,0,0,0,1.24-3.75C111,88,109.59,85,108.33,84.3c-1.62-.87-5.16-1.71-7,1.32C100.44,87.11,99,88.14,98,88s-1.28-1-1.63-1.66l-.07-.14a2.46,2.46,0,0,0-1.69-1.41,2,2,0,0,0-1.71,1c-1.41,1.85-.58,3.51.55,5.34.44.73.18,2.19-.11,3.5L90.9,106.18a9.31,9.31,0,0,1-5.33,6.73Z"/><path class="cls-3" d="M102.25,302.05l-6.11,20.09s6.65-.62,7.29-.49,8.42-18.32,8.42-18.32Z"/><path class="cls-1" d="M96.14,322.57a.38.38,0,0,1-.31-.16.44.44,0,0,1-.06-.4l6.11-20.09a.37.37,0,0,1,.41-.29l9.61,1.28a.37.37,0,0,1,.29.21.48.48,0,0,1,0,.39c0,.05-2,4.67-4,9.22-4.18,9.49-4.47,9.43-4.88,9.34s-4,.2-7.18.5Zm6.38-20.05-5.83,19.14c1.69-.15,5.61-.5,6.63-.45.87-1.11,5.2-11,8-17.52Zm1,18.71Zm0,0Z"/><path class="cls-3" d="M97.54,317.73s9.19-4.15,10.89,1.06c2.16,6.62,5.54,16.73,5.54,16.73a2.84,2.84,0,0,1-2.22,3.79c-3.36.3-8.37.54-10.7-.36-3.69-1.43-9.8-14.28-9.8-14.28l1.88-10.93S96.47,313.22,97.54,317.73Z"/><path class="cls-1" d="M106.33,340a16.56,16.56,0,0,1-5.41-.66c-3.79-1.46-9.77-14-10-14.48a.52.52,0,0,1,0-.28l1.89-10.93a.39.39,0,0,1,.33-.34s3.45-.49,4.71,3.84c1.41-.58,6.11-2.3,9-.89a3.84,3.84,0,0,1,2,2.37c2.14,6.55,5.51,16.63,5.54,16.74a3.51,3.51,0,0,1-.29,2.87,3,3,0,0,1-2.26,1.49C110.1,339.89,108.16,340,106.33,340Zm-14.68-15.4c.66,1.35,6.22,12.65,9.52,13.93,1.74.67,5.48.79,10.55.34a2.15,2.15,0,0,0,1.66-1.09,2.62,2.62,0,0,0,.22-2.12c0-.1-3.4-10.19-5.54-16.74a3,3,0,0,0-1.6-1.87c-3-1.49-8.72,1-8.78,1.06a.33.33,0,0,1-.32,0,.4.4,0,0,1-.2-.27c-.8-3.37-2.92-3.69-3.69-3.69h0Z"/><path class="cls-1" d="M111.61,335.36h-9.44a.41.41,0,0,1-.39-.43.42.42,0,0,1,.39-.43h9.44a.41.41,0,0,1,.39.43A.41.41,0,0,1,111.61,335.36Z"/><polygon class="cls-3" points="84.92 306.99 86.99 327.2 95.35 324.67 94.7 306.46 84.92 306.99"/><path class="cls-1" d="M87,327.63a.34.34,0,0,1-.21-.08.4.4,0,0,1-.17-.3L84.53,307a.47.47,0,0,1,.09-.33.39.39,0,0,1,.28-.15l9.79-.52a.35.35,0,0,1,.28.11.45.45,0,0,1,.12.3l.65,18.21a.44.44,0,0,1-.29.43l-8.35,2.52ZM85.35,307.4l2,19.25,7.62-2.3-.62-17.44Z"/><path class="cls-3" d="M86.21,342.09H99.42a3.13,3.13,0,0,0,2.9-3.7c-.44-3.29-1.88-8.75-6.18-16.25A2.53,2.53,0,0,0,94,320.83h-4a1.4,1.4,0,0,0-1.34,1.33l-.31,3.2L87.08,324a.89.89,0,0,0-1.53.38,56,56,0,0,0-2.28,14.44A3.11,3.11,0,0,0,86.21,342.09Z"/><path class="cls-1" d="M99.42,342.52H86.21a3.14,3.14,0,0,1-2.37-1.1,3.88,3.88,0,0,1-1-2.63,56.43,56.43,0,0,1,2.3-14.56,1.38,1.38,0,0,1,.95-1,1.25,1.25,0,0,1,1.23.4l.63.72.22-2.28a1.81,1.81,0,0,1,1.73-1.72h4a2.88,2.88,0,0,1,2.5,1.51c4.36,7.59,5.81,13.12,6.25,16.41a3.94,3.94,0,0,1-.77,2.93A3.22,3.22,0,0,1,99.42,342.52Zm-13-18.42-.12,0a.52.52,0,0,0-.38.38,55.36,55.36,0,0,0-2.26,14.31,3,3,0,0,0,.73,2,2.42,2.42,0,0,0,1.82.84H99.42a2.47,2.47,0,0,0,1.93-1,3,3,0,0,0,.59-2.24c-.43-3.22-1.85-8.62-6.13-16.08A2.18,2.18,0,0,0,94,321.25h-4a1,1,0,0,0-1,1l-.3,3.19a.42.42,0,0,1-.26.36.36.36,0,0,1-.41-.1l-1.21-1.38A.49.49,0,0,0,86.42,324.1Z"/><path class="cls-1" d="M99.44,339H86.05a.43.43,0,0,1,0-.85H99.44a.43.43,0,0,1,0,.85Z"/><path class="cls-1" d="M116.29,185.62a3.21,3.21,0,0,0-1.92-1.94,43.34,43.34,0,0,0-39,6.18,3.47,3.47,0,0,0-1.41,2.62c-.63,9.71-3,60.48,11.61,120.59l9.82-.77,1.87-95.7a1.11,1.11,0,0,1,2.2-.33c3.54,13.37,9.54,45.84.65,90.89l10.22,2.08s14.94-21.65,17.62-54.74C130.29,225.23,118.94,192.73,116.29,185.62Z"/><path class="cls-3" d="M88,265.3h0c-9.08-.43-10.11-14.06-10.12-14.2a.43.43,0,0,1,.36-.46.41.41,0,0,1,.42.4c0,.13,1,13,9.37,13.41a.43.43,0,0,1,0,.85Z"/><path class="cls-3" d="M115.88,165.52c-3.2.82-10.55,5.34-10.55,5.34-21.4-6.36-31.28-13-34.82-19.71a3.56,3.56,0,0,0-1-1.18c-5-3.68-8.92-3.79-12.18-1.85a2.17,2.17,0,0,0-1,2.14c2,15.46,10,26.43,44.52,26.06,0,0,6.79-.53,7-.33,2.72,2.86,6.91-.13,8.77-3.19s6.58-4.11,6.58-4.11S119.09,164.7,115.88,165.52Z"/><path class="cls-1" d="M110.44,177.57a3.82,3.82,0,0,1-2.79-1.19c-.61,0-3.87.14-6.76.37-34.37.36-42.83-10.3-44.93-26.43a2.6,2.6,0,0,1,1.15-2.58c3.73-2.21,7.85-1.6,12.59,1.87a4,4,0,0,1,1.14,1.33c3.86,7.34,15.13,13.71,34.44,19.46,1.06-.65,7.5-4.53,10.52-5.3,3.35-.86,7.48,3.1,7.65,3.27a.45.45,0,0,1,.12.43.41.41,0,0,1-.3.31s-4.58,1-6.33,3.93c-1.24,2-3.57,4.21-6,4.5A4.36,4.36,0,0,1,110.44,177.57Zm-3.34-2c.86,0,.93.08,1,.15a3.14,3.14,0,0,0,2.77,1c2.16-.26,4.32-2.33,5.42-4.13,1.48-2.43,4.59-3.63,6-4.08-1.22-1-4.08-3.13-6.36-2.54-3.11.79-10.37,5.25-10.45,5.29a.33.33,0,0,1-.29,0c-19.62-5.82-31.09-12.33-35.06-19.9a3,3,0,0,0-.9-1c-4.48-3.29-8.33-3.89-11.79-1.83a1.71,1.71,0,0,0-.75,1.7c2.05,15.68,10.36,26.05,44.13,25.69C104.42,175.62,106.2,175.53,107.1,175.53Z"/></g></svg>