<svg id="Capa_1" data-name="Capa 1" xmlns="http://www.w3.org/2000/svg" xmlns:xlink="http://www.w3.org/1999/xlink" viewBox="0 0 559.96 532.13"><defs><style>.cls-1,.cls-4{fill:none;}.cls-2{opacity:0.5;}.cls-3,.cls-5{fill:#eaa79f;}.cls-3,.cls-4{opacity:0.3;}.cls-4{stroke:#eaa79f;stroke-miterlimit:10;stroke-width:3.82px;}.cls-6{fill:#393b50;}.cls-7{fill:#f5d3cf;}.cls-8{fill:#fff;}.cls-9{clip-path:url(#clip-path);}</style><clipPath id="clip-path"><rect class="cls-1" x="109.43" y="-551.08" width="392.46" height="301.78"/></clipPath></defs><g class="cls-2"><path class="cls-3" d="M440.89,87.62c-40.93-10.48-91,28.1-112,50.27-26.25,27.69-78.46-17.73-130.89-27.34C114.94,95.35,33.59,142.63,13.72,229S50.41,384.15,126,423.39c323.57,168,402.65-69.13,421.52-151.18S518.65,107.52,440.89,87.62Z"/><path class="cls-4" d="M362.16,87.62c-38.45.43-74.59,46.45-88.47,71-17.34,30.73-73.22,2.89-121.68,6.82C75.3,171.7,13.36,232.83,14.16,314s65.5,128.62,140.77,145.44c322.16,72,341.68-156.6,340.92-233.69S435.23,86.81,362.16,87.62Z"/></g><g id="Home_yoga" data-name="Home yoga"><path class="cls-5" d="M433.36,462.79c2.94,2,31.24-24.55,50.43-64.08,6-12.26,42.82-88.2,8.69-132.6-15.74-20.48-44.23-31.17-51.88-24.13-7,6.41,7.4,23.77,16.89,64,3.85,16.29,11.72,51,4.31,88.69C453.56,436.48,430.61,460.89,433.36,462.79Z"/><path class="cls-6" d="M433.77,463.5a1.3,1.3,0,0,1-.75-.22c-1.36-.93.16-3.45,3.84-9.52,6.57-10.85,18.79-31,24.34-59.26,7.54-38.3-.75-73.43-4.3-88.43a291.59,291.59,0,0,0-13.26-41.13c-4.91-12.62-7.61-19.58-3.45-23.4,2-1.84,5.32-2.61,9.65-2.24,11.83,1,31,10.63,43.12,26.44,31,40.34,4.3,106.61-8.62,133.23-17.47,36-43.59,62.76-49.95,64.44A2.38,2.38,0,0,1,433.77,463.5Zm0-1.2c2.77.68,30.16-24,49.52-63.86,12.83-26.41,39.35-92.16,8.75-132-11.94-15.54-30.69-25-42.27-26-4-.34-7,.33-8.72,1.92-3.56,3.27-1,10,3.76,22.08a294.37,294.37,0,0,1,13.31,41.29c3.56,15.08,11.89,50.38,4.31,88.95-5.6,28.44-17.89,48.73-24.5,59.64C435.68,458.05,433.58,461.51,433.73,462.3Z"/><path class="cls-7" d="M433.82,446.79c1.72.69,13-16,18.21-38.12,1.61-6.88,11.61-49.45-10.69-68-10.29-8.56-25.9-10.73-29-6.3-2.79,4,6.45,11.17,15.81,30.4,3.8,7.8,11.73,24.46,12.27,44.35C441,431.2,432.22,446.15,433.82,446.79Z"/><path class="cls-6" d="M433.94,447.42a.8.8,0,0,1-.34-.07c-1.05-.42-.57-1.83.69-5.61,2.08-6.21,5.95-17.77,5.55-32.62-.54-20.15-8.71-36.93-12.2-44.09a151.8,151.8,0,0,0-11.36-19.25c-4-5.93-6.19-9.19-4.41-11.76.85-1.22,2.52-2,4.83-2.35,6.15-.84,17,1.86,25,8.52,20.38,17,14.4,53.64,10.89,68.61-4.84,20.6-14.92,36.81-18.07,38.45A1.38,1.38,0,0,1,433.94,447.42ZM419.1,332.72a15.68,15.68,0,0,0-2.24.15c-2,.26-3.35.9-4,1.83-1.32,1.9.84,5.1,4.41,10.41a151,151,0,0,1,11.44,19.39c3.53,7.23,11.78,24.17,12.33,44.59.41,15.06-3.51,26.75-5.61,33a36.38,36.38,0,0,0-1.19,3.91c2.52-1.84,12.41-17.15,17.19-37.5,3.47-14.76,9.38-50.88-10.49-67.41C434.12,335.43,425.17,332.72,419.1,332.72Z"/><path class="cls-7" d="M99.2,409.41a261.42,261.42,0,0,1-21.72-43.82,264.87,264.87,0,0,1-17-105c1.42-36.59,3-75.69,26.65-89.11,9.51-5.38,18-4,27.42-14,9-9.51,11.46-21.48,14.48-36.2,3.18-15.5,5-24.27.9-27.15-7.58-5.3-30.08,9.65-44.34,27.15C68.68,142.06,76.78,150,57.57,174.66c-9.59,12.31-17.12,17.4-19,29.86-1.6,10.57,2.9,13.08,2.71,26.24-.26,18.85-9.57,19.87-10.86,37.1-1.24,16.64,7.12,19.74,10,45.25,1.59,14.37-.24,20.67,0,28.05C40.92,357.61,51.89,380.8,99.2,409.41Z"/><path class="cls-6" d="M99.2,410a.62.62,0,0,1-.32-.09c-38.49-23.27-58.37-46.4-59.11-68.74a76,76,0,0,1,.28-7.81,99.76,99.76,0,0,0-.27-20.2,93.39,93.39,0,0,0-6.3-25.35c-2.41-6.34-4.31-11.34-3.66-20,.62-8.28,3.09-12.93,5.48-17.42,2.69-5.07,5.24-9.86,5.38-19.65a46,46,0,0,0-1.74-13.4c-1-3.89-1.82-7.26-1-12.92,1.42-9.41,5.93-14.61,12.17-21.81,2.1-2.42,4.48-5.16,7-8.33,9.77-12.54,12.41-20.65,15-28.5,2.45-7.54,4.76-14.66,13.1-24.9,14.13-17.34,36.93-33,45.16-27.26,4.4,3.08,2.63,11.73-.59,27.42l-.07.34c-3.08,15-5.51,26.86-14.63,36.49-6.07,6.41-11.88,8.25-17.5,10A50.18,50.18,0,0,0,87.46,172C64,185.22,62.55,223.52,61.11,260.57A265.92,265.92,0,0,0,78,365.38a262.21,262.21,0,0,0,21.67,43.71.59.59,0,0,1-.09.74A.58.58,0,0,1,99.2,410ZM126.06,93.67c-9.07,0-27.2,12.31-40,28-8.2,10.06-10.48,17.08-12.89,24.51-2.59,8-5.26,16.17-15.15,28.87-2.5,3.2-4.89,5.95-7,8.38-6.11,7.05-10.53,12.14-11.9,21.2-.81,5.43,0,8.68,1,12.44a47.44,47.44,0,0,1,1.78,13.72C41.74,240.84,39,246,36.36,251c-2.33,4.38-4.73,8.91-5.34,16.94-.62,8.39,1.23,13.29,3.59,19.49A94.29,94.29,0,0,1,41,313a101.09,101.09,0,0,1,.27,20.41,75.21,75.21,0,0,0-.27,7.69c.7,21.49,19.68,43.85,56.4,66.45a263.23,263.23,0,0,1-20.47-41.78,267.34,267.34,0,0,1-17-105.29c1.46-37.37,3-76,27-89.6a51.1,51.1,0,0,1,10.29-4.15c5.72-1.82,11.12-3.54,17-9.72,8.88-9.38,11.29-21.08,14.33-35.9l.07-.34c3-14.7,4.83-23.57,1.08-26.19A6.1,6.1,0,0,0,126.06,93.67Z"/><path class="cls-5" d="M65.48,401.87c5-1.43,63-4.23,78.63,0l-15.9,72.27H83.26Z"/><path class="cls-6" d="M128.21,474.74H83.26a.61.61,0,0,1-.59-.46L64.89,402a.61.61,0,0,1,.42-.73c4.82-1.37,63.3-4.24,79,0a.6.6,0,0,1,.43.71l-15.91,72.27A.59.59,0,0,1,128.21,474.74Zm-44.48-1.2h44l15.68-71.23c-15.82-3.88-69.65-1.37-77.19,0Z"/><path class="cls-7" d="M100.08,397c-4.91.73-18.25-43.5-23.51-90.25-4-35.88-12.77-113.65,20.56-131.88,11.17-6.11,27.69-5.87,37.36-21,4-6.33,3.45-10,5.78-18,8.15-28.22,36.09-56.8,62.76-56.1,8.45.22,8.18,2.9,17.46,2.92,21.54,0,28.21-14.34,48.75-20.2,22.22-6.35,49.26.55,52.29,11.35,2.2,7.82-8.07,18.14-15.94,23.43-27.54,18.49-67.92,3.7-69.94,11-1,3.47,8.22,6.87,7.18,11.84-1.2,5.77-15.16,9.07-26.53,8.56-10.08-.45-16.82-3.84-17.94-1.85-1.34,2.38,8.52,6.9,8.83,13.79.38,8.66-14.7,12.27-30.1,24.86-6.63,5.42-25.24,20.45-29.74,42.56-2.46,12.1,2,13.17.71,25.54-2.68,26.41-23.6,28.66-36.12,57.93-4.34,10.14-5.63,27.87-8.22,63.32C101.46,385.63,102.5,396.66,100.08,397Z"/><path class="cls-6" d="M100,397.63a2,2,0,0,1-1.22-.48c-6.09-4.67-18-48.13-22.77-90.31-2.07-18.48-5.21-46.4-3.73-72.66,1.79-31.74,10.06-51.87,24.6-59.82a68,68,0,0,1,11.83-4.6c9.24-3,18.79-6,25.31-16.24,2.64-4.15,3.24-7,4.07-11,.41-1.95.86-4.15,1.64-6.83,4.07-14.1,13-28.38,24.6-39.18C176.64,84.94,190.41,78.8,203,79.11a25.4,25.4,0,0,1,8.32,1.47A25,25,0,0,0,220.49,82h.11c12.23,0,19.7-4.8,27.61-9.88,6-3.84,12.13-7.8,20.86-10.29C286,57,304.68,60,314.35,65.35c4.22,2.36,6.91,5.22,7.76,8.27,2.48,8.8-9.5,19.6-16.19,24.09-17.33,11.64-39.65,10.23-54.42,9.29-8.18-.52-14.64-.92-15.27,1.34-.34,1.25,1.27,2.74,3,4.31,2.27,2.1,4.84,4.48,4.21,7.5-1.38,6.62-16.65,9.5-27.15,9a68.68,68.68,0,0,1-11.79-1.72c-2.8-.59-5.21-1.11-5.59-.44s1.27,2.15,2.68,3.51c2.55,2.44,6,5.77,6.22,10,.25,5.73-5.65,9.27-13.81,14.18a132.88,132.88,0,0,0-16.51,11.18l-.2.16c-6.81,5.56-24.92,20.36-29.33,42.05a28.43,28.43,0,0,0,0,13.11,37.14,37.14,0,0,1,.68,12.37c-1.49,14.65-8.48,21.94-16.57,30.38-6.55,6.83-14,14.56-19.6,27.73-4.29,10-5.59,27.78-8.17,63.13-.87,11.88-1.25,20.82-1.53,27.35-.49,11.67-.64,15.19-2.62,15.49Zm.12-.61h0Zm102-316.72c-26.65,0-53.53,29.1-61.2,55.68-.76,2.64-1.22,4.82-1.62,6.74-.82,4-1.47,7.11-4.23,11.45-6.76,10.59-17,13.86-26,16.74a67.24,67.24,0,0,0-11.62,4.51c-14.15,7.74-22.21,27.53-24,58.83-1.47,26.15,1.66,54,3.73,72.46,4.92,43.71,17,85.42,22.31,89.49a.79.79,0,0,0,.51.22c1-.15,1.25-6.1,1.6-14.34.28-6.54.66-15.49,1.53-27.39,2.59-35.48,3.89-53.29,8.26-63.51,5.72-13.37,13.22-21.2,19.84-28.1,7.94-8.28,14.8-15.43,16.24-29.66a35.69,35.69,0,0,0-.67-12,29.63,29.63,0,0,1,0-13.58c4.5-22.11,22.84-37.1,29.75-42.75l.19-.16a134.18,134.18,0,0,1,16.66-11.28c7.81-4.69,13.44-8.07,13.22-13.08-.16-3.71-3.31-6.73-5.84-9.15-2.07-2-3.7-3.54-2.9-5s3.1-1,6.89-.15a68.11,68.11,0,0,0,11.6,1.7c11.32.51,24.82-2.84,25.91-8.08.49-2.35-1.72-4.39-3.85-6.36s-3.86-3.56-3.32-5.52c.89-3.21,7.1-2.82,16.5-2.22,14.61.92,36.69,2.32,53.68-9.09,7.47-5,17.82-15.22,15.7-22.77-.76-2.73-3.25-5.34-7.19-7.54C304.31,61.12,286,58.26,269.4,63c-8.55,2.44-14.65,6.36-20.54,10.14-8.06,5.19-15.68,10.08-28.26,10.08h-.11a26.47,26.47,0,0,1-9.5-1.5,24.11,24.11,0,0,0-8-1.41Z"/><path class="cls-6" d="M100.08,397.62a.61.61,0,0,1-.59-.46c0-.22-5.39-22.68-5.44-58.7a410.36,410.36,0,0,1,26.63-143.79,151.35,151.35,0,0,1,34.81-53.82,183.7,183.7,0,0,1,44.12-32.25c28.73-15.25,53.74-19.79,54-19.83a.6.6,0,0,1,.21,1.19c-.25,0-25.1,4.55-53.67,19.72-26.33,14-61.29,40.16-78.33,85.41A409.09,409.09,0,0,0,95.26,338.45c0,35.88,5.35,58.21,5.41,58.43a.61.61,0,0,1-.45.73Z"/><path class="cls-6" d="M86.77,401.56a.6.6,0,0,1-.47-.23,199.84,199.84,0,0,1-20.24-32.42c-9.24-18.24-20.24-46.52-20.24-77.72,0-86.92,27.93-131.79,44.58-150.8.48-.54.82-.93,1-1.14a.62.62,0,0,1,.85-.12.6.6,0,0,1,.12.84c-.18.25-.52.63-1,1.22C74.77,160.07,47,204.66,47,291.19c0,30.95,10.93,59,20.1,77.14a198.54,198.54,0,0,0,20.11,32.24.61.61,0,0,1-.08.85A.64.64,0,0,1,86.77,401.56Z"/><path class="cls-6" d="M369.1,169h0a.22.22,0,0,1-.31-.05c-.51-.7-1-1.44-1.45-2.2a.23.23,0,0,1,.08-.3.22.22,0,0,1,.3.08c.44.74.92,1.47,1.42,2.17A.21.21,0,0,1,369.1,169Zm-2.67-4.5a.09.09,0,0,1-.05,0,.21.21,0,0,1-.29-.1c-.37-.78-.72-1.6-1-2.42a.22.22,0,0,1,.13-.28.21.21,0,0,1,.28.12c.31.82.65,1.62,1,2.39A.22.22,0,0,1,366.43,164.49Zm-1.83-4.89-.09,0a.22.22,0,0,1-.27-.15c-.23-.83-.44-1.69-.61-2.56a.2.2,0,0,1,.17-.25.22.22,0,0,1,.26.17c.17.85.37,1.7.6,2.52A.22.22,0,0,1,364.6,159.6Zm-1-5.13a.17.17,0,0,1-.12.05.21.21,0,0,1-.24-.19c-.1-.86-.18-1.74-.22-2.62a.21.21,0,0,1,.2-.23.22.22,0,0,1,.23.21c.05.87.12,1.74.22,2.59A.22.22,0,0,1,363.57,154.47Zm-.26-5.22a.25.25,0,0,1-.15.05.21.21,0,0,1-.21-.22c0-.87.06-1.76.14-2.63a.22.22,0,1,1,.44,0c-.08.86-.13,1.74-.15,2.6A.24.24,0,0,1,363.31,149.25Zm.46-5.21a.23.23,0,0,1-.18.05.22.22,0,0,1-.18-.25c.13-.87.3-1.74.49-2.59a.21.21,0,0,1,.26-.16.22.22,0,0,1,.17.26c-.19.84-.36,1.7-.49,2.56A.24.24,0,0,1,363.77,144Zm1.15-5.11a.23.23,0,0,1-.21,0,.23.23,0,0,1-.15-.28c.15-.49.31-1,.47-1.48l.36-1a.21.21,0,0,1,.28-.13.22.22,0,0,1,.13.28l-.36,1c-.16.49-.32,1-.46,1.47A.21.21,0,0,1,364.92,138.93Zm1.79-4.91a.21.21,0,0,1-.23,0,.21.21,0,0,1-.11-.28c.34-.8.72-1.6,1.11-2.39a.23.23,0,0,1,.3-.09.21.21,0,0,1,.09.29c-.39.78-.76,1.57-1.1,2.36A.24.24,0,0,1,366.71,134Zm2.35-4.68a.23.23,0,0,1-.25,0,.22.22,0,0,1-.08-.3c.43-.75.88-1.51,1.36-2.25a.21.21,0,0,1,.3-.06.22.22,0,0,1,.07.3c-.47.73-.93,1.48-1.35,2.23Zm2.82-4.41a.21.21,0,0,1-.27,0,.22.22,0,0,1-.05-.31c.5-.7,1-1.41,1.57-2.1a.21.21,0,0,1,.3,0,.21.21,0,0,1,0,.31c-.54.69-1.06,1.39-1.55,2.09Zm3.22-4.12a.23.23,0,0,1-.29,0,.22.22,0,0,1,0-.31c.56-.66,1.14-1.32,1.74-2a.22.22,0,1,1,.32.29c-.59.64-1.17,1.3-1.73,2Zm19.54-17.35a.22.22,0,1,1-.29-.32c.69-.62,1.3-1.21,1.88-1.8a.22.22,0,0,1,.32.31c-.59.59-1.22,1.19-1.91,1.81Zm-2,1.72h0c-.61.51-1.28,1-2,1.65a.22.22,0,0,1-.31,0,.23.23,0,0,1,0-.31c.76-.6,1.42-1.14,2-1.64a.22.22,0,0,1,.31,0A.23.23,0,0,1,392.66,105.18Zm-4.09,3.26h0l-.32.24-1.75,1.37a.21.21,0,0,1-.3,0,.22.22,0,0,1,0-.31l1.76-1.36.31-.25a.23.23,0,0,1,.31,0A.23.23,0,0,1,388.57,108.44Zm9.73-8.71a.21.21,0,0,1-.28,0,.22.22,0,0,1,0-.31c.58-.68,1.11-1.37,1.59-2a.21.21,0,0,1,.3-.06.22.22,0,0,1,.05.31c-.48.69-1,1.39-1.6,2.09ZM378.64,117a.22.22,0,0,1-.29,0,.21.21,0,0,1,0-.31c.61-.61,1.24-1.23,1.88-1.83h0a.23.23,0,0,1,.31,0,.22.22,0,0,1,0,.31c-.64.6-1.27,1.21-1.88,1.82Zm5.82-5.27h0c-.67.55-1.34,1.12-2,1.69a.22.22,0,0,1-.31,0,.23.23,0,0,1,0-.31h0c.65-.57,1.32-1.14,2-1.7a.22.22,0,0,1,.3,0A.22.22,0,0,1,384.46,111.69Zm16.81-16.26a.23.23,0,0,1-.25,0,.2.2,0,0,1-.09-.29A20.61,20.61,0,0,0,402,92.81a.21.21,0,0,1,.28-.13.22.22,0,0,1,.13.28,21.61,21.61,0,0,1-1.1,2.41Zm1.85-4.88a.25.25,0,0,1-.19,0,.22.22,0,0,1-.16-.27,20.87,20.87,0,0,0,.43-2.55.22.22,0,0,1,.24-.19.21.21,0,0,1,.19.24,20.15,20.15,0,0,1-.44,2.6A.24.24,0,0,1,403.12,90.55Zm.57-5.19a.2.2,0,0,1-.14,0,.21.21,0,0,1-.22-.21,25.86,25.86,0,0,0-.13-2.6.21.21,0,0,1,.2-.23.2.2,0,0,1,.23.19c.09.9.14,1.78.14,2.63A.21.21,0,0,1,403.69,85.36Zm-.48-5.2-.11,0a.22.22,0,0,1-.25-.18q-.23-1.23-.54-2.55a.23.23,0,0,1,.17-.26.21.21,0,0,1,.26.16c.21.88.39,1.75.54,2.57A.26.26,0,0,1,403.21,80.16ZM402,75.07a.2.2,0,0,1-.08,0,.21.21,0,0,1-.27-.14c-.23-.79-.5-1.63-.79-2.49a.23.23,0,0,1,.14-.28.22.22,0,0,1,.28.14c.29.86.55,1.71.79,2.5A.24.24,0,0,1,402,75.07Zm-1.65-5-.07,0A.21.21,0,0,1,400,70c-.27-.74-.57-1.54-.92-2.45a.21.21,0,0,1,.12-.28.21.21,0,0,1,.28.13c.35.91.66,1.71.93,2.45A.23.23,0,0,1,400.34,70.1Zm-1.87-4.89-.07,0a.21.21,0,0,1-.28-.13c-.35-.9-.65-1.7-.93-2.45a.22.22,0,0,1,.41-.15c.27.75.58,1.55.92,2.45A.22.22,0,0,1,398.47,65.21Zm-1.8-4.92-.08,0a.21.21,0,0,1-.27-.13c-.29-.87-.56-1.71-.8-2.51a.23.23,0,0,1,.15-.27.21.21,0,0,1,.27.15c.24.79.5,1.63.79,2.49A.22.22,0,0,1,396.67,60.29Zm-1.48-5a.13.13,0,0,1-.09,0,.21.21,0,0,1-.26-.16c-.22-.88-.4-1.74-.55-2.57a.22.22,0,0,1,.18-.25.21.21,0,0,1,.25.17c.15.82.33,1.68.54,2.55A.22.22,0,0,1,395.19,55.27Zm-.91-5.16a.23.23,0,0,1-.12.06.22.22,0,0,1-.24-.2c-.09-.9-.14-1.78-.15-2.63a.22.22,0,0,1,.22-.22.21.21,0,0,1,.22.21c0,.84.06,1.71.15,2.6A.23.23,0,0,1,394.28,50.11Zm0-5.22a.29.29,0,0,1-.17,0,.22.22,0,0,1-.19-.24,21.86,21.86,0,0,1,.42-2.61.22.22,0,0,1,.26-.16.21.21,0,0,1,.16.26,23,23,0,0,0-.41,2.55A.21.21,0,0,1,394.25,44.89Zm1.16-5.09a.22.22,0,0,1-.22,0,.22.22,0,0,1-.13-.28c.06-.14.11-.28.17-.43a20.36,20.36,0,0,1,.92-2,.21.21,0,0,1,.38.2c-.35.67-.64,1.31-.9,1.95-.05.13-.1.27-.16.41A.15.15,0,0,1,395.41,39.8Zm2.39-4.65a.21.21,0,0,1-.26,0,.22.22,0,0,1-.07-.3c.47-.75,1-1.5,1.44-2.19a.22.22,0,0,1,.36.24c-.46.69-1,1.44-1.43,2.18Zm2.9-4.36a.23.23,0,0,1-.27,0,.21.21,0,0,1-.06-.3c.55-.84,1-1.55,1.37-2.21a.22.22,0,0,1,.3-.09.22.22,0,0,1,.08.3c-.39.68-.83,1.39-1.39,2.24Zm2.57-4.55a.23.23,0,0,1-.24,0,.21.21,0,0,1-.11-.28c.12-.28.24-.55.34-.81.2-.53.38-1.08.53-1.63a.22.22,0,0,1,.42.12c-.15.56-.34,1.12-.54,1.66-.11.27-.22.55-.35.83A.22.22,0,0,1,403.27,26.24Zm1.36-5a.26.26,0,0,1-.17.05.21.21,0,0,1-.19-.24,18.49,18.49,0,0,0,.09-2.58.22.22,0,0,1,.21-.23.23.23,0,0,1,.23.21,19.45,19.45,0,0,1-.1,2.65A.27.27,0,0,1,404.63,21.21ZM404.45,16a.19.19,0,0,1-.1,0,.23.23,0,0,1-.26-.18,18.35,18.35,0,0,0-.61-2.51.21.21,0,0,1,.14-.27.21.21,0,0,1,.27.14,18.89,18.89,0,0,1,.63,2.57A.19.19,0,0,1,404.45,16Zm-1.59-5-.05,0a.22.22,0,0,1-.29-.1,18.34,18.34,0,0,0-1.27-2.25.22.22,0,1,1,.36-.24,20.72,20.72,0,0,1,1.31,2.3A.22.22,0,0,1,402.86,11ZM400,6.68a.22.22,0,0,1-.31,0,16.41,16.41,0,0,0-1.87-1.77.22.22,0,1,1,.27-.34A16.48,16.48,0,0,1,400,6.37a.21.21,0,0,1,0,.31Z"/><path class="cls-6" d="M380.62,181.56a.22.22,0,0,1-.3,0c-.22-.22-.43-.45-.63-.68-.38-.43-.74-.88-1.08-1.34a.22.22,0,0,1,.05-.31.21.21,0,0,1,.3.05c.33.45.69.89,1.06,1.31.19.23.4.45.61.66a.22.22,0,0,1,0,.31Zm-3.1-4.2,0,0a.22.22,0,0,1-.29-.09,23.82,23.82,0,0,1-1.15-2.38.22.22,0,1,1,.41-.17,21.93,21.93,0,0,0,1.12,2.34A.22.22,0,0,1,377.52,177.36Zm-2-4.83-.08.05a.21.21,0,0,1-.27-.15c-.25-.82-.46-1.68-.64-2.56a.21.21,0,0,1,.17-.25.22.22,0,0,1,.26.17c.17.86.38,1.71.62,2.52A.2.2,0,0,1,375.52,172.53Zm-1-5.12a.17.17,0,0,1-.12.05.21.21,0,0,1-.24-.19c-.1-.85-.18-1.73-.23-2.62a.22.22,0,1,1,.44,0c0,.88.12,1.75.22,2.59A.21.21,0,0,1,374.47,167.41Zm-.28-5.22a.25.25,0,0,1-.15.05.21.21,0,0,1-.21-.22c0-.86,0-1.74.09-2.63a.22.22,0,0,1,.24-.2.21.21,0,0,1,.2.23c-.06.88-.09,1.75-.1,2.61A.24.24,0,0,1,374.19,162.19Zm.33-5.23a.24.24,0,0,1-.17.06.23.23,0,0,1-.19-.25c.1-.86.22-1.74.35-2.6a.22.22,0,1,1,.43.07c-.13.86-.25,1.73-.35,2.58A.17.17,0,0,1,374.52,157Zm.82-5.17a.19.19,0,0,1-.19.05.21.21,0,0,1-.17-.25c.17-.85.36-1.72.57-2.57a.23.23,0,0,1,.27-.16.24.24,0,0,1,.16.27c-.21.84-.4,1.7-.57,2.54A.24.24,0,0,1,375.34,151.79Zm1.25-5.08a.23.23,0,0,1-.21,0,.23.23,0,0,1-.15-.27c.24-.84.51-1.68.79-2.51a.21.21,0,0,1,.27-.14.22.22,0,0,1,.14.28c-.28.82-.54,1.66-.78,2.49A.21.21,0,0,1,376.59,146.71Zm1.66-5a.22.22,0,0,1-.22,0,.21.21,0,0,1-.13-.28c.31-.82.64-1.63,1-2.44a.22.22,0,0,1,.29-.11.21.21,0,0,1,.11.28c-.34.8-.66,1.61-1,2.42A.2.2,0,0,1,378.25,141.75Zm2.05-4.82a.21.21,0,0,1-.24,0,.22.22,0,0,1-.1-.29c.37-.79.76-1.58,1.17-2.35a.21.21,0,1,1,.38.2c-.4.77-.79,1.55-1.16,2.33A.13.13,0,0,1,380.3,136.93Zm2.42-4.64a.23.23,0,0,1-.26,0,.22.22,0,0,1-.08-.3c.43-.76.88-1.51,1.34-2.26a.22.22,0,0,1,.3-.07.21.21,0,0,1,.07.3c-.45.74-.9,1.5-1.33,2.25Zm2.75-4.45a.2.2,0,0,1-.26,0,.21.21,0,0,1-.06-.3c.48-.72,1-1.45,1.5-2.15a.22.22,0,0,1,.31,0,.22.22,0,0,1,0,.3c-.51.71-1,1.43-1.49,2.14A.08.08,0,0,1,385.47,127.84Zm36-31.75-.92.8a.23.23,0,0,1-.31,0,.22.22,0,0,1,0-.31h0c.66-.56,1.32-1.14,1.95-1.72a.21.21,0,0,1,.31,0,.22.22,0,0,1,0,.31Zm-2.95,2.45h0c-.66.51-1.36,1-2.09,1.59a.22.22,0,0,1-.3,0,.21.21,0,0,1,0-.31c.73-.54,1.42-1.07,2.08-1.59a.21.21,0,0,1,.3,0A.22.22,0,0,1,418.54,98.54Zm5.88-5.21a.22.22,0,0,1-.3,0,.2.2,0,0,1,0-.3c.48-.5.95-1,1.4-1.5.13-.13.25-.27.37-.41a.22.22,0,0,1,.33.29l-.37.42c-.46.5-.93,1-1.42,1.5Zm-10.07,8.34,0,0-2.14,1.51a.21.21,0,0,1-.3-.06.21.21,0,0,1,.05-.3l2.14-1.51a.21.21,0,0,1,.3,0A.22.22,0,0,1,414.35,101.67Zm13.5-12.28a.24.24,0,0,1-.28,0,.23.23,0,0,1,0-.31c.52-.68,1-1.4,1.5-2.13a.23.23,0,0,1,.3-.06.22.22,0,0,1,.07.3c-.48.74-1,1.46-1.52,2.15Zm-39.3,34.22a.23.23,0,0,1-.28,0,.23.23,0,0,1,0-.31c.54-.68,1.1-1.37,1.66-2a.22.22,0,0,1,.33.29c-.56.66-1.11,1.34-1.64,2Zm21.51-18.94,0,0-.27.19c-.63.43-1.26.86-1.88,1.3a.22.22,0,0,1-.31-.06.22.22,0,0,1,.06-.3c.62-.44,1.25-.87,1.88-1.3l.27-.19a.22.22,0,0,1,.31.06A.22.22,0,0,1,410.06,104.67Zm-4.3,3,0,0c-.77.54-1.46,1-2.12,1.52a.22.22,0,0,1-.3,0,.22.22,0,0,1,.05-.31c.65-.48,1.35-1,2.12-1.53a.22.22,0,0,1,.31.05A.22.22,0,0,1,405.76,107.66Zm-13.84,12a.23.23,0,0,1-.29,0,.22.22,0,0,1,0-.31c.59-.65,1.19-1.29,1.8-1.91a.22.22,0,0,1,.31,0,.23.23,0,0,1,0,.31c-.6.62-1.21,1.26-1.79,1.9Zm9.63-8.85h0c-.63.49-1.25,1-1.82,1.45l-.22.18a.22.22,0,0,1-.3,0,.22.22,0,0,1,0-.31h0l.22-.18c.58-.47,1.2-1,1.84-1.45a.2.2,0,0,1,.3,0A.21.21,0,0,1,401.55,110.76ZM430.72,85a.21.21,0,0,1-.25,0,.21.21,0,0,1-.08-.3c.42-.75.83-1.52,1.2-2.3a.22.22,0,0,1,.3-.1.22.22,0,0,1,.1.29c-.38.79-.79,1.57-1.22,2.33C430.75,85,430.74,85,430.72,85Zm-35.14,30.85a.22.22,0,0,1-.3,0,.21.21,0,0,1,0-.31c.63-.6,1.28-1.2,1.93-1.78h0a.22.22,0,1,1,.29.33c-.65.57-1.3,1.17-1.92,1.77ZM433,80.3a.21.21,0,0,1-.23,0,.22.22,0,0,1-.12-.28c.33-.81.63-1.63.9-2.45a.22.22,0,0,1,.28-.13.21.21,0,0,1,.13.27c-.27.83-.58,1.66-.91,2.47A.22.22,0,0,1,433,80.3Zm1.64-5a.23.23,0,0,1-.2,0,.22.22,0,0,1-.15-.26c.22-.84.41-1.7.57-2.54a.23.23,0,0,1,.26-.18.23.23,0,0,1,.17.26c-.16.85-.36,1.72-.58,2.57A.19.19,0,0,1,434.64,75.34Zm1-5.14a.26.26,0,0,1-.17,0,.21.21,0,0,1-.19-.24c.1-.87.18-1.74.22-2.6a.21.21,0,0,1,.22-.21.22.22,0,0,1,.21.23c0,.87-.11,1.75-.22,2.63A.21.21,0,0,1,435.62,70.2Zm.25-5.23a.24.24,0,0,1-.14,0,.22.22,0,0,1-.23-.21c0-.87-.08-1.74-.17-2.59a.22.22,0,0,1,.2-.24.21.21,0,0,1,.24.19c.09.86.15,1.75.17,2.63A.24.24,0,0,1,435.87,65Zm-.55-5.2-.11,0a.22.22,0,0,1-.25-.18c-.16-.85-.36-1.7-.59-2.52a.21.21,0,0,1,.15-.27.21.21,0,0,1,.27.15c.23.83.43,1.7.6,2.56A.26.26,0,0,1,435.32,59.77Zm-1.41-5a.1.1,0,0,1-.07,0,.21.21,0,0,1-.28-.12,25.12,25.12,0,0,0-1-2.38.22.22,0,0,1,.4-.2c.38.79.73,1.6,1,2.42A.21.21,0,0,1,433.91,54.73ZM431.62,50l0,0a.22.22,0,0,1-.3-.07c-.22-.36-.46-.73-.69-1.08s-.5-.71-.77-1.07a.22.22,0,0,1,.05-.31.21.21,0,0,1,.3,0c.27.36.53.73.78,1.09s.47.72.7,1.09A.22.22,0,0,1,431.62,50Zm-3.1-4.22h0a.23.23,0,0,1-.31,0l-.73-.86-1-1.1a.21.21,0,0,1,0-.3.22.22,0,0,1,.31,0c.36.39.68.75,1,1.11l.75.86A.22.22,0,0,1,428.52,45.82ZM425,42a.22.22,0,0,1-.3,0l-.53-.56L422.91,40a.21.21,0,0,1,0-.31h0a.22.22,0,0,1,.31,0c.41.45.84.9,1.26,1.34l.53.56a.22.22,0,0,1,0,.31Zm-3.57-3.84a.21.21,0,0,1-.3,0l-.2-.22c-.56-.63-1.05-1.22-1.5-1.78a.21.21,0,0,1,0-.31.22.22,0,0,1,.31,0c.45.57.93,1.14,1.48,1.77l.2.22a.22.22,0,0,1,0,.31ZM418.2,34l0,0a.22.22,0,0,1-.3-.06,25.07,25.07,0,0,1-1.36-2.26.22.22,0,0,1,.09-.3.22.22,0,0,1,.29.09,25.19,25.19,0,0,0,1.34,2.22A.22.22,0,0,1,418.2,34Zm-2.42-4.63-.07,0a.2.2,0,0,1-.28-.13,15.32,15.32,0,0,1-.68-2.35,1.62,1.62,0,0,1,0-.19.21.21,0,1,1,.42-.09,1.29,1.29,0,0,1,0,.19,17.09,17.09,0,0,0,.67,2.29A.23.23,0,0,1,415.78,29.38Zm-1.06-5.11a.31.31,0,0,1-.13.06.21.21,0,0,1-.23-.2c-.07-.78-.1-1.57-.14-2.33l0-.29a.23.23,0,0,1,.21-.23.22.22,0,0,1,.23.21v.29c0,.76.08,1.54.14,2.31A.2.2,0,0,1,414.72,24.27Zm-.33-5.22a.18.18,0,0,1-.12.05.21.21,0,0,1-.24-.19,19.79,19.79,0,0,0-.33-2.18l-.09-.37a.22.22,0,0,1,.16-.27.21.21,0,0,1,.26.16,2.74,2.74,0,0,1,.09.39,18.27,18.27,0,0,1,.34,2.22A.21.21,0,0,1,414.39,19.05ZM413,14l0,0a.22.22,0,0,1-.29-.1,9.83,9.83,0,0,0-1.29-1.91l-.17-.18a.22.22,0,0,1,0-.31.21.21,0,0,1,.31,0l.17.19a9.48,9.48,0,0,1,1.35,2A.22.22,0,0,1,413,14Zm-3.58-3.69a.21.21,0,0,1-.23,0,5.21,5.21,0,0,0-1.84-.47.22.22,0,0,1,0-.43,5.61,5.61,0,0,1,2,.5.22.22,0,0,1,.11.29A.16.16,0,0,1,409.46,10.34Z"/><path class="cls-6" d="M375.46,179.17a.22.22,0,0,1-.32-.29c.48-.72,1-1.44,1.5-2.15a.22.22,0,0,1,.31,0,.23.23,0,0,1,.05.31c-.52.7-1,1.42-1.5,2.14C375.49,179.14,375.48,179.16,375.46,179.17Zm36-31.75-.92.79a.21.21,0,0,1-.31,0,.22.22,0,0,1,0-.3h0c.66-.56,1.32-1.15,2-1.73a.21.21,0,0,1,.3,0,.21.21,0,0,1,0,.31C412.19,146.79,411.84,147.11,411.48,147.42Zm-2.94,2.44h0c-.66.52-1.36,1-2.09,1.6a.21.21,0,0,1-.3-.05.22.22,0,0,1,0-.3c.73-.55,1.43-1.08,2.08-1.59a.21.21,0,0,1,.3,0A.22.22,0,0,1,408.54,149.86Zm5.87-5.2a.23.23,0,0,1-.3,0,.22.22,0,0,1,0-.31c.48-.49,1-1,1.4-1.49l.37-.42a.22.22,0,1,1,.33.29l-.37.42c-.45.5-.93,1-1.42,1.51ZM404.34,153h0c-.64.46-1.34,1-2.15,1.51a.21.21,0,0,1-.3-.05.22.22,0,0,1,.06-.31c.8-.55,1.49-1,2.13-1.5a.22.22,0,0,1,.31.05A.22.22,0,0,1,404.34,153Zm13.5-12.29a.2.2,0,0,1-.27,0,.21.21,0,0,1-.05-.3c.52-.69,1-1.4,1.5-2.13a.22.22,0,0,1,.31-.06.22.22,0,0,1,.06.3c-.48.73-1,1.46-1.52,2.15Zm-39.3,34.22a.21.21,0,0,1-.28,0,.22.22,0,0,1,0-.3c.54-.69,1.1-1.37,1.66-2a.23.23,0,0,1,.31,0,.22.22,0,0,1,0,.31c-.56.67-1.11,1.35-1.64,2ZM400.05,156h0l-.27.19-1.88,1.3a.21.21,0,0,1-.3-.05.22.22,0,0,1,.05-.31l1.88-1.3.27-.19a.23.23,0,0,1,.31.06A.23.23,0,0,1,400.05,156Zm-4.3,3h0c-.78.55-1.47,1.05-2.12,1.53a.22.22,0,0,1-.31-.05.21.21,0,0,1,.05-.3c.65-.48,1.35-1,2.12-1.53a.22.22,0,0,1,.31,0A.22.22,0,0,1,395.75,159Zm-13.83,11.94a.21.21,0,0,1-.29,0,.22.22,0,0,1,0-.31c.59-.64,1.19-1.29,1.8-1.91a.22.22,0,1,1,.31.31c-.6.62-1.2,1.25-1.79,1.9Zm9.62-8.84h0c-.64.49-1.26,1-1.83,1.44l-.22.18a.2.2,0,0,1-.3,0,.21.21,0,0,1,0-.3h0l.21-.18,1.84-1.46a.23.23,0,0,1,.31,0A.23.23,0,0,1,391.54,162.09Zm29.17-25.75a.23.23,0,0,1-.25,0,.23.23,0,0,1-.08-.3c.42-.75.83-1.53,1.21-2.31a.22.22,0,1,1,.39.19c-.38.79-.79,1.58-1.22,2.33C420.75,136.31,420.73,136.32,420.71,136.34Zm-35.14,30.85a.22.22,0,0,1-.29-.32c.63-.61,1.28-1.2,1.93-1.78h0a.22.22,0,1,1,.29.33c-.65.57-1.29,1.16-1.92,1.76ZM423,131.63a.24.24,0,0,1-.23,0,.23.23,0,0,1-.12-.29c.33-.8.63-1.62.9-2.44a.22.22,0,0,1,.28-.14.23.23,0,0,1,.14.28c-.28.82-.58,1.66-.91,2.47Zm1.65-5a.21.21,0,0,1-.2,0,.22.22,0,0,1-.16-.27c.22-.84.41-1.69.57-2.54a.22.22,0,0,1,.26-.17.21.21,0,0,1,.17.25c-.16.86-.36,1.72-.58,2.57A.2.2,0,0,1,424.64,126.66Zm1-5.14a.2.2,0,0,1-.17,0,.22.22,0,0,1-.19-.24c.1-.86.18-1.74.22-2.59a.22.22,0,0,1,.23-.21.21.21,0,0,1,.2.23c0,.87-.11,1.75-.22,2.62A.17.17,0,0,1,425.61,121.52Zm.25-5.23a.2.2,0,0,1-.14.06.21.21,0,0,1-.22-.21c0-.87-.08-1.75-.17-2.6a.21.21,0,0,1,.19-.24.22.22,0,0,1,.24.2c.09.86.15,1.74.17,2.62A.24.24,0,0,1,425.86,116.29Zm-.55-5.2a.16.16,0,0,1-.11,0A.21.21,0,0,1,425,111c-.16-.86-.36-1.71-.59-2.53a.22.22,0,0,1,.42-.12c.23.84.43,1.7.6,2.57A.24.24,0,0,1,425.31,111.09Zm-1.41-5-.07,0a.22.22,0,0,1-.28-.13c-.3-.81-.65-1.61-1-2.38a.21.21,0,0,1,.1-.29.22.22,0,0,1,.29.1c.38.78.73,1.6,1,2.42A.22.22,0,0,1,423.9,106.06Z"/><path class="cls-6" d="M273.73,345.29s-48.81,24-87.86,18.41c0,0-2.05-13.94,6.18-18.24S273.73,345.29,273.73,345.29Z"/><path class="cls-5" d="M500.4,477.62a2.61,2.61,0,0,0-2.24-2.07,50.3,50.3,0,0,1-7.2-1.71c-9-2.6-23.63-10.83-24.82-11l-15.46,16s10.58,2.37,17.19,3.46,15.67.42,19.52-.86,5.64,2.78,10.42.86A3.79,3.79,0,0,0,500.4,477.62Z"/><path class="cls-6" d="M475.39,483.38a47.62,47.62,0,0,1-7.61-.56c-6.56-1.08-17.12-3.45-17.23-3.47a.6.6,0,0,1-.44-.42.59.59,0,0,1,.14-.59l15.45-16a.6.6,0,0,1,.54-.17,34.94,34.94,0,0,1,4.56,2.15c5.29,2.66,14.16,7.13,20.33,8.91a52.73,52.73,0,0,0,7.1,1.7,3.19,3.19,0,0,1,2.76,2.55,4.37,4.37,0,0,1-3,5.27,7.54,7.54,0,0,1-6.36-.33c-1.36-.56-2.53-1-4.09-.52A44.05,44.05,0,0,1,475.39,483.38Zm-23.52-5c2.84.63,10.8,2.35,16.1,3.23,6.4,1.05,15.42.42,19.22-.84a6.55,6.55,0,0,1,4.94.54c1.6.65,3.11,1.27,5.45.33a3.16,3.16,0,0,0,2.22-3.92,2,2,0,0,0-1.71-1.59,51.56,51.56,0,0,1-7.29-1.73c-6.29-1.81-15.21-6.31-20.55-9-1.67-.84-3.27-1.65-3.95-1.93Z"/><path class="cls-6" d="M473.61,454.33c0-.24-.07-.48-.11-.73a27.5,27.5,0,0,0-23.74-23.11L298.52,411l-3.93-28.95c-31.09,10.39-67.28,14.41-84.42,15.82,6.26,28.34,14.64,60,23.35,74.48,10.2,17,156.61,14.73,213.47,13.2A27.57,27.57,0,0,0,473.61,454.33Z"/><path class="cls-8" d="M287.64,331l-88.09,12.19s4.19,25.61,10.62,54.71c17.14-1.41,53.33-5.43,84.42-15.82Z"/><path class="cls-6" d="M210.17,398.47a.6.6,0,0,1-.59-.47C203.22,369.22,199,343.51,199,343.25a.65.65,0,0,1,.11-.45.62.62,0,0,1,.41-.24l88.09-12.18a.58.58,0,0,1,.44.11.6.6,0,0,1,.24.4L295.18,382a.61.61,0,0,1-.4.66C264,392.9,228.6,397,210.22,398.47Zm-9.92-54.8c.67,4,4.65,27.47,10.39,53.56,18.38-1.53,53.06-5.57,83.28-15.59l-6.8-50Z"/><path class="cls-6" d="M235.27,440.68l99.52-129.5a29.7,29.7,0,0,1,51,6.73l45.74,110.32-48.63-6.36-19.71-35.25-44.76,76.56Z"/><path class="cls-8" d="M318.42,463.78a.54.54,0,0,1-.3-.08.6.6,0,0,1-.22-.82l26.45-45.24a.6.6,0,1,1,1,.6l-26.45,45.24A.58.58,0,0,1,318.42,463.78Z"/><path class="cls-6" d="M382.89,422.47a.59.59,0,0,1-.53-.31l-19.19-34.33-17.78,30.41a.61.61,0,0,1-.83.22.59.59,0,0,1-.21-.82l18.31-31.33a.61.61,0,0,1,.52-.3h0a.61.61,0,0,1,.53.31l19.7,35.25a.62.62,0,0,1-.23.83A.59.59,0,0,1,382.89,422.47Z"/><path class="cls-8" d="M431.52,428.83h-.07l-48.64-6.35a.61.61,0,0,1-.52-.68.6.6,0,0,1,.67-.52l48.64,6.36a.59.59,0,0,1,.52.67A.6.6,0,0,1,431.52,428.83Z"/><path class="cls-6" d="M431.52,428.83a.59.59,0,0,1-.55-.37L385.23,318.14a29.11,29.11,0,0,0-50-6.59l-58.93,76.69a.6.6,0,0,1-1-.73l58.94-76.69a30.3,30.3,0,0,1,52,6.86L432.08,428a.6.6,0,0,1-.33.79A.59.59,0,0,1,431.52,428.83Z"/><path class="cls-8" d="M257.59,412.23a.58.58,0,0,1-.36-.12.61.61,0,0,1-.12-.85l18.26-23.75a.6.6,0,0,1,.85-.11.6.6,0,0,1,.11.84L258.07,412A.62.62,0,0,1,257.59,412.23Z"/><path class="cls-5" d="M315.53,472.78s-7,5-12.4,2.62-12.91-10.36-18-10.68-13.95,10.8-20.72,10.68-13.05-5-17.06-1.26-8.13,10.55-10.24,15.63-4.18,13.12,0,16,14.42-7.41,20.5-9,36.93,1.14,45.56.13a111.67,111.67,0,0,0,18.46-4.24Z"/><path class="cls-6" d="M238.83,506.83a3.61,3.61,0,0,1-2.1-.6c-5.18-3.52-1.48-13.66-.22-16.69,2-4.85,6.13-11.88,10.39-15.84,2.73-2.53,6.36-1.47,10.2-.35a27.58,27.58,0,0,0,7.28,1.44c3.38,0,7.36-2.89,11.22-5.75,3.55-2.62,6.89-5.08,9.53-4.93,3.2.2,7.14,3.14,10.95,6a41.56,41.56,0,0,0,7.29,4.76c5.05,2.2,11.75-2.5,11.81-2.55a.63.63,0,0,1,.55-.08.61.61,0,0,1,.38.4l6.06,19.83a.59.59,0,0,1-.39.74,112.78,112.78,0,0,1-18.58,4.27c-4,.47-12.56.15-21.59-.2-10.17-.38-20.7-.78-23.89.06-2.3.6-5.36,2.59-8.32,4.51C245.44,504.38,241.66,506.83,238.83,506.83Zm12.3-33.48a4.73,4.73,0,0,0-3.41,1.24c-4.13,3.83-8.13,10.68-10.1,15.41-2.4,5.8-3.73,12.84-.21,15.23,2.2,1.5,6.84-1.52,11.33-4.43,3.18-2.06,6.18-4,8.67-4.66,3.37-.89,13.51-.5,24.25-.09,8.59.32,17.47.66,21.4.2a109.42,109.42,0,0,0,17.78-4l-5.65-18.49c-1.94,1.22-7.58,4.27-12.3,2.22a42.14,42.14,0,0,1-7.53-4.9c-3.67-2.73-7.46-5.56-10.3-5.73-2.2-.15-5.38,2.21-8.74,4.69-4,3-8.19,6.06-12,6a29.2,29.2,0,0,1-7.6-1.49A21.73,21.73,0,0,0,251.13,473.35Z"/><path class="cls-6" d="M311,470.8l1.62,25.92,135.84-11.25,6.25-37.29s-47.12-6.05-61.88-2.93C373.43,449.35,311,470.8,311,470.8Z"/><path class="cls-6" d="M312.65,497.33a.66.66,0,0,1-.4-.15.62.62,0,0,1-.2-.42l-1.62-25.92a.61.61,0,0,1,1.21-.08l1.57,25.31,135.23-11.21a.59.59,0,0,1,.65.56.6.6,0,0,1-.55.65L312.7,497.32Z"/><path class="cls-8" d="M311,471.4a.61.61,0,0,1-.57-.41.6.6,0,0,1,.38-.76c.62-.22,62.65-21.51,81.89-25.57,5.38-1.14,15.51-1.21,30.12-.21a.6.6,0,1,1-.09,1.2c-14.49-1-24.51-.92-29.78.19-19.17,4.05-81.13,25.31-81.75,25.53A.69.69,0,0,1,311,471.4Z"/><path class="cls-8" d="M363.18,387.22a.58.58,0,0,1-.28-.07.61.61,0,0,1-.26-.81l12.18-23.55a.6.6,0,0,1,1.07.55l-12.17,23.55A.61.61,0,0,1,363.18,387.22Z"/><path class="cls-8" d="M437.11,200.34l-6.71,4.42,16.42-17.7-.9-.77a5.4,5.4,0,0,0-5.91-.74l-1.16-1.28a4.81,4.81,0,0,0-7-.16l-9.16,9.2C417,176.7,404.16,180,404.16,180v.31a7.4,7.4,0,0,0,4.76,7.22,15.68,15.68,0,0,1,6.15,4.75c5.91,7,.52,9.17-4.69,10.06-3.4.58-5.86-.65-6.55-5.87s4.1-8.9-1.73-7.66c-2.92.61-4.18,4.58-4.71,8.4a28.68,28.68,0,0,1-4.72,12.4c-2.88,4.14-6.2,11-6.73,21-.94,18.14-17,58-30.58,56.12-8-1.13-24.25-18.44-36.35-32.57a68.2,68.2,0,0,0-45.16-23.62,244.54,244.54,0,0,0-54.43,1.1A62.3,62.3,0,0,0,171.09,267c-3.24,6.89-6.81,14.54-10.39,22.35-9.78,21.34-54.92,126.38-71.31,164.56a30.76,30.76,0,0,1-20.63,17.68l-34.35,8.84a8.28,8.28,0,0,0,8.24,5.07c13-1,43.36-3.12,49.07-3,7.32.11,22.13,1.49,31.08,2.13,5.33.38,7.15-1.7,7.75-3.45A1.66,1.66,0,0,0,129,478.9h-3.86l-11-6.65a9,9,0,0,1-3.23-12.06L201,297.38l92-13s15.21,50.12,65.08,49.53,49.46-109.21,49.46-109.21c19.28-3.07,37.6-23.59,37.6-23.59L445,201A6.44,6.44,0,0,0,437.11,200.34Z"/><path class="cls-6" d="M42,486.08a8.88,8.88,0,0,1-8.19-5.45.58.58,0,0,1,0-.5.57.57,0,0,1,.39-.32L68.61,471a30.43,30.43,0,0,0,20.23-17.34c18.23-42.47,61.68-143.54,71.31-164.57,3.2-7,6.7-14.51,10.39-22.36a62.61,62.61,0,0,1,48.79-35.64A244.54,244.54,0,0,1,273.9,230a68.49,68.49,0,0,1,45.55,23.84c17.39,20.3,29.83,31.49,36,32.36,2.24.32,4.69-.6,7.28-2.74,11.46-9.44,21.89-38.71,22.62-52.81.54-10.27,4-17.26,6.83-21.32a27.79,27.79,0,0,0,4.62-12.14c.75-5.34,2.49-8.33,5.19-8.9,1.88-.4,2.82-.34,3.33.23s.27,1.66-.14,2.91a11.32,11.32,0,0,0-.74,5c.31,2.39,1,4,2.11,4.78a4.74,4.74,0,0,0,3.74.57c3.88-.65,6-1.74,6.61-3.3s-.25-3.36-2.28-5.78a15.38,15.38,0,0,0-5.91-4.57,8,8,0,0,1-5.14-7.81V180a.6.6,0,0,1,.45-.55c.13,0,12.94-3.15,19,12.78l8.49-8.53a5.41,5.41,0,0,1,7.84.18l.87.95a6,6,0,0,1,6.15,1l.89.77a.6.6,0,0,1,.05.87l-13,14.05,2.56-1.68a7,7,0,0,1,8.62.69l.14.13a.6.6,0,0,1,0,.85c-.19.2-18.37,20.35-37.46,23.69,0,3.88-.42,29.06-6,54-3.57,15.88-8.54,28.57-14.75,37.72-7.83,11.53-17.68,17.44-29.26,17.58h-.87c-25.51,0-41.72-13.43-50.85-24.78A85.64,85.64,0,0,1,292.57,285l-91.2,12.9-90,162.54a8.37,8.37,0,0,0,3,11.25l10.9,6.57H129a2.23,2.23,0,0,1,1.84.94,2.28,2.28,0,0,1,.3,2.07c-.68,2-2.69,4.26-8.37,3.85-2.57-.18-5.63-.43-8.86-.69-8-.64-17-1.36-22.18-1.44-5.67-.09-36.18,2.09-49,3Zm-6.78-5.28a7.67,7.67,0,0,0,7.34,4.05c12.86-.94,43.37-3.11,49.13-3,5.24.07,14.28.8,22.26,1.44,3.22.26,6.28.5,8.85.69,3.89.27,6.36-.77,7.14-3a1.1,1.1,0,0,0-.14-1,1,1,0,0,0-.86-.44h-3.86a.68.68,0,0,1-.31-.08l-11-6.65a9.56,9.56,0,0,1-3.45-12.87l90.14-162.81a.63.63,0,0,1,.45-.31l92-13a.6.6,0,0,1,.66.42A83.13,83.13,0,0,0,307.32,309c9.07,11.24,25.22,24.6,50.75,24.28,11.16-.13,20.68-5.87,28.27-17.05,6.13-9,11-21.57,14.57-37.3,6-26.86,6-54,6-54.25a.61.61,0,0,1,.51-.6c17.27-2.74,34-19.93,36.84-22.94a5.81,5.81,0,0,0-6.83-.3l-6.71,4.42a.59.59,0,0,1-.79-.12.61.61,0,0,1,0-.8l16-17.24-.42-.36a4.79,4.79,0,0,0-5.25-.66.59.59,0,0,1-.71-.13l-1.16-1.28a4.2,4.2,0,0,0-6.09-.14l-9.16,9.2a.6.6,0,0,1-.57.16.58.58,0,0,1-.43-.39c-5-14.37-15.16-13.4-17.41-13a6.84,6.84,0,0,0,4.38,6.47,16.47,16.47,0,0,1,6.4,4.92c2.36,2.81,3.17,5.09,2.49,7-1,2.68-4.78,3.61-7.55,4.08a5.84,5.84,0,0,1-4.66-.79c-1.38-1-2.23-2.86-2.59-5.59A12.32,12.32,0,0,1,404,191a4.62,4.62,0,0,0,.38-1.73s-.28-.27-2.18.14c-2.67.56-3.79,4.6-4.25,7.89A29,29,0,0,1,393.15,210c-2.73,3.93-6.09,10.71-6.61,20.69-.75,14.31-11.38,44.06-23.06,53.68-2.86,2.36-5.63,3.37-8.21,3-8.15-1.15-24.47-18.46-36.73-32.77a67.28,67.28,0,0,0-44.75-23.42,242.7,242.7,0,0,0-54.3,1.1,61.41,61.41,0,0,0-47.85,34.95c-3.7,7.85-7.2,15.37-10.39,22.35-9.63,21-53.07,122.08-71.3,164.55a31.62,31.62,0,0,1-21,18ZM437.11,200.35h0Z"/><path class="cls-6" d="M161.22,273.91l29.1,28.56,112.81,3.47,30.27-48.05s-36.77-27.2-50.36-27.2S194.83,210.18,161.22,273.91Z"/><path class="cls-7" d="M197.64,235.6l4.49-2.34a1.33,1.33,0,0,1,1.94,1.05c.94,9.78,7.06,52.5,42.46,51.79s32.87-45.05,31.82-55.4a1.49,1.49,0,0,1,1.86-1.59l4.93,1.27a1.51,1.51,0,0,1,1.11,1.23c.95,6.36,6.65,42,16.32,53.61a4.32,4.32,0,0,1,1,2.19l6.8,51.33s-6.31,9.64-46.16,10.75-73.87-2.08-77.9,13.57l-1-66.82a4.91,4.91,0,0,1,1.73-3.79c3.61-3.11,11.34-14.49,9.2-54.3A2.69,2.69,0,0,1,197.64,235.6Z"/><path class="cls-6" d="M186.28,363.67h-.07a.61.61,0,0,1-.54-.59l-1-66.82a5.49,5.49,0,0,1,1.93-4.25c3.42-2.95,11.13-14.08,9-53.82a3.32,3.32,0,0,1,1.78-3.12h0l4.49-2.33a1.93,1.93,0,0,1,2.82,1.52c.48,5,2.25,17.95,8.24,29.61,7.54,14.66,18.85,21.93,33.61,21.63,9-.18,16.17-3.27,21.4-9.18,12-13.59,10.56-38.3,9.83-45.55a2.1,2.1,0,0,1,2.62-2.24l4.92,1.28a2.09,2.09,0,0,1,1.55,1.72c1,6.9,6.68,41.89,16.19,53.31a5,5,0,0,1,1.11,2.5l6.8,51.33a.65.65,0,0,1-.09.41c-.27.4-6.94,9.92-46.66,11-7.24.2-14.24.26-21,.31-29.69.25-53.14.45-56.33,12.81A.61.61,0,0,1,186.28,363.67Zm11.64-127.54a2.11,2.11,0,0,0-1.13,2c2.16,40.27-5.86,51.73-9.41,54.79a4.31,4.31,0,0,0-1.51,3.32l1,63.85c6-10.46,28.45-10.65,56.34-10.88,6.76-.06,13.75-.12,21-.32,36.24-1,44.49-9.07,45.55-10.31l-6.77-51.08a3.75,3.75,0,0,0-.83-1.89c-9.72-11.67-15.42-47-16.46-53.9A.88.88,0,0,0,285,231l-4.93-1.28a.89.89,0,0,0-.81.19.88.88,0,0,0-.3.76c.75,7.37,2.23,32.52-10.13,46.47-5.46,6.17-13,9.4-22.28,9.59-15.26.3-26.94-7.19-34.7-22.28-6.09-11.85-7.88-25-8.37-30.05a.72.72,0,0,0-1.06-.57Z"/><path class="cls-6" d="M350.75,171.75a25.42,25.42,0,1,0,48.7,0Z"/><rect class="cls-6" x="362.88" y="203.08" width="24.72" height="3.22" rx="1.61"/><path class="cls-6" d="M401.08,171.21a11.85,11.85,0,0,0-2.94,23.33,5.28,5.28,0,0,1,.16-.66c0-.12,0-.25,0-.37a2.32,2.32,0,0,1,.25-1.16,2.65,2.65,0,0,1,.23-.48,3.41,3.41,0,0,1,.84-1.58,3.61,3.61,0,0,1,.21-.49,6.89,6.89,0,1,1,4.51-.7c1.05,1,.72,2.82-.07,4-.07.48.22.91,0,1.36a11.86,11.86,0,0,0-3.18-23.28Z"/><path class="cls-6" d="M232.77,147.94c-5.4-7.94-7-12-6.12-16.3,1.43-6.85,9.08-13.38,16.53-14.12,4.26-.43,6.37,1.25,10.13-.48,4.08-1.89,3.74-4.88,7.5-6.79,5.6-2.85,12.48.61,13.76,1.25,7.17,3.6,9.6,10.58,10.11,12.16a21.07,21.07,0,0,1,7.57-4.12c10-3,22.77,1.85,27.69,11.43,4.1,8,1.19,16.33-.72,21.79-5.66,16.2-19.89,23.47-22.68,24.83-3,1.48-15.33,7.23-29.83,3.57C253,177.71,246.28,167.79,232.77,147.94Z"/><path class="cls-8" d="M261.81,223.26l-1.22-27.72s10.76-20.06-2.64-35.17-34.47-9.35-37.86-6.87-7.53,8.16-6.36,14.07.11,14.8-1.68,17.05,2.28,3.15,2.28,3.15-.82,8.4,4.49,15.16a4.67,4.67,0,0,0,4.53,1.69l8.54-1.62-1.64,20.91c-1.81,5.16-7.67,7.32-7.67,7.32s4,9.65,24.11,9.2,21.21-10.57,21.21-10.57C266.05,229.51,263,229.07,261.81,223.26Z"/><path class="cls-6" d="M245.34,241.05c-19.09,0-23.15-9.18-23.32-9.58a.66.66,0,0,1,0-.48.58.58,0,0,1,.35-.32s5.56-2.12,7.28-6.89l1.57-20-7.76,1.47a5.24,5.24,0,0,1-5.12-1.91,23.62,23.62,0,0,1-4.64-15.07c-.79-.25-2.21-.83-2.61-1.93a2.09,2.09,0,0,1,.49-2.05c1.62-2.05,2.71-10.77,1.56-16.56-1.26-6.32,3.25-12.24,6.59-14.68s24.89-8.59,38.68,7c12.9,14.55,3.75,33.8,2.79,35.71l1.21,27.5c1.09,5.24,3.62,5.71,5.47,6.06l.13,0a.61.61,0,0,1,.49.66c-.05.43-1.42,10.66-21.8,11.11Zm-21.91-9.52c1.22,2,6.61,8.69,23.25,8.3s19.9-7.46,20.5-9.5c-2-.4-4.81-1.36-6-7a.3.3,0,0,1,0-.1L260,195.57a.55.55,0,0,1,.07-.31c.1-.2,10.4-19.88-2.56-34.49-13.25-15-33.86-9.12-37.06-6.79s-7.26,7.71-6.12,13.47.22,15-1.8,17.55c-.42.53-.32.81-.29.9.23.65,1.61,1.15,2.23,1.29a.59.59,0,0,1,.47.64c0,.08-.72,8.25,4.36,14.73a4.05,4.05,0,0,0,4,1.46l8.53-1.61a.61.61,0,0,1,.52.14.63.63,0,0,1,.2.5L230.85,224l0,.16C229.28,228.49,225.05,230.79,223.43,231.53Z"/><path class="cls-6" d="M247.24,179.2l2.54,2.28s1.51-5,5.65-5.61,7.88,8,2.52,13.69,2.64,6,2.64,6,17.89-8.13,11.82-33.85-26.25-29.19-49.29-14.51c0,0-3.6,2.29-9.39,0s-14.9-.81-15.79,6.32,7.09,12.12,16.76,9.26,12.64-5.45,17.59-3.7c0,0-3,3.91,4.76,6S250.45,170.27,247.24,179.2Z"/><path class="cls-8" d="M273.66,171.94h0a.61.61,0,0,1-.58-.63c1.2-27-17.84-31.1-18-31.14a.61.61,0,0,1,.24-1.19c.2,0,20.24,4.32,19,32.38A.62.62,0,0,1,273.66,171.94Z"/><path class="cls-6" d="M155.88,519.91h71.68L204.4,438.18c-.72-2.56-3.05-4.1-6.16-4.1H140.07c-3.7,0-7.39,3.95-6.53,7Z"/><path class="cls-8" d="M161.56,462.73a9.59,9.59,0,0,0,8.81,6.49c3.85,0,6.15-2.9,5.13-6.49a9.59,9.59,0,0,0-8.81-6.48C162.84,456.25,160.55,459.15,161.56,462.73Z"/><path class="cls-6" d="M162.48,519.32H282.92a6.86,6.86,0,0,1,6.86,6.86v.55a0,0,0,0,1,0,0H155.62a0,0,0,0,1,0,0v-.55a6.86,6.86,0,0,1,6.86-6.86Z" transform="translate(445.4 1046.05) rotate(180)"/><path class="cls-8" d="M221.17,520.58H159.61a.6.6,0,1,1,0-1.2h61.56a.6.6,0,1,1,0,1.2Z"/><path class="cls-6" d="M322.45,505.16a.6.6,0,0,1-.44-1l2.22-2.31a.6.6,0,0,1,.85,0,.59.59,0,0,1,0,.85L322.88,505A.6.6,0,0,1,322.45,505.16Z"/><path class="cls-6" d="M314.68,513.28a.63.63,0,0,1-.42-.17.61.61,0,0,1,0-.86l2.22-2.31a.6.6,0,0,1,.85,0,.59.59,0,0,1,0,.85l-2.22,2.32A.61.61,0,0,1,314.68,513.28Z"/><path class="cls-6" d="M316.86,505.29a.63.63,0,0,1-.43-.17l-2.25-2.22a.61.61,0,0,1,0-.86.6.6,0,0,1,.85,0l2.26,2.22a.6.6,0,0,1,0,.85A.61.61,0,0,1,316.86,505.29Z"/><path class="cls-6" d="M324.74,513.05a.63.63,0,0,1-.42-.17l-2.25-2.22a.59.59,0,0,1,0-.85.6.6,0,0,1,.85,0l2.26,2.22a.61.61,0,0,1-.43,1Z"/><path class="cls-6" d="M477.9,308.16a.63.63,0,0,1-.42-.17.59.59,0,0,1,0-.85l2.22-2.32a.6.6,0,0,1,.85,0,.61.61,0,0,1,0,.86L478.34,308A.59.59,0,0,1,477.9,308.16Z"/><path class="cls-6" d="M470.13,316.27a.58.58,0,0,1-.42-.17.59.59,0,0,1,0-.85l2.22-2.32a.6.6,0,0,1,.85,0,.61.61,0,0,1,0,.86l-2.22,2.31A.59.59,0,0,1,470.13,316.27Z"/><path class="cls-6" d="M472.31,308.28a.57.57,0,0,1-.42-.17l-2.26-2.22a.6.6,0,0,1,.85-.86l2.25,2.22a.6.6,0,0,1-.42,1Z"/><path class="cls-6" d="M480.2,316.05a.6.6,0,0,1-.43-.18l-2.25-2.21a.61.61,0,0,1,0-.86.6.6,0,0,1,.86,0l2.25,2.21a.61.61,0,0,1-.42,1Z"/><path class="cls-6" d="M117.38,376.61a.59.59,0,0,1-.6-.59l-.07-3.21a.61.61,0,0,1,.59-.62h0a.6.6,0,0,1,.6.59L118,376a.6.6,0,0,1-.59.62Z"/><path class="cls-6" d="M117.62,387.84a.59.59,0,0,1-.6-.59L117,384a.61.61,0,0,1,.59-.62.62.62,0,0,1,.62.59l.06,3.21a.6.6,0,0,1-.59.62Z"/><path class="cls-6" d="M110.35,380.68a.61.61,0,0,1,0-1.21l3.16,0a.61.61,0,0,1,.61.6.6.6,0,0,1-.6.61l-3.16,0Z"/><path class="cls-6" d="M121.42,380.59a.6.6,0,0,1-.6-.6.6.6,0,0,1,.59-.61l3.17,0h0a.6.6,0,0,1,.6.6.59.59,0,0,1-.6.6l-3.16,0Z"/><path class="cls-6" d="M470,288.39a4.62,4.62,0,0,1-1.63-.31,4.56,4.56,0,0,1-2.55-2.48,4.68,4.68,0,0,1,2.34-6.12,4.45,4.45,0,0,1,3.47-.09,4.6,4.6,0,0,1,2.56,2.47,4.7,4.7,0,0,1-2.34,6.13A4.6,4.6,0,0,1,470,288.39Zm0-8.1a3.19,3.19,0,0,0-1.35.29,3.48,3.48,0,0,0-1.73,4.54,3.39,3.39,0,0,0,1.89,1.83,3.29,3.29,0,0,0,2.54-.06,3.49,3.49,0,0,0,1.73-4.55,3.39,3.39,0,0,0-1.89-1.83A3.26,3.26,0,0,0,470,280.29Zm-1.6-.26h0Z"/><path class="cls-6" d="M177.67,69.2a6.7,6.7,0,0,1-2.45-.46A6.89,6.89,0,0,1,171.37,65a7.06,7.06,0,0,1,3.52-9.22,6.73,6.73,0,0,1,5.23-.14A6.9,6.9,0,0,1,184,59.38a7.08,7.08,0,0,1-3.52,9.23A6.9,6.9,0,0,1,177.67,69.2Zm0-12.8a5.5,5.5,0,0,0-2.27.5,5.84,5.84,0,0,0-2.91,7.64,5.7,5.7,0,0,0,3.17,3.08,5.55,5.55,0,0,0,4.29-.11,5.86,5.86,0,0,0,2.91-7.65,5.65,5.65,0,0,0-3.17-3.07A5.45,5.45,0,0,0,177.66,56.4Z"/><path class="cls-6" d="M338.82,59.54a4.75,4.75,0,0,1-4.34-2.88,4.86,4.86,0,0,1,2.43-6.34,4.57,4.57,0,0,1,3.59-.09,4.75,4.75,0,0,1,2.65,2.56,4.86,4.86,0,0,1-2.42,6.34A4.76,4.76,0,0,1,338.82,59.54Zm0-8.43a3.48,3.48,0,0,0-1.41.31,3.64,3.64,0,0,0-1.81,4.76,3.57,3.57,0,0,0,2,1.92,3.48,3.48,0,0,0,2.67-.07A3.65,3.65,0,0,0,342,53.27a3.6,3.6,0,0,0-2-1.92A3.44,3.44,0,0,0,338.81,51.11Z"/><path class="cls-6" d="M368.31,51.16a.54.54,0,0,1-.41-.17.59.59,0,0,1,0-.85l2.22-2.32a.6.6,0,0,1,.85,0,.61.61,0,0,1,0,.86L368.75,51A.59.59,0,0,1,368.31,51.16Z"/><path class="cls-6" d="M360.54,59.27a.54.54,0,0,1-.41-.17.6.6,0,0,1,0-.85l2.22-2.32a.6.6,0,0,1,.85,0,.61.61,0,0,1,0,.86L361,59.09A.62.62,0,0,1,360.54,59.27Z"/><path class="cls-6" d="M362.72,51.28a.58.58,0,0,1-.42-.17L360,48.89a.6.6,0,0,1,.85-.86l2.25,2.22a.6.6,0,0,1-.42,1Z"/><path class="cls-6" d="M370.61,59.05a.58.58,0,0,1-.42-.18l-2.26-2.21a.6.6,0,1,1,.85-.86L371,58a.61.61,0,0,1-.42,1Z"/><path class="cls-6" d="M214.8,52.4a.62.62,0,0,1-.61-.59l-.06-3.21a.6.6,0,1,1,1.2,0l.07,3.21a.61.61,0,0,1-.59.62Z"/><path class="cls-6" d="M215,63.62a.59.59,0,0,1-.6-.59l-.07-3.2a.6.6,0,0,1,.59-.62.59.59,0,0,1,.61.59l.07,3.21a.6.6,0,0,1-.59.61Z"/><path class="cls-6" d="M207.77,56.46a.6.6,0,0,1-.6-.6.59.59,0,0,1,.6-.6l3.16,0h0a.61.61,0,0,1,0,1.21l-3.17,0Z"/><path class="cls-6" d="M218.84,56.37a.6.6,0,1,1,0-1.2l3.16,0h0a.61.61,0,0,1,0,1.21l-3.16,0Z"/></g><g class="cls-9"><path class="cls-6" d="M224.86-20.5c6.31,13,22.28,44.59,37.67,59.72A6.86,6.86,0,0,0,274,36.1c4.81-18.22,8-56.19-9.92-86.12,0,0-8.54-1-24.49,2l3.55,15-2-1.4a7.88,7.88,0,0,0-9.71.43l-4.6,3.94A8,8,0,0,0,224.86-20.5Z"/><path class="cls-8" d="M265.05,35a1.31,1.31,0,0,1-.43-.08,1.22,1.22,0,0,1-.71-1.57c13.63-36-4.77-78.46-5-78.88a1.23,1.23,0,0,1,.62-1.61,1.22,1.22,0,0,1,1.61.62c.19.43,19,43.78,5,80.73A1.22,1.22,0,0,1,265.05,35Z"/><path class="cls-8" d="M240.12,9.5a1.22,1.22,0,0,1-.74-2.18l11-8.43a1.22,1.22,0,0,1,1.71.23,1.22,1.22,0,0,1-.23,1.71l-11,8.42A1.25,1.25,0,0,1,240.12,9.5Z"/><path class="cls-6" d="M134.43-16.1s-5-12-18-6c0,0-23.79,34.39-32.64,62.78A9.81,9.81,0,0,0,97.25,52.5c17.93-8.1,46-25.1,62.11-56.63,0,0-5-13-13-18.95Z"/><path class="cls-8" d="M91.16,45.06a13.22,13.22,0,0,1-1.78-.1,1.24,1.24,0,0,1-1-1.39,1.22,1.22,0,0,1,1.38-1c.28,0,26.77,3.1,62.66-46.4a1.23,1.23,0,0,1,1.7-.27,1.21,1.21,0,0,1,.27,1.7C122.36,41.72,97.84,45.06,91.16,45.06Z"/><path class="cls-8" d="M111.49,18a1.25,1.25,0,0,1-.61-.17l-12-7a1.22,1.22,0,0,1,1.22-2.11l12,7a1.21,1.21,0,0,1,.44,1.66A1.23,1.23,0,0,1,111.49,18Z"/><path class="cls-8" d="M117.48,9.06a1.19,1.19,0,0,1-.58-.15l-13-7a1.21,1.21,0,1,1,1.15-2.14l13,7a1.22,1.22,0,0,1-.58,2.29Z"/></g></svg>