<svg id="Capa_1" data-name="Capa 1" xmlns="http://www.w3.org/2000/svg" viewBox="0 0 409.71 355.6"><defs><style>.cls-1{fill:#393b50;}.cls-2{fill:#f5d3cf;}.cls-3{fill:#eaa79f;}.cls-4{fill:#fff;}</style></defs><path class="cls-1" d="M54.44,113.52l-.13,0a.45.45,0,0,1-.3-.57l1.09-3.47a.45.45,0,0,1,.57-.29.46.46,0,0,1,.3.57l-1.09,3.46A.46.46,0,0,1,54.44,113.52Z"/><path class="cls-1" d="M52,121.32l-.13,0a.45.45,0,0,1-.3-.57l1.09-3.47a.46.46,0,0,1,.57-.3.45.45,0,0,1,.29.57L52.42,121A.46.46,0,0,1,52,121.32Z"/><path class="cls-1" d="M51.45,114.72l-.14,0-3.46-1.09a.46.46,0,1,1,.27-.87l3.46,1.09a.45.45,0,0,1,.3.57A.45.45,0,0,1,51.45,114.72Z"/><path class="cls-1" d="M59.24,117.17l-.13,0-3.47-1.09a.44.44,0,0,1-.29-.57.45.45,0,0,1,.57-.3l3.46,1.09a.46.46,0,0,1,.3.57A.45.45,0,0,1,59.24,117.17Z"/><path class="cls-1" d="M26.52,133.32a.45.45,0,0,1-.45-.46v-3.63a.45.45,0,0,1,.45-.45.46.46,0,0,1,.46.45v3.63A.46.46,0,0,1,26.52,133.32Z"/><path class="cls-1" d="M26.52,141.49a.45.45,0,0,1-.45-.45v-3.63a.45.45,0,0,1,.45-.46.46.46,0,0,1,.46.46V141A.46.46,0,0,1,26.52,141.49Z"/><path class="cls-1" d="M24.48,135.36H20.85a.46.46,0,0,1-.46-.45.47.47,0,0,1,.46-.46h3.63a.46.46,0,0,1,.45.46A.45.45,0,0,1,24.48,135.36Z"/><path class="cls-1" d="M32.65,135.36H29a.45.45,0,0,1-.45-.45.46.46,0,0,1,.45-.46h3.63a.47.47,0,0,1,.46.46A.46.46,0,0,1,32.65,135.36Z"/><path class="cls-1" d="M28.7,106.2a3.76,3.76,0,1,1,3.76-3.76A3.76,3.76,0,0,1,28.7,106.2Zm0-6.61a2.86,2.86,0,1,0,2.85,2.85A2.86,2.86,0,0,0,28.7,99.59Z"/><ellipse class="cls-1" cx="206.32" cy="324.62" rx="162.72" ry="17.9"/><path class="cls-2" d="M58.13,309.33c2.3.67,14.66-22.22,18.49-51.43,1.18-9,8.53-65.15-22.58-86.14-14.34-9.68-34.72-10.45-38.1-4.35C12.88,173,25.69,181,40.23,204.49c5.9,9.54,18.27,30,21.54,55.48C65.4,288.32,56,308.71,58.13,309.33Z"/><path class="cls-1" d="M58.54,309.7a.85.85,0,0,1-.52,0c-1.06-.31-.63-2.23.43-6.87,1.87-8.29,5.37-23.71,2.92-42.83-3.33-25.95-16-46.53-21.48-55.32a194.85,194.85,0,0,0-17.15-23.34c-5.79-7-9-10.83-7.15-14.14.88-1.59,2.83-2.79,5.66-3.47,7.74-1.86,21.94.2,33,7.67C82.53,190.5,79.59,238.29,77,258c-3.48,26.57-14.42,49.14-18.1,51.55A1.92,1.92,0,0,1,58.54,309.7Zm-.28-.76c1.91-.15,14.1-21.63,18-51.09,2.55-19.51,5.49-66.93-22.4-85.76-10.89-7.34-24.81-9.37-32.38-7.55-2.6.63-4.38,1.68-5.14,3.07-1.57,2.83,1.5,6.53,7.07,13.24a197.57,197.57,0,0,1,17.21,23.43c5.46,8.83,18.24,29.51,21.59,55.64,2.47,19.26-1.05,34.77-2.94,43.11C58.6,305.83,58,308.47,58.26,308.94Z"/><path class="cls-2" d="M55,299.07c1.24.07,4.88-12.91,3.49-28.1-.43-4.71-3.09-33.9-21.2-41-8.36-3.26-18.75-1.33-19.76,2.14-.92,3.15,6.47,5.74,16.5,16,4.07,4.15,12.64,13.06,17.19,25.59C56.32,287.62,53.88,299,55,299.07Z"/><path class="cls-1" d="M55.24,299.44a.85.85,0,0,1-.23,0c-.75-.05-.75-1.05-.74-3.72a61.38,61.38,0,0,0-3.39-21.91c-4.62-12.7-13.37-21.63-17.1-25.45a102.09,102.09,0,0,0-11.3-9.83c-3.79-2.92-5.88-4.53-5.3-6.55a4.55,4.55,0,0,1,2.57-2.51c3.74-1.84,11.22-2.42,17.72.12,16.56,6.46,20.53,31,21.47,41.31,1.29,14.12-1.69,26.56-3.34,28.27A.94.94,0,0,1,55.24,299.44ZM21.51,229.66a10.73,10.73,0,0,0-1.4.57,3.77,3.77,0,0,0-2.15,2c-.43,1.48,1.62,3.06,5,5.68a102.12,102.12,0,0,1,11.39,9.9c3.77,3.86,12.6,12.88,17.28,25.74a61.84,61.84,0,0,1,3.43,22.19,24.54,24.54,0,0,0,.08,2.74c1.21-1.71,4.26-13.54,3-27.49-.92-10.12-4.82-34.33-21-40.63A24.79,24.79,0,0,0,21.51,229.66Z"/><path class="cls-3" d="M33.41,288.6c3.37-.77,42.23-2.26,52.7,0L75.45,327.13H45.33Z"/><path class="cls-1" d="M75.45,327.45H45.33a.39.39,0,0,1-.39-.24L33,288.68a.32.32,0,0,1,.28-.39c3.23-.73,42.42-2.26,52.92,0a.33.33,0,0,1,.29.38L75.85,327.2A.4.4,0,0,1,75.45,327.45Zm-29.8-.64H75.13l10.5-38c-10.6-2.07-46.67-.73-51.73,0Z"/><g id="Photography_workshop" data-name="Photography workshop"><rect class="cls-4" x="193.75" y="13.55" width="111.62" height="173.53" rx="5.52"/><path class="cls-1" d="M299.88,187.54H199.24a6,6,0,0,1-6-6V19.1a6,6,0,0,1,6-6H299.88a6,6,0,0,1,5.95,6V181.52A6,6,0,0,1,299.88,187.54ZM199.24,14a5.07,5.07,0,0,0-5,5.09V181.52a5.07,5.07,0,0,0,5,5.1H299.88a5.07,5.07,0,0,0,5-5.1V19.1a5.07,5.07,0,0,0-5-5.09Z"/><rect class="cls-2" x="205.8" y="40.3" width="87.4" height="62.77" rx="8.32"/><path class="cls-1" d="M205.78,95.87v-12l27.29-27.14a4.6,4.6,0,0,1,6.51,0l13,13a4.61,4.61,0,0,0,6.32.18l1.18-1.06a4.61,4.61,0,0,1,6.33.19l26.54,26.77a7.2,7.2,0,0,1-7.2,7.3H213A7.21,7.21,0,0,1,205.78,95.87Z"/><circle class="cls-1" cx="267.47" cy="54.75" r="6.69"/><path class="cls-1" d="M284.88,103.53H214.11a8.78,8.78,0,0,1-8.77-8.78V48.61a8.78,8.78,0,0,1,8.77-8.77h12a.46.46,0,0,1,.46.46.47.47,0,0,1-.46.46h-12a7.86,7.86,0,0,0-7.85,7.85V94.75a7.87,7.87,0,0,0,7.85,7.86h70.77a7.87,7.87,0,0,0,7.86-7.86V48.61a7.87,7.87,0,0,0-7.86-7.85H236.23a.46.46,0,0,1-.46-.46.45.45,0,0,1,.46-.46h48.65a8.79,8.79,0,0,1,8.78,8.77V94.75A8.79,8.79,0,0,1,284.88,103.53Z"/><rect class="cls-4" x="73.87" y="143.6" width="111.62" height="174.72" rx="5.54"/><path class="cls-1" d="M180,318.78H79.35a6,6,0,0,1-5.94-6.06V149.19a6,6,0,0,1,5.94-6.06H180a6,6,0,0,1,5.95,6.06V312.72A6,6,0,0,1,180,318.78ZM79.35,144.07a5.09,5.09,0,0,0-5,5.12V312.72a5.09,5.09,0,0,0,5,5.13H180a5.08,5.08,0,0,0,5-5.13V149.19a5.08,5.08,0,0,0-5-5.12Z"/><rect class="cls-2" x="85.91" y="171.54" width="87.4" height="62.77" rx="8.32"/><path class="cls-1" d="M85.9,227.11v-12L113.18,188a4.59,4.59,0,0,1,6.5,0l13,13a4.6,4.6,0,0,0,6.31.18l1.19-1.06a4.61,4.61,0,0,1,6.33.19L173,227a7.21,7.21,0,0,1-7.2,7.3H93.1A7.2,7.2,0,0,1,85.9,227.11Z"/><circle class="cls-1" cx="147.58" cy="185.98" r="6.69"/><path class="cls-1" d="M165,234.77H94.23A8.79,8.79,0,0,1,85.45,226V179.85a8.78,8.78,0,0,1,8.78-8.77h12a.45.45,0,0,1,.46.46.46.46,0,0,1-.46.46h-12a7.87,7.87,0,0,0-7.86,7.85V226a7.87,7.87,0,0,0,7.86,7.86H165a7.87,7.87,0,0,0,7.85-7.86V179.85A7.86,7.86,0,0,0,165,172H116.34a.47.47,0,0,1-.46-.46.46.46,0,0,1,.46-.46H165a8.78,8.78,0,0,1,8.77,8.77V226A8.79,8.79,0,0,1,165,234.77Z"/><rect class="cls-4" x="193.75" y="197.47" width="111.62" height="120.4" rx="4.6"/><path class="cls-1" d="M299.88,318.19H199.24c-3.28,0-6-1.87-6-4.18V201.32c0-2.3,2.67-4.17,6-4.17H299.88c3.28,0,5.95,1.87,5.95,4.17V314C305.83,316.32,303.16,318.19,299.88,318.19ZM199.24,197.79c-2.77,0-5,1.59-5,3.53V314c0,1.95,2.26,3.54,5,3.54H299.88c2.77,0,5-1.59,5-3.54V201.32c0-1.94-2.26-3.53-5-3.53Z"/><rect class="cls-2" x="205.8" y="222.22" width="87.4" height="62.77" rx="8.32"/><path class="cls-1" d="M205.78,277.79v-12l27.29-27.14a4.62,4.62,0,0,1,6.51,0l13,13a4.6,4.6,0,0,0,6.32.18l1.18-1.06a4.6,4.6,0,0,1,6.33.2l26.54,26.76a7.2,7.2,0,0,1-7.2,7.3H213A7.21,7.21,0,0,1,205.78,277.79Z"/><circle class="cls-1" cx="267.47" cy="236.67" r="6.69"/><path class="cls-1" d="M284.88,285.45H214.11a8.78,8.78,0,0,1-8.77-8.78V230.54a8.78,8.78,0,0,1,8.77-8.78h12a.46.46,0,0,1,0,.92h-12a7.86,7.86,0,0,0-7.85,7.86v46.13a7.86,7.86,0,0,0,7.85,7.86h70.77a7.87,7.87,0,0,0,7.86-7.86V230.54a7.87,7.87,0,0,0-7.86-7.86H236.23a.46.46,0,1,1,0-.92h48.65a8.79,8.79,0,0,1,8.78,8.78v46.13A8.79,8.79,0,0,1,284.88,285.45Z"/><rect class="cls-4" x="73.38" y="13.4" width="111.62" height="120.4" rx="4.6"/><path class="cls-1" d="M179.51,134.13H78.87c-3.28,0-6-1.87-6-4.18V17.26c0-2.3,2.67-4.18,6-4.18H179.51c3.28,0,5.94,1.88,5.94,4.18V130C185.45,132.26,182.79,134.13,179.51,134.13ZM78.87,13.73c-2.78,0-5,1.58-5,3.53V130c0,2,2.25,3.53,5,3.53H179.51c2.77,0,5-1.58,5-3.53V17.26c0-2-2.26-3.53-5-3.53Z"/><rect class="cls-2" x="85.42" y="38.16" width="87.4" height="62.77" rx="8.32"/><path class="cls-1" d="M85.41,93.73v-12l27.29-27.14a4.59,4.59,0,0,1,6.5,0l13,13a4.6,4.6,0,0,0,6.31.18l1.19-1.06a4.61,4.61,0,0,1,6.33.19l26.54,26.76a7.2,7.2,0,0,1-7.2,7.31H92.61A7.21,7.21,0,0,1,85.41,93.73Z"/><circle class="cls-1" cx="147.09" cy="52.6" r="6.69"/><path class="cls-1" d="M164.51,101.38H93.74A8.78,8.78,0,0,1,85,92.61V46.47a8.78,8.78,0,0,1,8.78-8.77h12a.46.46,0,1,1,0,.91h-12a7.87,7.87,0,0,0-7.86,7.86V92.61a7.87,7.87,0,0,0,7.86,7.86h70.77a7.87,7.87,0,0,0,7.85-7.86V46.47a7.87,7.87,0,0,0-7.85-7.86H115.85a.46.46,0,1,1,0-.91h48.66a8.77,8.77,0,0,1,8.77,8.77V92.61A8.77,8.77,0,0,1,164.51,101.38Z"/><path class="cls-4" d="M369.17,277.37s3.57,9.92,1.5,15.08l-.51,2.09,16.23-7.61-1.55-1.26c-2.21-2.79-4.81-4.84-5.52-8.32Z"/><path class="cls-1" d="M370.16,294.93a.38.38,0,0,1-.25-.09.38.38,0,0,1-.13-.4l.51-2.09a.43.43,0,0,0,0-.05c2-5-1.47-14.7-1.51-14.8a.42.42,0,0,1,0-.36.4.4,0,0,1,.33-.17l10.15,0h0a.4.4,0,0,1,.39.32c.51,2.51,2.08,4.29,3.75,6.17.55.62,1.12,1.26,1.67,1.95l1.51,1.23a.4.4,0,0,1-.08.67l-16.23,7.61A.47.47,0,0,1,370.16,294.93Zm.89-2.36-.3,1.25,14.9-7-1.06-.86-.06-.06c-.54-.69-1.11-1.33-1.67-2-1.67-1.88-3.25-3.66-3.86-6.21h-9.27C370.44,279.92,372.88,288,371.05,292.57Z"/><path class="cls-4" d="M369.38,288.48l-.55,2.41a30.1,30.1,0,0,1-6.46,12.93l-2.43,2.86a1,1,0,0,0-.22,1l0,.18c.53,2,4.68,4.77,11.69,2.63,4.34-1.32,13.7-5.82,22.32-16.07a1.92,1.92,0,0,0,.15-2.29c-1.67-2.59-5.91-8.64-10.11-10.47a.86.86,0,0,0-1.16.51l-1.49,4.67a4,4,0,0,1-5,2.57l-5.34-1.73A1.12,1.12,0,0,0,369.38,288.48Z"/><path class="cls-1" d="M366.7,311.64a10.23,10.23,0,0,1-5-1.15,4.72,4.72,0,0,1-2.36-2.55l-.05-.17a1.5,1.5,0,0,1,.3-1.35l2.44-2.86a30,30,0,0,0,6.38-12.76l.54-2.4a1.51,1.51,0,0,1,2-1.12l5.34,1.73a3.57,3.57,0,0,0,4.5-2.31l1.49-4.67a1.27,1.27,0,0,1,.67-.75,1.24,1.24,0,0,1,1,0c4.31,1.87,8.63,8.05,10.28,10.62a2.3,2.3,0,0,1-.17,2.75c-10,12-20.52,15.6-22.51,16.2A16.5,16.5,0,0,1,366.7,311.64ZM370.48,288a.65.65,0,0,0-.36.1.7.7,0,0,0-.35.47l-.55,2.41a30.65,30.65,0,0,1-6.54,13.1l-2.44,2.85a.69.69,0,0,0-.14.63l0,.17a3.9,3.9,0,0,0,2,2.06c1.36.75,4.36,1.78,9.21.3,2-.6,12.23-4.17,22.14-15.95a1.52,1.52,0,0,0,.11-1.81c-1.61-2.51-5.82-8.53-9.92-10.32a.44.44,0,0,0-.39,0,.44.44,0,0,0-.24.26l-1.49,4.67a4.29,4.29,0,0,1-2.16,2.56,4.36,4.36,0,0,1-3.34.27L370.7,288A.57.57,0,0,0,370.48,288Zm-1.1.48Z"/><path class="cls-1" d="M360.91,306.06a.4.4,0,0,1-.4-.35.4.4,0,0,1,.35-.44l.84-.09A16.09,16.09,0,0,0,372.63,299l.91-1.2a1.29,1.29,0,0,1,1.36-.48,1.32,1.32,0,0,1,1,1.06l.25,1.46a.68.68,0,0,0,1,.48,37.15,37.15,0,0,0,11.75-9.91l1.84-2.35a.39.39,0,0,1,.56-.07.4.4,0,0,1,.06.56l-1.84,2.35a37.82,37.82,0,0,1-12,10.12,1.46,1.46,0,0,1-1.35,0,1.45,1.45,0,0,1-.8-1.08l-.25-1.45a.52.52,0,0,0-.4-.42.51.51,0,0,0-.54.19l-.91,1.19A16.8,16.8,0,0,1,361.79,306l-.84.09Z"/><path class="cls-4" d="M317.82,300.27s.72,8.29-2.71,12.23L314,314.19l16.12-.86-.78-1.76a27.76,27.76,0,0,1-2.18-11.49Z"/><path class="cls-1" d="M314,314.59a.4.4,0,0,1-.34-.61l1.07-1.69a.1.1,0,0,1,0-.05c3.28-3.77,2.62-11.85,2.61-11.93a.45.45,0,0,1,.1-.31.39.39,0,0,1,.29-.13l9.38-.19a.42.42,0,0,1,.3.12.41.41,0,0,1,.11.31,27.55,27.55,0,0,0,2.14,11.3l.78,1.76a.38.38,0,0,1,0,.37.42.42,0,0,1-.32.19l-16.12.86Zm1.39-1.85-.64,1,14.77-.78-.55-1.24a29.13,29.13,0,0,1-2.24-11.25l-8.53.18C318.34,302.44,318.5,309.19,315.43,312.74Z"/><path class="cls-4" d="M315.6,307.14,314,308.8a28.2,28.2,0,0,1-11.54,7.2l-3.36,1.1a1,1,0,0,0-.66.69l-.05.16c-.52,1.83,1.42,6.13,8.1,7.87,4,1,13.33,2,24.84-1.62a3.15,3.15,0,0,0,2.18-3.16c-.14-3.31-.73-9.19-2.95-12.33a.78.78,0,0,0-1.16-.13l-3.49,3a3.74,3.74,0,0,1-5.28-.4l-3.44-4A1.06,1.06,0,0,0,315.6,307.14Z"/><path class="cls-1" d="M315.23,327.16a36.54,36.54,0,0,1-8.86-1c-4.9-1.27-6.95-3.76-7.73-5.14a4.41,4.41,0,0,1-.65-3.22l.05-.16a1.43,1.43,0,0,1,.92-1l3.36-1.09a28.22,28.22,0,0,0,11.38-7.1l1.62-1.67a1.45,1.45,0,0,1,1.09-.44,1.48,1.48,0,0,1,1.07.51l3.43,4a3.36,3.36,0,0,0,2.29,1.16,3.32,3.32,0,0,0,2.43-.8l3.49-3a1.23,1.23,0,0,1,.93-.29,1.2,1.2,0,0,1,.82.49c2.28,3.23,2.87,9.24,3,12.54a3.55,3.55,0,0,1-2.47,3.56A54.14,54.14,0,0,1,315.23,327.16Zm1.13-20a.62.62,0,0,0-.47.21h0l-1.62,1.66a28.83,28.83,0,0,1-11.7,7.3l-3.36,1.1a.64.64,0,0,0-.41.42l0,.16a3.63,3.63,0,0,0,.57,2.61c.72,1.26,2.62,3.56,7.24,4.76,1.78.46,11.36,2.56,24.62-1.61a2.77,2.77,0,0,0,1.91-2.77c-.15-3.2-.71-9-2.88-12.11a.43.43,0,0,0-.26-.16.47.47,0,0,0-.32.1l-3.49,3a4.14,4.14,0,0,1-5.84-.44l-3.44-4a.64.64,0,0,0-.48-.24Zm-.76-.07h0Z"/><path class="cls-1" d="M318,321.29c-.67,0-1.35,0-2-.06a1.41,1.41,0,0,1-1.23-1.93l.52-1.29a.48.48,0,0,0-.11-.51.47.47,0,0,0-.5-.11l-1.32.51a15.87,15.87,0,0,1-12.41-.43l-.72-.34a.4.4,0,0,1,.34-.72l.72.34a15.06,15.06,0,0,0,11.78.41l1.32-.51a1.27,1.27,0,0,1,1.36.29,1.25,1.25,0,0,1,.28,1.36l-.52,1.3a.63.63,0,0,0,0,.55.65.65,0,0,0,.49.29,35,35,0,0,0,14.29-2.19l2.63-1a.39.39,0,0,1,.51.23.38.38,0,0,1-.23.51l-2.63,1A35.73,35.73,0,0,1,318,321.29Z"/><path class="cls-1" d="M347.71,153.84s6.26,21.37-4.82,36.65c-14.93,20.6-6.73,78.58-14.35,110.42a2.36,2.36,0,0,1-1.61,1.54,17.06,17.06,0,0,1-8.31,0s-1.53-.22-1.71-1.1c-1.72-8-15.83-72.67-15.29-83.36.12-2.44.45-5.29.9-8.28,1.92-12.79,5.82-24.18,11.12-35.76a49,49,0,0,0,3.58-10.38l2.58-18.07Z"/><path class="cls-1" d="M353.79,150.79S362,166,358.36,182A48.68,48.68,0,0,0,364,217.53c3.8,6.17,14.23,36.06,16.68,59.21a1.82,1.82,0,0,1-.56,1.51c-1.27,1.23-4.86,2.92-9.83,2.27a2.26,2.26,0,0,1-1.46-.62c-3.77-4.28-28.32-42.08-36-62.07-8.45-21.92-10-58.34-10-58.34S343.83,161.71,353.79,150.79Z"/><path class="cls-4" d="M334.53,225.2h0a.41.41,0,0,1-.37-.43c.21-2.84.28-5.45.35-8,.26-9.41.47-16.84,7.38-27a39.26,39.26,0,0,0,6.41-21.51.42.42,0,0,1,.4-.4.42.42,0,0,1,.4.41,40,40,0,0,1-6.55,21.95c-6.78,10-7,17.29-7.24,26.57-.07,2.53-.15,5.14-.35,8A.4.4,0,0,1,334.53,225.2Z"/><path class="cls-4" d="M278.88,109.06l-2.52-3.79c-.94-1.74,1.62-6.89-1.19-7.25-2-.27-1,2.5-3.4,3.73-1.26.65-3.5-1.48-4.1-2.62-2.06-3.94-4.33-4.93-5.75-3.88s-1.55,8.18,2.69,11.88,11.13,5.8,11.13,5.8Z"/><path class="cls-1" d="M275.74,113.33l-.12,0c-.28-.09-7-2.17-11.28-5.88a12.19,12.19,0,0,1-3.7-9.35c.06-1.56.44-2.71,1-3.15a2.36,2.36,0,0,1,2-.39c1.48.34,3,1.9,4.33,4.41.56,1.08,2.61,2.93,3.56,2.45a3.4,3.4,0,0,0,1.63-2.16c.3-.84.65-1.8,2-1.62a1.77,1.77,0,0,1,1.24.68c.68.89.47,2.43.26,3.91a6,6,0,0,0,0,2.87l2.5,3.76a.39.39,0,0,1,0,.47l-3.14,3.87A.42.42,0,0,1,275.74,113.33ZM263.1,95.26a1.63,1.63,0,0,0-1,.31,3.85,3.85,0,0,0-.72,2.54,11.4,11.4,0,0,0,3.44,8.72c3.67,3.21,9.46,5.22,10.73,5.63l2.78-3.43L276,105.49c-.45-.82-.27-2.07-.09-3.39s.38-2.69-.1-3.32a1,1,0,0,0-.72-.37c-.69-.09-.83.19-1.15,1.1a4.19,4.19,0,0,1-2,2.6c-1.55.8-4-1.55-4.63-2.79-1.62-3.1-3.08-3.84-3.8-4A2.18,2.18,0,0,0,263.1,95.26Z"/><path class="cls-4" d="M286.18,57.56a7.79,7.79,0,0,1,.67-6.11c1.08-1.94,3.35-6.56,2.17-10.22a14.86,14.86,0,0,0-4.71-6.4,1.15,1.15,0,0,0-1.89.88l0,8.89c0,1.06-.94,2.75-1.81,2.14s-1.21-3.81-2.45-6a1.17,1.17,0,0,0-1.79,0,6.22,6.22,0,0,0-.6,4c.33,2.57,1.24,6.56,2.35,8.17a50.57,50.57,0,0,1,2.82,5.25Z"/><path class="cls-1" d="M280.91,58.54a.4.4,0,0,1-.36-.23,50.18,50.18,0,0,0-2.79-5.19c-1.22-1.77-2.11-6-2.41-8.35a6.52,6.52,0,0,1,.65-4.28,1.37,1.37,0,0,1,1.21-.6h0a1.45,1.45,0,0,1,1.25.64,15.69,15.69,0,0,1,1.27,3.41,5.83,5.83,0,0,0,1.06,2.48.25.25,0,0,0,.3,0,2.51,2.51,0,0,0,.88-1.84l0-8.88a1.55,1.55,0,0,1,2.54-1.19,15.24,15.24,0,0,1,4.84,6.59c1.17,3.61-.88,8.15-2.2,10.54a7.45,7.45,0,0,0-.64,5.77.39.39,0,0,1,0,.35.37.37,0,0,1-.29.19l-5.28.58Zm-3.7-17.85a.63.63,0,0,0-.53.21,5.79,5.79,0,0,0-.54,3.77c.35,2.79,1.27,6.53,2.28,8a49.92,49.92,0,0,1,2.73,5.05l4.52-.49a8.22,8.22,0,0,1,.83-6c1.26-2.27,3.22-6.58,2.14-9.91a14.43,14.43,0,0,0-4.59-6.21.74.74,0,0,0-1.23.57l0,8.89a3.16,3.16,0,0,1-1.32,2.54,1,1,0,0,1-1.12-.07c-.65-.46-1-1.54-1.36-2.91a15.7,15.7,0,0,0-1.2-3.23.7.7,0,0,0-.57-.24Z"/><path class="cls-3" d="M357.41,129.44c-.22-15.84-3.68-26.32-9.34-33.12a27.47,27.47,0,0,0-17.17-9.48,95.78,95.78,0,0,0-13.85-1.18c-9-2.3-15-8.1-19.93-14a39.83,39.83,0,0,1-8.2-14.23A2.31,2.31,0,0,0,286.38,56L279.56,57a2.32,2.32,0,0,0-1.95,2.46c.58,7.83,4.36,35.07,28.95,46.42,0,0,0,.07,0,.1a14.64,14.64,0,0,0,1.77,4.19c-9.14,2-19,1.9-27.69-3.84a2.19,2.19,0,0,0-2.86.35l-4.66,5.16a2.19,2.19,0,0,0-.26,2.58c2.76,4.7,15.08,15.61,40.28,15.2-.49,5.74-1.89,13.42-4.65,23.78,0,0,25.84,13.33,51.79,5.13A166.12,166.12,0,0,1,357.41,129.44Z"/><path class="cls-1" d="M342.44,161.59a83.36,83.36,0,0,1-34.11-7.81.4.4,0,0,1-.2-.46,149,149,0,0,0,4.6-23.28c-10.73.11-20.51-1.86-28.3-5.73-6.47-3.21-10.39-7.1-11.9-9.67a2.57,2.57,0,0,1,.32-3l4.66-5.17a2.59,2.59,0,0,1,3.37-.42c7.34,4.84,16.37,6.15,26.86,3.91a13.67,13.67,0,0,1-1.53-3.75c-24.54-11.45-28.4-38.59-29-46.66a2.72,2.72,0,0,1,2.29-2.88l6.82-1.07a2.72,2.72,0,0,1,3,1.79,39.45,39.45,0,0,0,8.12,14.1c4.34,5.18,10.49,11.43,19.68,13.81A98.94,98.94,0,0,1,331,86.45a27.77,27.77,0,0,1,17.43,9.61c6.14,7.39,9.22,18.31,9.42,33.37a166.94,166.94,0,0,0,2.89,29,.4.4,0,0,1-.27.46A59.71,59.71,0,0,1,342.44,161.59ZM309,153.21c2.89,1.4,26.93,12.45,50.86,5.06A170.37,170.37,0,0,1,357,129.44c-.2-14.87-3.23-25.62-9.24-32.87a27.06,27.06,0,0,0-16.93-9.34,95.53,95.53,0,0,0-13.79-1.17H317c-9.44-2.43-15.72-8.8-20.14-14.09a40,40,0,0,1-8.26-14.35,1.93,1.93,0,0,0-2.11-1.26l-6.82,1.07a1.89,1.89,0,0,0-1.61,2c.59,8,4.41,34.87,28.72,46.08a.44.44,0,0,1,.22.28l0,.11A13.69,13.69,0,0,0,308.7,110a.41.41,0,0,1,0,.36.39.39,0,0,1-.28.23c-10.93,2.45-20.35,1.14-28-3.9a1.81,1.81,0,0,0-2.35.28l-4.66,5.17a1.78,1.78,0,0,0-.22,2.11c2.54,4.31,14.66,15.42,39.94,15a.38.38,0,0,1,.3.13.41.41,0,0,1,.1.3A145,145,0,0,1,309,153.21Z"/><path class="cls-1" d="M318.78,130.15c-.74,0-1.52,0-2.35-.05-1,0-2.11-.07-3.26-.06h0a.4.4,0,0,1-.39-.4.39.39,0,0,1,.39-.4c1.17,0,2.25,0,3.3.06a25.08,25.08,0,0,0,5.07-.14.4.4,0,0,1,.46.32.4.4,0,0,1-.33.46A16.61,16.61,0,0,1,318.78,130.15Z"/><path class="cls-1" d="M308,110.68a.39.39,0,0,1-.39-.31.4.4,0,0,1,.3-.48c11.43-2.74,15-7.22,17.32-10.18.3-.39.58-.74.86-1.08a.41.41,0,0,1,.57,0,.4.4,0,0,1,0,.56c-.27.32-.55.68-.84,1-2.42,3-6.07,7.66-17.77,10.47Z"/><path class="cls-1" d="M313.55,63.08A13.64,13.64,0,0,1,313,58a14.06,14.06,0,0,1,8.3-11.92c10.6-5.22,19.8,7.39,23.85,9.24,5.14,2.35,13.42-.21,18.63.52,3.32.47,15.71,2.84,16.16,18.81a32.12,32.12,0,0,1-.35,5.27c-.31,2.21-2,8.21,4.73,14.52,9,8.42,15.75,30.46-1,39.71-4,2.22-7.4,1-11.18-.76a21.94,21.94,0,0,1-2.15-1.16c-2.14-1.3-4.23-4.7-7-4.6-8.23.31-32.84,7.16-26.77-21.43,1.7-8-2.6-17.4-5.63-19.23-2.46-1.49-17-.12-18-1-6-5.57-3.05-12.58-.25-16.48C314.36,66.56,314,64.53,313.55,63.08Z"/><path class="cls-4" d="M335.56,65.15a.79.79,0,0,1-1-.7c-.22-2.32-1.77-6.28-4.35-7.77-3.3-1.91-7.73-2.07-9.45.36-1.51,2.11-1.19,3.77-4.73,6-.33.22-.26.75,0,1.08L317.23,66a3,3,0,0,1,.21,1.77c-.28,1.37-.89,4.18-.63,4.74.73,1.64,5.57,2.93,5.57,2.93L321.89,88c-.15,1.7-.9,2-.9,2l-2.86,2.6s-.11,3.08,11,4.85c8.38,1.34,7.85-.14,7.85-.14s-7.1-7.46-4.08-23.68a1,1,0,0,1,.66-.78c1.32-.46,4.91-1.92,5.14-4.45S337.2,64.76,335.56,65.15Z"/><path class="cls-1" d="M334.69,98.49a36.69,36.69,0,0,1-5.59-.56c-11.24-1.79-11.46-5-11.45-5.34a.49.49,0,0,1,.16-.33l2.86-2.6a.42.42,0,0,1,.14-.09h0s.5-.29.61-1.6l.48-12.18c-1.23-.35-4.82-1.52-5.52-3.08-.26-.56,0-2,.53-4.74l.06-.29a2.66,2.66,0,0,0-.12-1.4l-1.22-1.89a1.45,1.45,0,0,1-.26-1.08,1,1,0,0,1,.43-.65,8,8,0,0,0,3.51-4,12.09,12.09,0,0,1,1.08-1.94c2-2.76,6.76-2.4,10.08-.48,2.79,1.61,4.36,5.72,4.58,8.12a.34.34,0,0,0,.13.24.34.34,0,0,0,.27,0,3,3,0,0,1,2.73.59,3.52,3.52,0,0,1,1,3.18c-.24,2.62-3.52,4.16-5.45,4.85a.56.56,0,0,0-.36.41c-2.94,15.81,3.9,23.2,4,23.27a.59.59,0,0,1,.1.17.75.75,0,0,1-.15.7C337.16,98.05,336.79,98.49,334.69,98.49Zm-16.05-5.71c.24.59,1.7,2.8,10.61,4.22,5.16.82,6.73.53,7.18.35-1.3-1.55-6.69-9.1-3.95-23.8a1.47,1.47,0,0,1,1-1.13c1.38-.49,4.62-1.87,4.82-4a2.67,2.67,0,0,0-.71-2.37,2.1,2.1,0,0,0-1.89-.39,1.28,1.28,0,0,1-1-.21,1.23,1.23,0,0,1-.52-.91c-.2-2.14-1.64-6-4.11-7.4-3-1.71-7.23-2-8.84.22a10.94,10.94,0,0,0-1,1.8,9,9,0,0,1-3.85,4.35.49.49,0,0,0,.09.4l1.23,1.89a3.39,3.39,0,0,1,.27,2.12l-.06.29a20.28,20.28,0,0,0-.6,4.17c.46,1,3.48,2.18,5.26,2.65a.47.47,0,0,1,.35.48L322.36,88c-.14,1.66-.83,2.21-1.1,2.37Zm17.95,4.48Zm-1-32.11h0Z"/></g></svg>