<svg id="Capa_1" data-name="Capa 1" xmlns="http://www.w3.org/2000/svg" xmlns:xlink="http://www.w3.org/1999/xlink" viewBox="0 0 503.21 399.96"><defs><style>.cls-1,.cls-11,.cls-4{fill:none;}.cls-2{opacity:0.5;}.cls-3,.cls-6{fill:#eaa79f;}.cls-3,.cls-4{opacity:0.3;}.cls-4{stroke:#eaa79f;stroke-width:3.34px;}.cls-11,.cls-4,.cls-9{stroke-miterlimit:10;}.cls-5,.cls-9{fill:#393b50;}.cls-7{fill:#f5d3cf;}.cls-8{fill:#fff;}.cls-11,.cls-9{stroke:#393b50;}.cls-9{stroke-width:1.85px;}.cls-10{clip-path:url(#clip-path);}.cls-11{stroke-width:6.48px;}</style><clipPath id="clip-path"><rect class="cls-1" x="58.22" y="5.92" width="392.46" height="301.78"/></clipPath></defs><g class="cls-2"><path class="cls-3" d="M394.58,26.8C357.85,17.89,312.88,50.7,294,69.56c-23.55,23.56-70.4-15.08-117.45-23.25C102.07,33.38,29.07,73.59,11.24,147.07S44.16,279,112,312.4c290.38,142.86,361.35-58.8,378.28-128.59A130,130,0,0,0,394.58,26.8Z"/><path class="cls-4" d="M323.93,26.8c-34.51.36-66.94,39.51-79.4,60.44C229,113.38,178.83,89.7,135.34,93,66.5,98.32,10.91,150.31,11.64,219.36S70.41,328.75,138,343.06c289.1,61.23,306.63-133.2,305.94-198.77A118.74,118.74,0,0,0,323.93,26.8Z"/></g><path class="cls-5" d="M337.4,61.6h-.22a8.61,8.61,0,1,1,.22,0Zm0-14.83A6.4,6.4,0,0,0,331,53a6.27,6.27,0,0,0,1.76,4.55,6.39,6.39,0,0,0,4.48,2h.17a6.4,6.4,0,0,0,6.41-6.21,6.31,6.31,0,0,0-1.76-4.56,6.38,6.38,0,0,0-4.48-2Z"/><path class="cls-5" d="M368.46,90.78a1.13,1.13,0,0,1-.5-.13,1,1,0,0,1-.4-1.42l3.51-6.3a1,1,0,1,1,1.82,1l-3.51,6.3A1.07,1.07,0,0,1,368.46,90.78Z"/><path class="cls-5" d="M380.75,68.72a1.13,1.13,0,0,1-.5-.13,1,1,0,0,1-.4-1.42l3.51-6.3a1,1,0,1,1,1.82,1l-3.51,6.3A1.05,1.05,0,0,1,380.75,68.72Z"/><path class="cls-5" d="M390.63,84.34a1.11,1.11,0,0,1-.5-.12l-6.34-3.45a1,1,0,0,1-.42-1.41,1.06,1.06,0,0,1,1.42-.42l6.33,3.45a1,1,0,0,1-.49,2Z"/><path class="cls-5" d="M368.44,72.29a1,1,0,0,1-.49-.13l-6.34-3.44a1,1,0,1,1,1-1.83l6.34,3.44a1,1,0,0,1-.5,2Z"/><ellipse class="cls-5" cx="263.25" cy="377.01" rx="124.21" ry="15.04"/><path class="cls-6" d="M128.24,235.57c-3.25-3.65-24.73-28-25.85-46.7-.16-2.59-.4-6.62,1.78-10.73,4.35-8.21,12.7-6.06,16.31-12.21,4.75-8.12-7.22-16.21-5.78-35,.34-4.5.88-11.51,5.9-16.83,5.6-5.94,11-3.66,16.82-8.8,7.23-6.41,3.34-14,8.3-24.87,5.22-11.48,19.12-24.12,33.67-22.11,12.68,1.75,21.05,14,24,23.38,4.41,13.89-.73,28.55-8.57,37.39-11.28,12.7-27.56,12.7-27.42,18.76.13,5.64,14.25,5.88,17.14,15.45,2,6.68-2.16,15.54-8.26,19.72-8.46,5.81-16.83,0-21.26,5.12-4.66,5.32,2.38,14.13,1.65,24.8C156.1,211.76,150.12,223.1,128.24,235.57Z"/><path class="cls-5" d="M128.24,236a.43.43,0,0,1-.32-.14c-5.82-6.52-24.89-29.17-26-47a19.53,19.53,0,0,1,1.82-11c2.43-4.57,6.13-6.06,9.39-7.37,2.75-1.11,5.35-2.16,6.94-4.86,2.19-3.75.66-7.47-1.47-12.61-2.28-5.53-5.12-12.41-4.37-22.19.35-4.64.89-11.66,6-17.1,3-3.22,6.07-4.1,9-5a18.36,18.36,0,0,0,7.85-3.87c4-3.56,4.49-7.4,5.09-12.26a39.45,39.45,0,0,1,3.1-12.47C151,67.74,165.34,56,179.45,57.9c12.19,1.68,21,13.1,24.39,23.68,4.84,15.25-1.65,29.89-8.67,37.8-6.06,6.83-13.63,10.06-19.16,12.42-4.76,2-8.2,3.5-8.15,6,.06,2.29,2.91,3.7,6.21,5.33,4.13,2,9.28,4.59,10.91,10,2,6.58-1.79,15.65-8.43,20.2-4.5,3.09-8.91,3-12.8,2.89-3.42-.07-6.37-.14-8.38,2.15-2.48,2.84-1.43,6.74-.1,11.68,1,3.83,2.18,8.16,1.86,12.87-.79,11.48-10.43,22.57-28.67,33A.54.54,0,0,1,128.24,236ZM176.33,58.55c-12.69,0-25.06,10.73-30.22,22.07a38.85,38.85,0,0,0-3,12.22c-.59,4.84-1.11,9-5.37,12.79a19.14,19.14,0,0,1-8.18,4.06c-3,.85-5.73,1.66-8.61,4.72-4.91,5.21-5.43,12-5.78,16.57-.74,9.58,2.06,16.35,4.31,21.79,2.13,5.17,3.82,9.26,1.41,13.37-1.74,3-4.47,4.06-7.36,5.23-3.28,1.32-6.67,2.68-8.94,7-2.12,4-1.89,7.92-1.73,10.51,1.07,17.65,20.92,41,25.51,46.17,17.78-10.19,27.18-21,27.94-32.1.31-4.56-.83-8.82-1.84-12.58-1.34-5-2.49-9.29.29-12.48,2.27-2.59,5.41-2.52,9.05-2.44s8,.19,12.29-2.74c6.24-4.28,9.95-13.1,8.1-19.24-1.53-5.06-6.28-7.41-10.48-9.48-3.55-1.76-6.61-3.27-6.68-6.09-.07-3.13,3.6-4.7,8.67-6.86,5.45-2.33,12.92-5.52,18.85-12.2,6.88-7.74,13.22-22.07,8.49-37-3.27-10.32-11.86-21.45-23.68-23.09A23.26,23.26,0,0,0,176.33,58.55Z"/><path class="cls-5" d="M126.53,232.5a.42.42,0,0,1-.42-.36,146.09,146.09,0,0,1,2.4-55.7,183.26,183.26,0,0,1,17.22-44.83c13.48-25.08,28.66-40.64,28.81-40.8a.43.43,0,0,1,.61.61c-.15.15-15.25,15.65-28.67,40.62-12.37,23-25.81,59.07-19.52,100a.44.44,0,0,1-.36.5Z"/><path class="cls-7" d="M128.24,235.57c-38.34-39.15-43.39-60.68-39.7-73.43,1.1-3.8,4.25-11.29,3.81-22-.56-13.95-6.6-19.83-10.07-30.27-6.79-20.43.59-45.21,13.34-60.62,8.9-10.77,28-26.17,45.46-20.64,7.37,2.34,16.42,9.06,16.33,16.4-.13,10.5-19.91,12.23-23.8,27.77-2.13,8.47,3.12,10.38.78,19.36-3.67,14.14-18.39,16-18.08,24.93.3,8.66,14.33,9.13,16.33,19.64,2.28,12-13.69,19.75-10.31,30.85,2,6.6,8.09,5.21,11.24,12.58,3.84,9-3.06,15.92-5.67,32.39A73.11,73.11,0,0,0,128.24,235.57Z"/><path class="cls-5" d="M128.24,236a.43.43,0,0,1-.31-.13C110.45,218,98.44,202.3,92.24,189.14c-4.92-10.43-6.3-19.56-4.11-27.12.17-.59.39-1.26.64-2a54.22,54.22,0,0,0,3.15-19.87c-.37-9.15-3.08-14.71-6-20.6a77.2,77.2,0,0,1-4.1-9.55c-7.3-22,1.84-47,13.41-61,8.61-10.4,28-26.48,45.93-20.77,7,2.21,16.72,8.89,16.63,16.81-.06,5.2-4.58,8.24-9.81,11.77-5.62,3.79-12,8.08-14,16.1a15.39,15.39,0,0,0,.42,9.12,17,17,0,0,1,.36,10.24c-2,7.56-6.91,11.58-11.27,15.14-3.88,3.15-6.94,5.64-6.8,9.68s3.36,6.15,7.1,8.62,8.17,5.41,9.22,11c1.16,6.09-2.23,11.08-5.52,15.91s-6.44,9.47-4.79,14.89c1,3.15,2.83,4.36,5,5.76s4.59,3,6.22,6.78c2.38,5.55.77,10.3-1.47,16.86a90.09,90.09,0,0,0-4.18,15.77,72.93,72.93,0,0,0,.35,22.95.44.44,0,0,1-.23.45A.48.48,0,0,1,128.24,236Zm5.13-208.17C118.2,27.83,103.2,40.71,96,49.48,84.52,63.3,75.49,88,82.69,109.69a75.23,75.23,0,0,0,4.06,9.44c2.91,6,5.66,11.62,6,21a55.12,55.12,0,0,1-3.19,20.17c-.25.77-.46,1.43-.63,2-2.13,7.35-.76,16.27,4.06,26.5,6,12.84,17.69,28.16,34.6,45.55a72.19,72.19,0,0,1-.15-21.9,90.07,90.07,0,0,1,4.22-15.91c2.17-6.38,3.73-11,1.49-16.24-1.53-3.57-3.75-5-5.89-6.39s-4.32-2.79-5.37-6.24c-1.77-5.81,1.63-10.8,4.91-15.63,3.18-4.68,6.47-9.52,5.38-15.26-1-5.18-5-7.83-8.85-10.39s-7.33-4.85-7.48-9.31,3.21-7.21,7.11-10.38c4.26-3.47,9.1-7.4,11-14.68a16.19,16.19,0,0,0-.36-9.79,16.36,16.36,0,0,1-.43-9.57c2.09-8.34,8.61-12.73,14.36-16.61,5-3.39,9.37-6.31,9.43-11.06.08-6.7-8.26-13.51-16-16A25,25,0,0,0,133.37,27.83Z"/><path class="cls-5" d="M125.9,231.4a.42.42,0,0,1-.39-.25,288.33,288.33,0,0,1-21.22-65.49C100.43,146,98.86,127,99.73,110.52c1.33-25.24,8.12-43.13,13.57-53.69,5.93-11.47,11.63-17,11.68-17.1a.44.44,0,0,1,.6.63s-5.67,5.55-11.53,16.9c-5.41,10.48-12.13,28.24-13.46,53.3-1.93,36.34,7.68,81.28,25.7,120.23a.43.43,0,0,1-.21.57A.39.39,0,0,1,125.9,231.4Z"/><path class="cls-5" d="M304.57,291.53l-73.35.45c-.47,0-.63.44-.63.87V355c0,5.94-42.32,21.39-42.72,20.61l-.05,6.57a2.4,2.4,0,0,0,2.45,2.31h63.08a21.67,21.67,0,0,0,8.25-1.71l33.81-14.17c6.09-2.55,9.93-8,9.93-14V292.39A.82.82,0,0,0,304.57,291.53Z"/><path class="cls-5" d="M253.35,384.87H190.27a3,3,0,0,1-2.09-.86,2.64,2.64,0,0,1-.79-1.88l.05-6.58a.41.41,0,0,1,.33-.41.36.36,0,0,1,.25,0c2.45-.11,34.24-11.87,41-18.36,1-.93,1.16-1.52,1.16-1.84v-62.1c0-.79.42-1.3,1.06-1.3l73.34-.45h0a1.25,1.25,0,0,1,1.2,1.29v62.16c0,6.16-4,11.81-10.19,14.4l-33.81,14.17A22.17,22.17,0,0,1,253.35,384.87Zm-65-8.88-.05,6.14a1.82,1.82,0,0,0,.54,1.27,2.09,2.09,0,0,0,1.48.61h63.08a21.48,21.48,0,0,0,8.09-1.68l33.81-14.17c5.87-2.46,9.66-7.8,9.66-13.61V292.39c0-.17-.11-.43-.34-.43l-73.34.46c-.18,0-.21.27-.21.43V355c0,6.05-37.37,19.74-42.27,20.93Zm-.05-.64h0Zm0,0Zm0,0Z"/><path class="cls-8" d="M222.33,288.55v62.12c0,6.12-4,11.7-10.18,14.34l-22.81,9.69a1.36,1.36,0,0,0,.67,2.62h62.66a21.05,21.05,0,0,0,8.15-1.62l25.28-10.59c6.26-2.63,10.26-8.23,10.26-14.38V288.55a.49.49,0,0,0-.52-.46h-73A.49.49,0,0,0,222.33,288.55Z"/><path class="cls-5" d="M252.67,377.75H190a1.89,1.89,0,0,1-1.95-1.48,1.73,1.73,0,0,1,1.11-2L212,364.62c6-2.56,9.92-8,9.92-13.95V288.55a.92.92,0,0,1,.95-.89h73a.92.92,0,0,1,1,.89v62.18c0,6.3-4.13,12.1-10.53,14.78L261,376.1A21.74,21.74,0,0,1,252.67,377.75Zm-29.91-89.19v62.11c0,6.26-4.1,12-10.44,14.74l-22.81,9.69a.89.89,0,0,0-.61,1,1.06,1.06,0,0,0,1.11.79h62.66a20.82,20.82,0,0,0,8-1.59l25.27-10.59c6.07-2.54,10-8,10-14V288.55a.13.13,0,0,0-.09,0h-73A.12.12,0,0,0,222.76,288.56Z"/><path class="cls-5" d="M88.27,323.68l316.59.29a5.33,5.33,0,0,0,5.45-4.61l25.27-196.7c.62-4.77-2.88-9.27-7.7-9.27l-13.34,0L263,124.62,115.33,114.47Z"/><path class="cls-5" d="M404.86,324.4l-316.59-.28A.44.44,0,0,1,88,324a.42.42,0,0,1-.1-.34l27.06-209.21a.44.44,0,0,1,.45-.38L263,124.19,414.51,113l13.36,0a7.91,7.91,0,0,1,6,2.75,8.91,8.91,0,0,1,2.12,7L410.74,319.41A5.78,5.78,0,0,1,404.86,324.4Zm-316.1-1.15,316.1.28a4.92,4.92,0,0,0,5-4.23l25.26-196.69a8,8,0,0,0-1.91-6.33,7.06,7.06,0,0,0-5.36-2.46l-13.33.05L263.07,125.05H263l-147.3-10.12Z"/><path class="cls-8" d="M85.65,323.4H395.88a5.5,5.5,0,0,0,5.45-4.8L426.8,123.75a9,9,0,0,0-8.95-10.18l-306.63.5a5.5,5.5,0,0,0-5.46,4.8L80.19,317.19A5.51,5.51,0,0,0,85.65,323.4Z"/><path class="cls-5" d="M395.88,323.83H85.65a5.93,5.93,0,0,1-5.88-6.7l25.56-198.32a5.94,5.94,0,0,1,5.89-5.17l306.63-.5a9.44,9.44,0,0,1,9.37,10.67L401.76,318.65A6,6,0,0,1,395.88,323.83Zm22-209.83-306.63.5a5.09,5.09,0,0,0-5,4.42L80.62,317.24a5.07,5.07,0,0,0,5,5.73H395.88a5.08,5.08,0,0,0,5-4.43l25.47-194.85a8.6,8.6,0,0,0-8.52-9.69Z"/><path class="cls-9" d="M390.3,309.49H93.53a5.84,5.84,0,0,1-4.4-2,5.11,5.11,0,0,1-1.24-4.1l24.46-177.89a5.59,5.59,0,0,1,5.64-4.68H410.93a9.27,9.27,0,0,1,7,3.12,8.09,8.09,0,0,1,2,6.5l-24,174.33A5.59,5.59,0,0,1,390.3,309.49ZM118,121.72a4.74,4.74,0,0,0-4.79,3.94L88.74,303.55a4.25,4.25,0,0,0,1,3.41,5,5,0,0,0,3.75,1.67H390.3a4.75,4.75,0,0,0,4.79-3.94l24-174.32a7.23,7.23,0,0,0-1.78-5.82,8.37,8.37,0,0,0-6.35-2.83Z"/><ellipse class="cls-5" cx="248.62" cy="314.37" rx="3.01" ry="3"/><g class="cls-10"><path class="cls-5" d="M215.81,23a8.37,8.37,0,0,1,4-5.95c5.83-3.67,18.62-9.17,36.82-2.64,25.48,9.13,36.62,29.09,39.18,46.71,8.24,56.75,82.59,49.77,105.12,87.35C419.35,179.19,390.75,241,337,225.79s-106.49-79-106.49-79L217.6,126.15c-12.66-20.23-16.83-76.38-5.19-97.13Z"/><path class="cls-5" d="M285.78,297.63s25.43,9.48,35.4,1.5-15.45-21.45-21.44-20.45S285.78,297.63,285.78,297.63Z"/><path class="cls-8" d="M209.85,260.58s-65,11.61-111.82,60.74A47.31,47.31,0,0,0,87.1,367.94c10.41,33.58,33.06,94.91,70.9,141L186.92,484s-7-57.86-25.93-93.77,91.74-113.73,91.74-113.73Z"/><path class="cls-5" d="M158,510.2h-.1a1.24,1.24,0,0,1-.84-.44C118.9,463.24,96.12,401.17,85.94,368.3a48.53,48.53,0,0,1,11.21-47.82c46.57-48.85,111.83-61,112.49-61.1a1.4,1.4,0,0,1,.64.06l42.87,16a1.23,1.23,0,0,1,.79,1,1.21,1.21,0,0,1-.51,1.15c-1.1.77-109.59,77.6-91.36,112.16,18.83,35.7,26,93.61,26.06,94.19a1.22,1.22,0,0,1-.41,1.07L158.8,509.9A1.24,1.24,0,0,1,158,510.2Zm51.75-248.36c-5,1-66.51,13.82-110.84,60.33a46.08,46.08,0,0,0-10.64,45.41c10,32.47,32.46,93.57,69.89,139.66l27.47-23.7c-.84-6.43-8.16-59.42-25.71-92.7-18.07-34.26,75.18-103.14,90.23-113.95Z"/><path class="cls-8" d="M74.25,511l33.9,10S170,390.27,187.92,371.31s52.84-49.87,89.74-60.85,36.89-38.9,36.89-38.9l-62.82-18S164,291.51,135.07,334.4,74.25,511,74.25,511Z"/><path class="cls-5" d="M108.15,522.17a1.41,1.41,0,0,1-.35,0l-33.9-10a1.22,1.22,0,0,1-.84-1.45c.32-1.34,32.29-134.38,61-177s116.31-80.86,117.19-81.24a1.21,1.21,0,0,1,.82,0l62.82,18a1.2,1.2,0,0,1,.88,1.17c0,.29-.43,29-37.77,40.07-41.19,12.25-78.69,49.42-89.2,60.52-17.61,18.6-78.93,148-79.55,149.32A1.23,1.23,0,0,1,108.15,522.17Zm-32.45-12,31.79,9.35c6.05-12.75,62.27-130.76,79.54-149,10.62-11.22,48.5-48.76,90.28-61.19,31.9-9.48,35.55-32,36-36.83l-61.46-17.57c-6.44,2.84-88.34,39.55-115.74,80.19C109,375.23,78.88,497.09,75.7,510.13Z"/><path class="cls-7" d="M365.4,168.81c-16.95-33.92-44.87-38.91-44.87-38.91l-47.86-4c-15-1-30.88,8.24-36.79,22l-44,102.67s9,23.94,48.86,27.93S308.07,280,321,296c8.55,10.52,8.28-59.66,3.36-115.17Z"/><path class="cls-5" d="M322.64,298.28a3.35,3.35,0,0,1-2.55-1.51c-9.72-12-28.48-13.25-54.44-15-7.51-.52-16-1.1-25-2-40.17-4-49.5-27.71-49.88-28.71a1.24,1.24,0,0,1,0-.91l44-102.67c6-14,22.34-23.82,38-22.76l47.88,4c.4.06,28.84,5.5,45.86,39.57a1.23,1.23,0,0,1-.74,1.72l-40.06,11.74c3.44,39.48,6.27,113-2.16,116.38A2.47,2.47,0,0,1,322.64,298.28ZM193.23,250.61c1.46,3.18,12,23.15,47.65,26.72,9,.89,17.44,1.47,24.93,2,26.58,1.82,45.78,3.13,56.17,15.92.44.55.68.61.69.61s3.79-1.93,3.93-38.88c.09-22.36-1.19-50.78-3.42-76a1.22,1.22,0,0,1,.87-1.28l39.6-11.61c-16.54-31.82-43.06-36.9-43.33-37l-47.75-4c-14.64-1-29.94,8.16-35.56,21.29Z"/><path class="cls-8" d="M237.4,257.22l21.94-10,17,7s91.87-9.21,51.21-74.3c-.18-.28,31-9.09,31-9.09s37.06,88.38-80.24,90.38c0,0-6,2-14-2S242.39,263.2,237.4,257.22Z"/><path class="cls-5" d="M274.29,262.93a23.39,23.39,0,0,1-10.51-2.63c-3.39-1.69-8.2-1-12.85-.28-5.85.87-11.37,1.69-14.47-2a1.22,1.22,0,0,1,.44-1.89l21.93-10a1.26,1.26,0,0,1,1,0L276.46,253c4-.46,45.55-5.86,57.17-29.54,5.73-11.67,3.32-26.1-7.16-42.87a1.24,1.24,0,0,1-.11-1.09c.3-.76.36-.94,31.83-9.83a1.23,1.23,0,0,1,1.45.71c.15.34,14.31,34.91-3,61.45-12.81,19.62-39.11,29.92-78.16,30.61A15.62,15.62,0,0,1,274.29,262.93Zm-15.88-6.11a14.29,14.29,0,0,1,6.46,1.3c7.38,3.69,13,1.95,13,1.93a1.13,1.13,0,0,1,.36-.06c38.29-.65,64-10.58,76.33-29.51,15-23,5.33-52.41,3.19-58.18-10.14,2.87-24.17,6.89-28.46,8.25,10.29,17,12.47,31.79,6.5,44-12.74,25.95-57.51,30.73-59.41,30.92a1.2,1.2,0,0,1-.59-.09l-16.46-6.78-19.67,8.95c2.53,1.33,6.6.73,10.88.09A54.67,54.67,0,0,1,258.41,256.82Z"/><path class="cls-5" d="M153.78,265.13h86.49l-64.11-98.65a11,11,0,0,0-9.25-4.95H96.72A5.5,5.5,0,0,0,91.93,170Z"/><ellipse class="cls-8" cx="144.96" cy="196.12" rx="5.95" ry="11.07" transform="matrix(0.55, -0.84, 0.84, 0.55, -98.49, 210.7)"/><path class="cls-5" d="M150.05,205.17c-5.09,0-11.47-3.68-14.53-8.38-1.69-2.6-2.07-5.18-1-7.07.92-1.7,2.84-2.64,5.39-2.64,5.08,0,11.46,3.68,14.52,8.38,1.69,2.6,2.07,5.18,1.05,7.06C154.51,204.23,152.59,205.17,150.05,205.17Zm-10.18-15.66c-1.62,0-2.77.49-3.25,1.38-.59,1.07-.24,2.74.95,4.57,2.56,3.94,8.27,7.27,12.48,7.27,1.61,0,2.76-.48,3.24-1.37.59-1.08.24-2.74-.94-4.57C149.78,192.84,144.07,189.51,139.87,189.51Z"/><path class="cls-5" d="M159.87,264.5h133a6.39,6.39,0,0,1,6.39,6.39v1.67a0,0,0,0,1,0,0H153.49a0,0,0,0,1,0,0v-1.67A6.39,6.39,0,0,1,159.87,264.5Z" transform="translate(452.8 537.05) rotate(180)"/><path class="cls-8" d="M303,122.06c-1.39-.72-19.87-22.76-30.68-35.74.94-3.5.85-4.63.69-10,0,0,5.92-5.39,3.79-12.65-2.47-8.44-10.94-1.94-10.94-1.94s-3.66-6.54-18.4,4.17-29.62-3.2-29.62-3.2S217.63,71,225,81.34c4.06,5.68,4.57,13.06,4.59,19.94l8.12-.9c4.32,5.17,7.56,7.74,13.61,10.32a24.4,24.4,0,0,0,10-4.56l8.35,19.58L260.48,130s-2.36,12.08,21.3,15.75,43.15-14,43.15-14S312.39,126.86,303,122.06Z"/><path class="cls-5" d="M287.18,148.13a44.88,44.88,0,0,1-5.7-.52c-10.08-1.56-17-4.81-20.55-9.65a11.22,11.22,0,0,1-2.35-8.27,1.83,1.83,0,0,1,1.05-1.32l7.54-3.55L260.43,109a25.48,25.48,0,0,1-8.82,3.53,2.09,2.09,0,0,1-1.08-.14,33,33,0,0,1-13.66-10.06l-7.06.78a2,2,0,0,1-1.52-.46,1.82,1.82,0,0,1-.65-1.38c0-6.75-.54-13.71-4.25-18.9-7.62-10.67-7.49-19.33-7.48-19.7a1.85,1.85,0,0,1,1.2-1.66,2,2,0,0,1,2.08.39c.57.52,13.91,12.63,27.11,3,7-5.09,12.73-7.22,17-6.32a7.13,7.13,0,0,1,2.82,1.21c1.8-1.05,4.94-2.44,7.88-1.53,2.26.7,3.83,2.51,4.67,5.39,2,6.82-2.07,12.1-3.7,13.86v.08c.13,4.26.18,5.81-.54,8.74,24.63,29.57,28.88,34,29.6,34.61,9.17,4.68,21.49,9.49,21.62,9.54a1.88,1.88,0,0,1,1.17,1.38,1.81,1.81,0,0,1-.57,1.69C325.51,133.78,308.81,148.7,287.18,148.13Zm-24.83-16.91a8.53,8.53,0,0,0,1.82,4.71c2.93,3.89,9.12,6.66,17.92,8,17.83,2.77,33.43-7.33,39.17-11.66-4.31-1.76-12.55-5.21-19.16-8.6-.64-.32-2-1-31.28-36.22a1.79,1.79,0,0,1-.36-1.62c.82-3,.79-4,.65-8.6l0-.85a1.84,1.84,0,0,1,.6-1.4c.2-.18,5-4.74,3.27-10.8-.47-1.61-1.19-2.57-2.13-2.86-1.78-.55-4.63,1-5.73,1.86a2,2,0,0,1-1.6.37,1.92,1.92,0,0,1-1.32-.94h0a3,3,0,0,0-1.86-.92c-1.76-.3-5.89,0-13.67,5.69-11.21,8.15-22.54,3.19-28.29-.47a37.72,37.72,0,0,0,6.23,13.36c3.9,5.46,4.77,12.23,4.91,18.91l6-.66a2,2,0,0,1,1.74.68c4.12,4.93,7.07,7.23,12.32,9.55a23.69,23.69,0,0,0,8.57-4.09,2,2,0,0,1,1.69-.33,1.87,1.87,0,0,1,1.29,1.09L271.43,125a1.82,1.82,0,0,1-.93,2.37Z"/><path class="cls-8" d="M261.29,106.14,264,104Z"/><path class="cls-5" d="M261.25,108a2,2,0,0,1-1.43-.65,1.8,1.8,0,0,1,.21-2.61l2.68-2.19a2,2,0,0,1,2.73.21,1.79,1.79,0,0,1-.22,2.61l-2.67,2.19A2,2,0,0,1,261.25,108Z"/><path class="cls-11" d="M210.42,44.13S198.7,129.82,209,151.79s31.13-16.5,31.13-16.5"/></g></svg>