<svg id="Capa_1" data-name="Capa 1" xmlns="http://www.w3.org/2000/svg" xmlns:xlink="http://www.w3.org/1999/xlink" viewBox="0 0 525.55 446.24"><defs><style>.cls-1,.cls-4{fill:none;}.cls-2{opacity:0.5;}.cls-3,.cls-6{fill:#eaa79f;}.cls-3,.cls-4{opacity:0.3;}.cls-4{stroke:#eaa79f;stroke-width:3.34px;}.cls-10,.cls-12,.cls-4,.cls-8,.cls-9{stroke-miterlimit:10;}.cls-12,.cls-5{fill:#393b50;}.cls-7{fill:#f5d3cf;}.cls-11,.cls-8{fill:#fff;}.cls-10,.cls-12,.cls-8,.cls-9{stroke:#393b50;}.cls-10,.cls-12,.cls-8{stroke-width:1.86px;}.cls-10,.cls-9{fill:#363e44;}.cls-9{stroke-width:0.93px;}.cls-13{clip-path:url(#clip-path);}</style><clipPath id="clip-path"><path class="cls-1" d="M305.4,54.88,203.77,27.73,168.22,68.58l8.18,63.89,32.72,31.85,9.62-9.32c6.72,17.22,19.92,22.75,39.58,24.67a50.45,50.45,0,0,0,25.89-4.29l.2.08,26.18-9.61,11.93-34.43Z"/></clipPath></defs><g class="cls-2"><path class="cls-3" d="M411.38,21.86c-36.73-8.92-81.69,23.9-100.55,42.76-23.56,23.55-70.41-15.09-117.46-23.25C118.87,28.43,45.87,68.65,28,142.13S61,274.08,128.81,307.45c290.38,142.86,361.34-58.8,378.27-128.58A130,130,0,0,0,411.38,21.86Z"/><path class="cls-4" d="M340.74,21.86c-34.52.36-66.95,39.51-79.4,60.44-15.56,26.14-65.71,2.46-109.2,5.79C83.3,93.38,27.72,145.37,28.44,214.41s58.77,109.4,126.32,123.71c289.11,61.23,306.63-133.2,306-198.77A118.74,118.74,0,0,0,340.74,21.86Z"/></g><path class="cls-5" d="M449.91,221.66h-.22a8.52,8.52,0,1,1,6.42-14.39,8.41,8.41,0,0,1,2.35,6.09A8.55,8.55,0,0,1,449.91,221.66Zm0-14.94a6.45,6.45,0,0,0-6.46,6.25,6.32,6.32,0,0,0,1.77,4.59,6.39,6.39,0,0,0,4.52,2h.17a6.44,6.44,0,0,0,6.46-6.26,6.45,6.45,0,0,0-6.3-6.58Z"/><path class="cls-5" d="M481.2,251.05a1.07,1.07,0,0,1-.51-.13,1.06,1.06,0,0,1-.4-1.43l3.54-6.35a1,1,0,0,1,1.83,1l-3.54,6.35A1,1,0,0,1,481.2,251.05Z"/><path class="cls-5" d="M493.58,228.83a1.07,1.07,0,0,1-.51-.13,1.06,1.06,0,0,1-.4-1.43l3.54-6.35a1,1,0,1,1,1.83,1l-3.54,6.35A1,1,0,0,1,493.58,228.83Z"/><path class="cls-5" d="M503.53,244.57a1.11,1.11,0,0,1-.5-.12L496.64,241a1.06,1.06,0,0,1-.42-1.43,1.05,1.05,0,0,1,1.42-.42L504,242.6a1.05,1.05,0,0,1,.42,1.43A1,1,0,0,1,503.53,244.57Z"/><path class="cls-5" d="M481.18,232.43a1,1,0,0,1-.5-.13l-6.38-3.47a1,1,0,1,1,1-1.84l6.38,3.47a1,1,0,0,1-.5,2Z"/><ellipse class="cls-5" cx="252.94" cy="410.52" rx="87.93" ry="17.68"/><path class="cls-6" d="M370.44,350.08c-2.1-4.05-15.82-31.07-12.5-48.17a17.87,17.87,0,0,1,4.1-9.28c5.83-6.4,12.88-2.52,17.57-7.24,6.18-6.23-2.76-16.32,2.9-32.94,1.36-4,3.48-10.19,9.24-13.83,6.44-4.07,10.81-.75,17.24-4,8-4.11,6.26-11.84,13.27-20.53,7.39-9.15,22.87-17.34,35.54-12.15,11.05,4.53,15.77,17.51,16.28,26.7.76,13.57-7.29,25.62-16.43,31.77-13.14,8.85-27.84,5.07-29.12,10.58-1.19,5.13,11.5,8.62,11.89,17.93.26,6.51-5.56,13.53-12.05,15.89-9,3.28-15.2-3.87-20.38-.32-5.44,3.73-1.13,13.32-4.27,22.79C401.12,335.05,393.09,343.9,370.44,350.08Z"/><path class="cls-5" d="M370.34,350.47a.38.38,0,0,1-.26-.2c-3.74-7.24-15.7-32.12-12.54-48.44a18.23,18.23,0,0,1,4.2-9.47c3.25-3.57,6.93-4.05,10.19-4.48,2.74-.36,5.33-.7,7.39-2.78,2.85-2.87,2.33-6.58,1.61-11.73-.78-5.52-1.75-12.39,1.2-21.05,1.4-4.11,3.52-10.32,9.41-14,3.49-2.2,6.43-2.3,9.27-2.39a17.14,17.14,0,0,0,8-1.67c4.44-2.28,5.76-5.63,7.43-9.88A36.77,36.77,0,0,1,422,213.8c8.05-10,23.73-17.31,36-12.27,10.61,4.35,16,16.72,16.52,27.05.83,14.89-8.43,26.62-16.61,32.13-7.06,4.75-14.64,5.91-20.19,6.76-4.77.73-8.22,1.26-8.76,3.57-.48,2.08,1.76,4,4.36,6.26,3.26,2.8,7.32,6.3,7.54,11.57.26,6.41-5.26,13.71-12.31,16.28-4.78,1.74-8.74.63-12.23-.36-3.07-.86-5.72-1.61-8.07,0-2.89,2-2.86,5.75-2.81,10.52,0,3.69.08,7.88-1.3,12.06-3.38,10.17-14.67,17.95-33.56,23.1A.34.34,0,0,1,370.34,350.47ZM455,201.39c-11.46-2.95-25.12,3.87-32.42,12.91A36.56,36.56,0,0,0,417,224.63c-1.66,4.23-3.1,7.89-7.82,10.31a17.9,17.9,0,0,1-8.33,1.76c-2.86.09-5.57.17-8.87,2.26-5.65,3.56-7.71,9.62-9.07,13.62-2.89,8.48-1.94,15.25-1.18,20.68.73,5.17,1.31,9.25-1.83,12.41-2.25,2.27-5,2.63-7.86,3-3.27.43-6.65.87-9.7,4.22a17.59,17.59,0,0,0-4,9.08c-3.13,16.19,9.37,41.88,12.32,47.63,18.42-5.08,29.42-12.65,32.68-22.5,1.35-4.05,1.31-8.16,1.27-11.79-.05-4.81-.09-9,3.16-11.2,2.65-1.82,5.47-1,8.74-.1s7.2,2,11.73.38c6.64-2.42,12-9.52,11.78-15.5-.2-4.92-3.95-8.15-7.25-11-2.8-2.41-5.22-4.49-4.62-7.05.66-2.85,4.34-3.41,9.42-4.19,5.47-.83,12.95-2,19.86-6.63,8-5.39,17.07-16.86,16.26-31.42-.56-10.07-5.74-22.13-16-26.35A21.24,21.24,0,0,0,455,201.39Z"/><path class="cls-5" d="M369.61,346.91a.39.39,0,0,1-.3-.42,136.3,136.3,0,0,1,15.11-49.74,170.3,170.3,0,0,1,26-36.49c18-19.51,35.31-30,35.49-30.15a.4.4,0,1,1,.41.69c-.17.11-17.41,10.59-35.33,30-16.52,17.93-37,47.35-40.85,85.75a.4.4,0,0,1-.44.36Z"/><path class="cls-7" d="M370.44,350.08c-25.54-44.26-25.09-64.88-18.8-75.53,1.88-3.18,6.46-9.21,8.57-19,2.73-12.73-1.36-19.44-2.06-29.68-1.39-20,11-40.69,26.12-51.65,10.54-7.65,31.41-17.12,45.86-8.07,6.11,3.83,12.71,12,10.93,18.6-2.56,9.46-20.82,6.43-27.95,19.55-3.88,7.16.41,10.1-3.78,17.66-6.61,11.93-20.33,10.18-22.13,18.32-1.74,7.89,10.82,11.58,10.18,21.53-.72,11.35-16.94,14.66-16.47,25.46.29,6.44,6.1,6.59,7.23,14,1.38,9-6.47,13.67-12.65,27.93A68.11,68.11,0,0,0,370.44,350.08Z"/><path class="cls-5" d="M370.34,350.47a.38.38,0,0,1-.25-.18c-11.64-20.19-18.84-37.18-21.38-50.5-2-10.56-1.14-19.12,2.59-25.44.29-.5.64-1.06,1.05-1.7a50.53,50.53,0,0,0,7.46-17.21c1.8-8.35.64-14-.58-20a72.53,72.53,0,0,1-1.49-9.57c-1.49-21.53,12.59-42,26.3-52,10.18-7.4,31.39-17.42,46.3-8.09,5.77,3.61,13,11.91,11.11,19-1.27,4.68-6.05,6.38-11.59,8.35-6,2.12-12.71,4.51-16.39,11.29a14.38,14.38,0,0,0-1.74,8.33,15.88,15.88,0,0,1-2.05,9.34c-3.53,6.37-8.93,8.85-13.7,11-4.23,1.95-7.58,3.49-8.39,7.17s1.61,6.34,4.41,9.44,6.12,6.78,5.79,12c-.37,5.78-4.6,9.49-8.68,13.09s-8,7.06-7.79,12.34c.13,3.06,1.54,4.59,3.18,6.36a13.25,13.25,0,0,1,4,7.56c.85,5.58-1.7,9.48-5.24,14.89a83,83,0,0,0-7.44,13.27,68,68,0,0,0-5,20.81.41.41,0,0,1-.32.35A.37.37,0,0,1,370.34,350.47Zm53-186.8c-13.71-3.53-30.24,4.62-38.83,10.86-13.53,9.82-27.43,30.07-26,51.29a68.65,68.65,0,0,0,1.47,9.47c1.24,6.07,2.41,11.8.58,20.32A51.16,51.16,0,0,1,353,273.08c-.4.64-.75,1.19-1,1.68-3.63,6.14-4.47,14.51-2.49,24.88,2.48,13,9.43,29.54,20.67,49.17A67,67,0,0,1,375.12,329a84.31,84.31,0,0,1,7.5-13.39c3.45-5.26,5.93-9.06,5.12-14.32-.55-3.58-2.22-5.39-3.83-7.14s-3.25-3.52-3.4-6.88c-.25-5.66,4-9.38,8.07-13s8.05-7.09,8.4-12.53c.32-4.91-2.68-8.22-5.58-11.43s-5.49-6.09-4.59-10.15,4.57-5.77,8.83-7.73c4.66-2.14,9.94-4.56,13.33-10.7a15.07,15.07,0,0,0,2-8.93,15.22,15.22,0,0,1,1.83-8.73c3.83-7.05,10.73-9.5,16.83-11.67,5.32-1.89,9.93-3.52,11.08-7.8,1.63-6-4.31-14.11-10.76-18.15A23.37,23.37,0,0,0,423.34,163.67Z"/><path class="cls-5" d="M369.29,345.77a.38.38,0,0,1-.29-.32,268.39,268.39,0,0,1-3.95-64.07c1.08-18.63,4.08-36.22,8.69-50.85,7.07-22.49,17.35-37.07,24.74-45.34,8-9,14.45-12.68,14.51-12.72a.4.4,0,1,1,.4.7c-.06,0-6.41,3.7-14.34,12.59-7.32,8.21-17.52,22.68-24.54,45-10.18,32.36-11.95,75.18-4.72,114.54a.41.41,0,0,1-.33.47A.33.33,0,0,1,369.29,345.77Z"/><path class="cls-5" d="M414.76,340.94c-4.69-1.34-58.76-3.95-73.32,0q7.41,33.69,14.83,67.38h41.91Z"/><path class="cls-5" d="M355.72,408.45l-14.83-67.39a.57.57,0,0,1,.4-.67c14.6-3.95,69.13-1.27,73.63,0a.56.56,0,0,1,.39.67l-16.59,67.39a.56.56,0,0,1-.54.43H356.27A.57.57,0,0,1,355.72,408.45Zm58.36-67.09c-7-1.29-57.22-3.63-72,0l14.62,66.41h41Z"/><path class="cls-7" d="M337.29,20.48H166.64A18.86,18.86,0,0,0,147.8,39.32V389.55a18.87,18.87,0,0,0,18.84,18.85H337.29a18.87,18.87,0,0,0,18.84-18.85V39.32A18.86,18.86,0,0,0,337.29,20.48ZM227.4,32.05h50.4a.58.58,0,0,1,0,1.15H227.4a.58.58,0,1,1,0-1.15ZM344,388.6H161.15v-345H344Z"/><rect class="cls-8" x="161.15" y="43.56" width="182.89" height="345.04"/><path class="cls-9" d="M337.29,19.33H166.64a20,20,0,0,0-20,20V389.55a20,20,0,0,0,20,20H337.29a20,20,0,0,0,20-20V39.32A20,20,0,0,0,337.29,19.33Zm18.84,370.22a18.87,18.87,0,0,1-18.84,18.85H166.64a18.87,18.87,0,0,1-18.84-18.85V39.32a18.86,18.86,0,0,1,18.84-18.84H337.29a18.86,18.86,0,0,1,18.84,18.84Z"/><path class="cls-10" d="M227.4,33.2h50.4a.58.58,0,0,0,0-1.15H227.4a.58.58,0,1,0,0,1.15Z"/><path class="cls-6" d="M305.08,231.55l-106.14.33a15.46,15.46,0,0,1-15.51-15.41h0A15.47,15.47,0,0,1,198.85,201L305,200.64a15.46,15.46,0,0,1,15.51,15.41h0A15.46,15.46,0,0,1,305.08,231.55Z"/><path class="cls-6" d="M305.08,292.49l-106.14.33a15.47,15.47,0,0,1-15.51-15.41h0a15.47,15.47,0,0,1,15.42-15.51L305,261.57A15.47,15.47,0,0,1,320.5,277h0A15.46,15.46,0,0,1,305.08,292.49Z"/><circle class="cls-11" cx="209.72" cy="216.66" r="4.46" transform="translate(-44.17 53.98) rotate(-13.28)"/><circle class="cls-11" cx="226.68" cy="216.66" r="4.46" transform="translate(-43.72 57.88) rotate(-13.28)"/><circle class="cls-11" cx="243.1" cy="216.66" r="4.46" transform="matrix(0.97, -0.23, 0.23, 0.97, -43.28, 61.65)"/><circle class="cls-11" cx="260.07" cy="216.66" r="4.46"/><circle class="cls-11" cx="277.14" cy="216.66" r="4.46" transform="translate(-42.37 69.47) rotate(-13.28)"/><circle class="cls-11" cx="294.11" cy="216.66" r="4.46"/><rect class="cls-5" x="215.3" y="325.29" width="80.61" height="22.82" rx="11.41"/><circle class="cls-11" cx="209.72" cy="278.46" r="4.46" transform="translate(-58.37 55.63) rotate(-13.28)"/><circle class="cls-11" cx="226.68" cy="278.46" r="4.46" transform="translate(-57.91 59.53) rotate(-13.28)"/><circle class="cls-11" cx="243.1" cy="278.46" r="4.46" transform="translate(-57.47 63.3) rotate(-13.28)"/><circle class="cls-11" cx="260.07" cy="278.46" r="4.46"/><circle class="cls-11" cx="277.14" cy="278.46" r="4.46" transform="translate(-56.56 71.12) rotate(-13.28)"/><circle class="cls-11" cx="294.11" cy="278.46" r="4.46"/><path class="cls-12" d="M256.42,180.46a49.68,49.68,0,1,1,54.28-44.62A49.74,49.74,0,0,1,256.42,180.46ZM266,82.41a48.84,48.84,0,1,0,43.86,53.35A48.89,48.89,0,0,0,266,82.41Z"/><g class="cls-13"><path class="cls-5" d="M251.16,108.39c-1,6.41.64,25.77,11.74,35.69s33.17,11.83,45-.23c14.31-14.54,6.18-41.74-6.33-51.21-7-5.31-12.07-2.54-21.81-10.21s-9.48-14.19-17.08-16.52c-9.13-2.8-20.37,3.23-21.49,8.54-1,4.75,5.81,7,9.07,17a21.32,21.32,0,0,1,1,4.85A54.56,54.56,0,0,1,251.16,108.39Z"/><path class="cls-5" d="M265.51,60.52c-.89,2.15-.65,8.47,2.6,9.81s8.25-2.81,9.14-5-1-5-4.26-6.32S266.4,58.36,265.51,60.52Z"/><path class="cls-11" d="M278.52,135s12.72-26.43,5.92-31.94c-.2-.16-2.72.13-4.75,2.94s-3.39,7.87-3.39,7.87l-3.63,14.6Z"/><path class="cls-5" d="M278.61,135.42h0a.44.44,0,0,1-.39-.15l-5.85-6.52a.42.42,0,0,1-.1-.4l3.64-14.6c.06-.23,1.51-5.34,3.45-8a7.16,7.16,0,0,1,4.6-3.14c.5-.06.68,0,.79.12,7,5.67-5.28,31.38-5.81,32.47A.45.45,0,0,1,278.61,135.42Zm-5.46-7.08,5.25,5.86c1.81-3.92,11.58-25.84,5.84-30.75a6.08,6.08,0,0,0-4.2,2.8c-1.85,2.56-3.3,7.68-3.31,7.73Zm11.14-24.88Z"/><path class="cls-11" d="M265.42,117.34a7.79,7.79,0,0,1-5.43,1.37c-7.05-.52-19.23-2.3-26.25,4.3-10.54,9.9-1.92,27.26,1.91,28.63a10.64,10.64,0,0,0,6.09-2.17s2.19,1.61-.6,3.16-2.87,3-3.42,4.19c-1,2.16.49,9.39-.05,11.26s-1.4.51-1.4.51.52,2.63-1,3c0,0-7.55-8.74-4.8-17,0,0-27.52-18.08-13.73-38.49A31.74,31.74,0,0,1,247.35,102Z"/><path class="cls-5" d="M247.43,101.58a.41.41,0,0,1,.21.1L265.71,117a.49.49,0,0,1,.15.34.41.41,0,0,1-.15.33,8.11,8.11,0,0,1-5.75,1.48l-2.13-.17c-7-.59-17.57-1.49-23.79,4.35-5.73,5.39-5.22,12.73-4.41,16.62,1.24,5.9,4.4,10.55,6.1,11.25a10.24,10.24,0,0,0,5.74-2.08.45.45,0,0,1,.54,0,2.43,2.43,0,0,1,1,1.88c0,.77-.6,1.45-1.64,2a5.41,5.41,0,0,0-3,3.33c-.08.22-.16.44-.26.65-.49,1.11-.27,3.91-.07,6.37a18.49,18.49,0,0,1,0,4.83c-.09.3-.35,1.2-1,1.3h-.25c0,1.05-.3,2.24-1.45,2.52a.43.43,0,0,1-.43-.14c-.32-.36-7.5-8.81-5-17.09-2-1.42-14.68-10.65-17.11-22.75a20.77,20.77,0,0,1,3.54-16.17q.57-.86,1.17-1.65C229.44,98.5,247.25,101.55,247.43,101.58Zm-11.59,67.09a.44.44,0,0,1,.8-.32.91.91,0,0,0,.28.28s.16-.09.33-.67a19.4,19.4,0,0,0-.08-4.52c-.22-2.69-.44-5.48.15-6.8q.12-.28.24-.6a6.27,6.27,0,0,1,3.36-3.79c.52-.3,1.16-.76,1.19-1.31a1.27,1.27,0,0,0-.39-.9,11,11,0,0,1-6.07,2l-.14,0c-2.17-.78-5.47-5.87-6.74-11.93-.85-4.07-1.37-11.76,4.67-17.44,6.5-6.11,17.31-5.2,24.47-4.59l2.11.17a7.9,7.9,0,0,0,4.67-1l-17.53-14.87a31.49,31.49,0,0,0-30.07,13.93,19.89,19.89,0,0,0-3.4,15.5c2.55,12.75,16.86,22.29,17,22.38a.45.45,0,0,1,.18.51c-2.39,7.16,3.36,14.86,4.51,16.31C236.18,170.55,235.84,168.69,235.84,168.67Z"/><path class="cls-5" d="M234,153.13a.46.46,0,0,0,0,.48s1.35,2.53,0,3.68a7.4,7.4,0,0,0-2.17,3.09.44.44,0,0,0,.85.25,6.62,6.62,0,0,1,1.9-2.68c1.84-1.61.23-4.63.16-4.76a.46.46,0,0,0-.6-.18A.41.41,0,0,0,234,153.13Z"/><path class="cls-6" d="M284.06,103.17s-44.84-3.1-53.11.1l1.14,20.59-2.5,16.45a12.77,12.77,0,0,0,5.1,12.29c4.33,3.14,11.05,6,20.33,4.51,18-2.89,27.63-.29,26.94-8.38s-5.7-23.68-5.7-23.68C277.55,116.92,281.44,103.94,284.06,103.17Z"/><path class="cls-5" d="M276.78,155.09a73.14,73.14,0,0,1-8.06.92c-3.71.31-8.34.69-13.63,1.54A27.06,27.06,0,0,1,234.43,153a13.16,13.16,0,0,1-5.28-12.71l2.5-16.41-1.14-20.54a.45.45,0,0,1,.28-.44c8.27-3.2,51.46-.26,53.3-.13a.44.44,0,0,1,.09.86c-2.18.64-6,12.58-7.47,21.42.43,1.36,5,16,5.69,23.68a5.51,5.51,0,0,1-1,4.2C280.41,154,278.88,154.65,276.78,155.09Zm-45.37-51.51,1.12,20.26a.28.28,0,0,1,0,.09L230,140.38A12.31,12.31,0,0,0,235,152.25a26.2,26.2,0,0,0,20,4.43c5.32-.86,10-1.24,13.7-1.55,6.24-.51,10.37-.85,12-2.81a4.63,4.63,0,0,0,.84-3.55c-.68-8-5.63-23.43-5.68-23.59a.46.46,0,0,1,0-.2c1-6.27,4.17-18.2,7-21.45C275.85,103.08,239.41,100.9,231.41,103.58Z"/><path class="cls-11" d="M252.89,95.41a4.92,4.92,0,0,1-3.91.09c-1.1-.64-1.27-1.86-1.68-3.31a4,4,0,0,0-.94-2,3,3,0,0,0-1.05-.72,1,1,0,0,1-.53-1.14l.13-.27c1-2.14.92-5.58,0-9l.59-2c2.56-.94,4.68-1.25,5-.84.12.15.31.26.28,1-.14,3.44,3,3.17,5.58,2.61s1.56,4.22,1.56,4.22,1.67-2,3.41-.18c1.24,1.32-1.31,3.37-2.86,4.43,0,0,2.19,10.64,4.64,11.62l6.77,2.56s-12.43,5.91-23,.13c0,0,4-.62,5.53-2.35S252.78,95.79,252.89,95.41Z"/><path class="cls-5" d="M263.65,105c-4.65,1-11.12,1.31-17-1.9a.44.44,0,0,1-.23-.46.46.46,0,0,1,.37-.36s3.91-.61,5.27-2.2c1-1.15.65-3,.47-3.93l0-.14a4.93,4.93,0,0,1-3.75-.12c-1.1-.64-1.39-1.73-1.72-3,0-.19-.11-.39-.16-.59l0-.17a3.41,3.41,0,0,0-.78-1.6,3,3,0,0,0-.92-.62,1.38,1.38,0,0,1-.77-1.67s0,0,0,0l.13-.28c.9-2,.89-5.3,0-8.66a.53.53,0,0,1,0-.25l.59-2a.46.46,0,0,1,.27-.29c.78-.28,4.73-1.66,5.51-.7l0,0a1.5,1.5,0,0,1,.35,1.23,2.28,2.28,0,0,0,.64,2c1,.81,3,.49,4.4.19h0a1.67,1.67,0,0,1,1.61.39c.72.73.74,2.17.64,3.2a2.41,2.41,0,0,1,3.12.57,1.63,1.63,0,0,1,.44,1.3c-.14,1.27-1.72,2.65-3.12,3.63.85,4,2.72,10.39,4.3,11l6.76,2.56a.46.46,0,0,1,.29.4.44.44,0,0,1-.25.41A31.45,31.45,0,0,1,263.65,105Zm-15.46-2.11c8.29,3.84,17.5.89,20.51-.28L263,100.43c-2.6-1-4.68-10.83-4.91-11.94a.46.46,0,0,1,.19-.46c1.81-1.23,2.9-2.39,3-3.17a.68.68,0,0,0-.21-.59,1.71,1.71,0,0,0-1.28-.64,2.3,2.3,0,0,0-1.46.8.44.44,0,0,1-.53.11.45.45,0,0,1-.24-.49c.23-1,.37-2.94-.23-3.53a.77.77,0,0,0-.81-.16c-1.74.38-3.91.67-5.15-.37a3.14,3.14,0,0,1-1-2.69c0-.45-.06-.52-.12-.6l0,0c-.3-.14-1.88,0-4.34.87l-.49,1.62c1,3.56.94,7-.05,9.14l-.11.24a.5.5,0,0,0,.28.58,3.81,3.81,0,0,1,1.2.82,4.1,4.1,0,0,1,1,2l0,.17c.06.2.12.41.17.6.3,1.16.53,2,1.31,2.45a4.54,4.54,0,0,0,3.53-.13.48.48,0,0,1,.46.09.45.45,0,0,1,.13.41c0,.08.05.3.08.49.19,1,.59,3.19-.67,4.67C251.69,101.86,249.56,102.55,248.19,102.88Zm5.12-7.35Z"/><path class="cls-5" d="M253,95.84a.45.45,0,0,1-.51-.3.43.43,0,0,1,.29-.55c2.57-.82,3.8-4.54,3.81-4.58a.43.43,0,0,1,.55-.28.43.43,0,0,1,.29.55c-.06.17-1.39,4.2-4.39,5.15Z"/><path class="cls-5" d="M233.19,188.65a319.9,319.9,0,0,1,4.9-37.19,2.59,2.59,0,0,1,2-2.06c9.61-2,19.85-1.61,30.77,1.27a4.73,4.73,0,0,1,2.4,1.51c2.5,2.9,9.23,11,13.42,18.77,1,1.77,2,3.89,3,6Z"/><path class="cls-11" d="M279.52,167.71A38.1,38.1,0,0,0,298,141.4c3.57-18.93-15.58-35.89-15.58-35.89-4.84,6.42-6.41,12.9-5.81,19.42,0,0,18.88,14.53-.95,39.77l-2.51.52a19.51,19.51,0,0,0,2.54,3.23,20.14,20.14,0,0,0,3,2.29Z"/><path class="cls-5" d="M278.87,171.17a.5.5,0,0,1-.32,0,20.89,20.89,0,0,1-3.13-2.35,20.34,20.34,0,0,1-2.61-3.32.44.44,0,0,1,.29-.66l2.35-.48c6.74-8.62,9.66-16.89,8.7-24.58a23.15,23.15,0,0,0-7.77-14.45.44.44,0,0,1-.17-.31c-.66-7.15,1.27-13.6,5.89-19.73a.48.48,0,0,1,.31-.17.45.45,0,0,1,.34.11c.19.17,19.3,17.34,15.72,36.3A39,39,0,0,1,279.9,168l-.69,2.83a.48.48,0,0,1-.26.31Zm-5-5.64a19,19,0,0,0,2.13,2.61,16.69,16.69,0,0,0,2.46,1.9l.59-2.43a.4.4,0,0,1,.23-.29,38,38,0,0,0,18.28-26c3.22-17-12.5-32.72-15.08-35.15a26.42,26.42,0,0,0-5.45,18.53A23.77,23.77,0,0,1,285,139.62c1,8-2,16.5-9,25.36a.54.54,0,0,1-.26.16Z"/><path class="cls-11" d="M281.9,173a.45.45,0,0,1-.3,0A23.67,23.67,0,0,1,270,160.08a20.28,20.28,0,0,1-.84-3.19.45.45,0,0,1,.35-.51.43.43,0,0,1,.51.35,20.93,20.93,0,0,0,.81,3.06A22.8,22.8,0,0,0,282,172.21a.44.44,0,0,1,.19.59A.49.49,0,0,1,281.9,173Z"/></g><path class="cls-1" d="M-106.2,8.2,237-118.49l111.8,157L297.75,262.06,152.46,302l-.27.08A180.42,180.42,0,0,1-8.8,401,179.59,179.59,0,0,1-99,376.79l-.77.23-89.41-43.11-30.34-126.14Z"/><path class="cls-5" d="M172.05,342.18a65.57,65.57,0,1,1-125.63,0Z"/><rect class="cls-5" x="77" y="423.02" width="63.77" height="8.31" rx="4.15" transform="translate(217.77 854.34) rotate(180)"/><path class="cls-5" d="M12.29,367.41a30.58,30.58,0,0,1,60.69-.6,7.91,7.91,0,0,0-1.75.22,6.39,6.39,0,0,0-.94-.22,5.92,5.92,0,0,0-3,.32,5.79,5.79,0,0,0-1.31.45,8.59,8.59,0,0,0-4.31,1.67,8.25,8.25,0,0,0-1.31.39A17.77,17.77,0,1,0,57.19,381c2.27,3,7,2.67,10.35,1,1.26,0,2.28.82,3.48.44a30.59,30.59,0,0,1-58.73-15Z"/><path class="cls-5" d="M93.83,337l0,0a.32.32,0,0,1-.44,0c-.93-.85-1.84-1.76-2.69-2.7a.31.31,0,0,1,.46-.42c.85.93,1.74,1.82,2.65,2.65A.31.31,0,0,1,93.83,337Zm-5.08-5.57-.06.06a.32.32,0,0,1-.44-.06c-.76-1-1.49-2.05-2.17-3.13a.31.31,0,0,1,.1-.43.31.31,0,0,1,.44.1c.66,1.06,1.38,2.09,2.13,3.08A.32.32,0,0,1,88.75,331.44Zm-4-6.38a.29.29,0,0,1-.1.09.32.32,0,0,1-.43-.14c-.58-1.11-1.12-2.26-1.62-3.43a.33.33,0,0,1,.17-.42.31.31,0,0,1,.41.17c.49,1.15,1,2.3,1.6,3.39A.32.32,0,0,1,84.72,325.06Zm-3-6.95a.25.25,0,0,1-.15.11.3.3,0,0,1-.39-.2c-.41-1.18-.77-2.41-1.09-3.64a.32.32,0,0,1,.61-.16c.32,1.22.68,2.43,1.07,3.6A.28.28,0,0,1,81.77,318.11Zm-1.89-7.3a.35.35,0,0,1-.19.12.31.31,0,0,1-.37-.26c-.23-1.23-.42-2.5-.57-3.75a.32.32,0,0,1,.28-.35.31.31,0,0,1,.35.28c.14,1.24.33,2.49.56,3.71A.36.36,0,0,1,79.88,310.81Zm-.87-7.5a.32.32,0,0,1-.57-.18c-.06-1.26-.08-2.54-.06-3.79a.3.3,0,0,1,.32-.31.31.31,0,0,1,.31.32c0,1.24,0,2.51.06,3.75A.37.37,0,0,1,79,303.31Zm.12-7.55a.3.3,0,0,1-.27.12.31.31,0,0,1-.29-.34c.06-.74.14-1.49.23-2.23.06-.52.13-1,.21-1.54a.33.33,0,0,1,.36-.27.32.32,0,0,1,.26.36l-.21,1.53c-.09.73-.16,1.47-.22,2.2A.33.33,0,0,1,79.13,295.76Zm1.11-7.47a.34.34,0,0,1-.32.12.32.32,0,0,1-.24-.38c.26-1.22.55-2.47.88-3.69a.32.32,0,1,1,.61.17c-.33,1.21-.62,2.44-.88,3.65A.21.21,0,0,1,80.24,288.29Zm2-7.3a.3.3,0,0,1-.35.11.31.31,0,0,1-.2-.39c.39-1.19.81-2.39,1.27-3.58a.32.32,0,0,1,.41-.18.32.32,0,0,1,.18.41c-.45,1.17-.88,2.37-1.26,3.54A.19.19,0,0,1,82.19,281Zm2.7-7.05a.31.31,0,0,1-.54-.31c.5-1.14,1-2.3,1.6-3.44a.31.31,0,0,1,.42-.14.31.31,0,0,1,.15.42c-.56,1.13-1.1,2.28-1.59,3.41Zm3.34-6.77a.32.32,0,0,1-.4.09.33.33,0,0,1-.13-.43c.6-1.09,1.24-2.2,1.89-3.29a.31.31,0,0,1,.43-.11.32.32,0,0,1,.11.44c-.65,1.08-1.28,2.18-1.87,3.26ZM110.78,237a.31.31,0,0,1-.43.07.32.32,0,0,1-.07-.44c.79-1.08,1.48-2.09,2.14-3.1a.32.32,0,0,1,.43-.09.3.3,0,0,1,.09.43c-.65,1-1.36,2-2.15,3.13Zm-2.29,3h0c-.71.89-1.49,1.85-2.39,2.93a.32.32,0,0,1-.49-.41c.9-1.07,1.68-2,2.39-2.92a.33.33,0,0,1,.44-.05A.32.32,0,0,1,108.49,240Zm-4.84,5.81h0l-.37.44-2.07,2.44a.32.32,0,0,1-.49-.41l2.08-2.44.37-.44a.33.33,0,0,1,.45,0A.32.32,0,0,1,103.65,245.76Zm11.22-15.16a.33.33,0,0,1-.4.09.32.32,0,0,1-.13-.43c.61-1.13,1.16-2.26,1.64-3.37a.3.3,0,0,1,.41-.16.32.32,0,0,1,.17.41c-.48,1.12-1,2.27-1.67,3.42ZM92.12,260.69a.32.32,0,0,1-.52-.36c.69-1,1.4-2.1,2.13-3.13h0a.31.31,0,0,1,.43-.07.32.32,0,0,1,.08.44c-.73,1-1.44,2.08-2.12,3.12Zm6.68-9.15h0c-.79,1-1.57,2-2.32,3a.32.32,0,0,1-.44.06.31.31,0,0,1-.06-.44h0c.75-1,1.54-2,2.33-3a.31.31,0,0,1,.5.38Zm19-27.89a.3.3,0,0,1-.34.12.31.31,0,0,1-.21-.39,28.44,28.44,0,0,0,.83-3.64.31.31,0,1,1,.62.1,29.17,29.17,0,0,1-.85,3.71A.23.23,0,0,1,117.8,223.65Zm1.2-7.43a.3.3,0,0,1-.26.12.31.31,0,0,1-.31-.32,31.22,31.22,0,0,0-.13-3.73.31.31,0,1,1,.62-.06,30.54,30.54,0,0,1,.14,3.81A.39.39,0,0,1,119,216.22Zm-.71-7.5a.35.35,0,0,1-.19.12.32.32,0,0,1-.37-.25c-.25-1.18-.56-2.4-.94-3.62a.31.31,0,0,1,.6-.19c.38,1.24.7,2.48,1,3.68A.38.38,0,0,1,118.29,208.72Zm-2.21-7.21a.32.32,0,0,1-.54-.08c-.45-1.11-1-2.27-1.5-3.44a.31.31,0,0,1,.15-.42.33.33,0,0,1,.42.15c.56,1.19,1.06,2.36,1.51,3.48A.34.34,0,0,1,116.08,201.51Zm-3.2-6.84a.24.24,0,0,1-.11.09.31.31,0,0,1-.42-.13c-.56-1-1.18-2.16-1.84-3.29a.31.31,0,0,1,.12-.43.32.32,0,0,1,.43.12c.66,1.13,1.28,2.25,1.84,3.3A.32.32,0,0,1,112.88,194.67Zm-3.79-6.53-.09.07a.3.3,0,0,1-.43-.1c-.6-1-1.26-2-2-3.19a.32.32,0,0,1,.09-.43.31.31,0,0,1,.44.09c.76,1.18,1.42,2.23,2,3.2A.33.33,0,0,1,109.09,188.14ZM105,181.77a.27.27,0,0,1-.08.07.3.3,0,0,1-.43-.09c-.76-1.17-1.42-2.22-2-3.2a.32.32,0,0,1,.1-.43.33.33,0,0,1,.44.1c.6,1,1.26,2,2,3.19A.32.32,0,0,1,105,181.77Zm-4-6.43-.09.09a.33.33,0,0,1-.44-.12c-.66-1.13-1.28-2.25-1.85-3.3a.32.32,0,0,1,.13-.43.33.33,0,0,1,.43.13c.56,1,1.18,2.16,1.84,3.29A.32.32,0,0,1,101,175.34Zm-3.55-6.67a.29.29,0,0,1-.12.1.31.31,0,0,1-.42-.15c-.56-1.18-1.07-2.35-1.53-3.48a.32.32,0,0,1,.59-.24c.45,1.12,1,2.28,1.51,3.45A.33.33,0,0,1,97.49,168.67Zm-2.8-7a.44.44,0,0,1-.15.12.32.32,0,0,1-.4-.21c-.39-1.24-.72-2.48-1-3.68a.3.3,0,0,1,.24-.37.32.32,0,0,1,.38.24c.25,1.18.58,2.4,1,3.62A.3.3,0,0,1,94.69,161.65Zm-1.57-7.37a.34.34,0,0,1-.22.12.32.32,0,0,1-.35-.28,30.59,30.59,0,0,1-.16-3.81.3.3,0,0,1,.32-.3.31.31,0,0,1,.31.32,29.49,29.49,0,0,0,.16,3.73A.33.33,0,0,1,93.12,154.28Zm.16-7.53a.32.32,0,0,1-.57-.24c0-.21.07-.43.11-.65.18-1,.42-2,.72-3.07a.33.33,0,0,1,.39-.22.33.33,0,0,1,.22.39c-.3,1-.53,2-.71,3,0,.21-.07.43-.1.64A.35.35,0,0,1,93.28,146.75Zm2-7.27a.32.32,0,0,1-.55-.3c.45-1.2.94-2.4,1.4-3.52a.32.32,0,0,1,.41-.17.31.31,0,0,1,.17.41c-.46,1.12-.94,2.31-1.39,3.51A.25.25,0,0,1,95.29,139.48Zm2.82-7a.32.32,0,0,1-.37.1.31.31,0,0,1-.17-.41c.53-1.35.94-2.47,1.29-3.53a.32.32,0,1,1,.6.2c-.35,1.07-.77,2.2-1.31,3.56Zm2.3-7.19a.29.29,0,0,1-.31.12.31.31,0,0,1-.24-.37c.09-.43.17-.84.23-1.25a21.85,21.85,0,0,0,.28-2.45.31.31,0,0,1,.33-.29.32.32,0,0,1,.3.33c-.06.85-.15,1.69-.29,2.51-.07.42-.15.85-.24,1.28A.27.27,0,0,1,100.41,125.29Zm.45-7.51a.27.27,0,0,1-.22.12.31.31,0,0,1-.34-.28,24.81,24.81,0,0,0-.62-3.68.31.31,0,0,1,.23-.38.32.32,0,0,1,.38.23,26.05,26.05,0,0,1,.64,3.77A.34.34,0,0,1,100.86,117.78Zm-1.76-7.32a.28.28,0,0,1-.14.1.31.31,0,0,1-.41-.17A26.61,26.61,0,0,0,97,107a.31.31,0,1,1,.54-.31,28,28,0,0,1,1.65,3.45A.32.32,0,0,1,99.1,110.46Zm-3.7-6.56-.06.06a.31.31,0,0,1-.44-.06,27.52,27.52,0,0,0-2.46-2.8.32.32,0,0,1,0-.45.33.33,0,0,1,.45,0,27.67,27.67,0,0,1,2.52,2.87A.33.33,0,0,1,95.4,103.9ZM90,98.61a.32.32,0,0,1-.44.07,23.76,23.76,0,0,0-3.17-2,.31.31,0,0,1-.13-.42.31.31,0,0,1,.42-.14,24.32,24.32,0,0,1,3.25,2,.32.32,0,0,1,.07.44Z"/><path class="cls-5" d="M113.78,351.42a.32.32,0,0,1-.43.07c-.37-.25-.73-.51-1.09-.78-.65-.5-1.3-1-1.91-1.58a.32.32,0,0,1,0-.45.3.3,0,0,1,.44,0c.6.54,1.23,1.06,1.87,1.54.35.27.71.52,1.06.77a.3.3,0,0,1,.09.43Zm-5.6-5s0,0-.05.05a.31.31,0,0,1-.44,0,32.2,32.2,0,0,1-2.31-3,.32.32,0,0,1,.52-.36,34.24,34.24,0,0,0,2.26,3A.32.32,0,0,1,108.18,346.38Zm-4.24-6.23-.1.09a.32.32,0,0,1-.43-.13c-.59-1.09-1.14-2.24-1.65-3.43a.31.31,0,0,1,.17-.41.31.31,0,0,1,.41.16c.5,1.17,1,2.31,1.62,3.38A.32.32,0,0,1,103.94,340.15Zm-3-6.93a.42.42,0,0,1-.15.11.33.33,0,0,1-.4-.2c-.4-1.17-.76-2.4-1.09-3.64a.33.33,0,0,1,.23-.39.32.32,0,0,1,.38.23c.32,1.23.69,2.44,1.08,3.6A.33.33,0,0,1,101,333.22ZM99,325.92a.31.31,0,0,1-.19.12.32.32,0,0,1-.37-.25c-.24-1.22-.45-2.48-.63-3.75a.31.31,0,0,1,.27-.35.31.31,0,0,1,.36.27c.17,1.25.38,2.5.62,3.71A.28.28,0,0,1,99,325.92Zm-1-7.48a.34.34,0,0,1-.22.12.32.32,0,0,1-.35-.29c-.11-1.25-.2-2.52-.26-3.78a.32.32,0,0,1,.63,0c.06,1.25.15,2.52.26,3.76A.35.35,0,0,1,98,318.44Zm-.36-7.55a.31.31,0,0,1-.25.13.32.32,0,0,1-.32-.32c0-1.25,0-2.52.06-3.79a.32.32,0,0,1,.33-.3.31.31,0,0,1,.3.33c0,1.25-.06,2.52-.06,3.76A.31.31,0,0,1,97.62,310.89Zm.28-7.55a.3.3,0,0,1-.28.13.31.31,0,0,1-.28-.34c.09-1.25.22-2.52.37-3.77a.32.32,0,1,1,.63.07c-.15,1.25-.28,2.51-.38,3.75A.23.23,0,0,1,97.9,303.34Zm.9-7.49a.31.31,0,0,1-.3.12.32.32,0,0,1-.26-.36c.2-1.24.43-2.5.68-3.73a.32.32,0,0,1,.37-.25.31.31,0,0,1,.24.37c-.25,1.23-.47,2.47-.67,3.71A.35.35,0,0,1,98.8,295.85Zm1.49-7.41a.31.31,0,0,1-.32.12.31.31,0,0,1-.23-.38c.29-1.22.62-2.46,1-3.67a.32.32,0,0,1,.61.18c-.35,1.2-.67,2.42-1,3.64A.24.24,0,0,1,100.29,288.44Zm2.06-7.26a.31.31,0,0,1-.55-.29c.39-1.19.8-2.4,1.24-3.58a.31.31,0,0,1,.4-.19.32.32,0,0,1,.19.4c-.43,1.18-.85,2.38-1.23,3.56A.31.31,0,0,1,102.35,281.18Zm2.6-7.1a.33.33,0,0,1-.37.11.32.32,0,0,1-.17-.42c.47-1.15,1-2.33,1.49-3.48a.32.32,0,0,1,.42-.15.31.31,0,0,1,.16.41c-.52,1.15-1,2.31-1.49,3.46A.43.43,0,0,1,105,274.08Zm41.62-55.39c-.35.46-.7.93-1.07,1.39a.31.31,0,0,1-.49-.39h0c.77-1,1.54-2,2.26-3a.31.31,0,0,1,.44-.07.32.32,0,0,1,.07.44C147.39,217.59,147,218.14,146.57,218.69ZM143.13,223v0c-.78.92-1.61,1.88-2.48,2.86a.33.33,0,0,1-.45,0,.32.32,0,0,1,0-.45c.86-1,1.69-1.93,2.46-2.85a.33.33,0,0,1,.45,0A.31.31,0,0,1,143.13,223Zm6.77-9.07a.31.31,0,0,1-.42.08.32.32,0,0,1-.09-.44c.54-.84,1.06-1.68,1.55-2.52l.4-.69a.32.32,0,0,1,.43-.12.32.32,0,0,1,.12.43l-.41.7c-.49.84-1,1.7-1.56,2.54Zm-11.78,14.73,0,0c-.77.84-1.62,1.74-2.59,2.76a.31.31,0,0,1-.44,0,.32.32,0,0,1,0-.45c1-1,1.81-1.92,2.58-2.75a.32.32,0,0,1,.45,0A.32.32,0,0,1,138.12,228.66Zm15.48-21.31a.31.31,0,0,1-.53-.32c.53-1.12,1-2.28,1.5-3.44a.31.31,0,1,1,.58.23c-.46,1.18-1,2.35-1.51,3.48A.1.1,0,0,1,153.6,207.35ZM108.06,267.2a.31.31,0,0,1-.39.09.3.3,0,0,1-.14-.42c.55-1.12,1.14-2.25,1.74-3.36a.32.32,0,0,1,.43-.13.31.31,0,0,1,.12.43c-.59,1.1-1.18,2.23-1.73,3.34Zm24.87-33,0,0-.33.35-2.27,2.38a.32.32,0,0,1-.45,0,.31.31,0,0,1,0-.44l2.28-2.39.33-.34a.31.31,0,0,1,.44,0A.31.31,0,0,1,132.93,234.15Zm-5.2,5.48,0,0c-.94,1-1.77,1.91-2.56,2.78a.31.31,0,1,1-.46-.42c.78-.88,1.62-1.79,2.56-2.79a.31.31,0,0,1,.44,0A.32.32,0,0,1,127.73,239.63Zm-16.07,20.93a.31.31,0,0,1-.52-.35c.64-1.08,1.31-2.17,2-3.23a.32.32,0,0,1,.44-.09.31.31,0,0,1,.09.43c-.67,1.05-1.33,2.13-2,3.21Zm11-15.31h0c-.76.88-1.48,1.75-2.16,2.58l-.25.32a.32.32,0,0,1-.44,0,.3.3,0,0,1-.06-.43h0l.25-.31c.68-.84,1.41-1.71,2.17-2.6a.33.33,0,0,1,.45,0A.32.32,0,0,1,122.67,245.25Zm33.71-44.91a.31.31,0,0,1-.34.11.32.32,0,0,1-.21-.4c.38-1.18.73-2.4,1-3.61a.31.31,0,1,1,.61.15c-.31,1.23-.66,2.46-1,3.65A.31.31,0,0,1,156.38,200.34ZM115.73,254.2a.32.32,0,0,1-.43.07.32.32,0,0,1-.08-.44c.72-1,1.46-2.07,2.22-3.08h0a.32.32,0,0,1,.44-.06.33.33,0,0,1,.06.44c-.75,1-1.49,2-2.2,3.06ZM158.22,193a.31.31,0,0,1-.56-.24c.23-1.23.42-2.48.56-3.72a.32.32,0,0,1,.63.07c-.15,1.25-.34,2.52-.57,3.76A.31.31,0,0,1,158.22,193Zm.88-7.5a.34.34,0,0,1-.27.13.33.33,0,0,1-.3-.33c.07-1.25.09-2.52.07-3.76a.32.32,0,0,1,.63,0c0,1.26,0,2.54-.07,3.8A.27.27,0,0,1,159.1,185.51ZM159,178a.32.32,0,0,1-.23.13.33.33,0,0,1-.34-.29c-.1-1.25-.26-2.51-.45-3.73a.32.32,0,0,1,.26-.36.3.3,0,0,1,.36.26c.2,1.24.35,2.51.46,3.78A.31.31,0,0,1,159,178Zm-1.18-7.46a.32.32,0,0,1-.18.12.31.31,0,0,1-.38-.23c-.29-1.23-.62-2.44-1-3.62a.32.32,0,0,1,.21-.4.31.31,0,0,1,.39.21c.38,1.19.72,2.42,1,3.66A.29.29,0,0,1,157.8,170.5Zm-2.3-7.19a.28.28,0,0,1-.13.11.32.32,0,0,1-.41-.18c-.48-1.16-1-2.3-1.57-3.4a.31.31,0,0,1,.13-.42.32.32,0,0,1,.43.13c.57,1.12,1.11,2.28,1.59,3.45A.29.29,0,0,1,155.5,163.31Zm-3.46-6.7-.08.08a.31.31,0,0,1-.43-.1c-.67-1.06-1.4-2.09-2.15-3.07a.31.31,0,0,1,.06-.44.32.32,0,0,1,.44.06c.76,1,1.5,2,2.18,3.11A.32.32,0,0,1,152,156.61Zm-4.61-6,0,0a.33.33,0,0,1-.45,0q-.63-.67-1.29-1.32c-.44-.43-.91-.86-1.39-1.29a.32.32,0,1,1,.42-.47c.49.43,1,.88,1.41,1.31s.89.89,1.31,1.34A.32.32,0,0,1,147.43,150.65Zm-5.6-5.06h0a.33.33,0,0,1-.45.05c-.42-.34-.85-.67-1.29-1s-1.1-.82-1.72-1.26a.32.32,0,0,1-.07-.44.31.31,0,0,1,.44-.07c.62.45,1.19.86,1.73,1.27l1.3,1A.32.32,0,0,1,141.83,145.59Zm-6.1-4.45a.32.32,0,0,1-.43.07l-.92-.64L132.2,139a.32.32,0,0,1-.08-.44h0a.31.31,0,0,1,.43-.06l2.18,1.52.92.64a.32.32,0,0,1,.07.44Zm-6.16-4.38a.31.31,0,0,1-.44.06l-.35-.26c-1-.73-1.83-1.41-2.64-2.08a.31.31,0,0,1,0-.44.33.33,0,0,1,.45,0c.8.66,1.65,1.34,2.61,2.06l.35.26a.32.32,0,0,1,.06.44Zm-5.79-4.85,0,0a.32.32,0,0,1-.45,0,36.86,36.86,0,0,1-2.59-2.8.31.31,0,0,1,0-.44.32.32,0,0,1,.44,0,35.49,35.49,0,0,0,2.54,2.75A.3.3,0,0,1,123.78,131.91ZM119,126.08a.24.24,0,0,1-.09.08.32.32,0,0,1-.43-.1,25.34,25.34,0,0,1-1.65-3.13c0-.09-.07-.18-.11-.26a.32.32,0,1,1,.58-.25,1.89,1.89,0,0,0,.11.25,23,23,0,0,0,1.61,3.06A.3.3,0,0,1,119,126.08Zm-3-6.91a.27.27,0,0,1-.16.11.31.31,0,0,1-.39-.21c-.31-1.08-.6-2.18-.88-3.25l-.1-.41a.31.31,0,0,1,.23-.38.3.3,0,0,1,.38.22l.1.41c.28,1.06.56,2.16.88,3.23A.35.35,0,0,1,116,119.17Zm-2-7.29a.33.33,0,0,1-.15.11.32.32,0,0,1-.4-.2,28.66,28.66,0,0,0-1.1-3c-.08-.17-.15-.34-.23-.5a.31.31,0,1,1,.56-.28c.09.17.17.35.24.52a27.78,27.78,0,0,1,1.13,3A.31.31,0,0,1,114,111.88Zm-3.36-6.71-.06.06a.31.31,0,0,1-.44,0,13.69,13.69,0,0,0-2.38-2.32l-.29-.21a.32.32,0,0,1-.07-.44.3.3,0,0,1,.43-.08l.31.22a14.69,14.69,0,0,1,2.49,2.44A.32.32,0,0,1,110.67,105.17ZM104.53,101a.34.34,0,0,1-.33.11,7.4,7.4,0,0,0-2.73-.12.32.32,0,0,1-.36-.26.32.32,0,0,1,.27-.36,8,8,0,0,1,3,.13.31.31,0,0,1,.23.38A.61.61,0,0,1,104.53,101Z"/><path class="cls-5" d="M105.8,349.54a.31.31,0,0,1-.37.1.32.32,0,0,1-.18-.41c.48-1.15,1-2.33,1.5-3.48a.31.31,0,0,1,.42-.15.31.31,0,0,1,.16.41c-.52,1.15-1,2.31-1.49,3.46A.43.43,0,0,1,105.8,349.54Zm41.62-55.39-1.07,1.39a.31.31,0,0,1-.44,0,.33.33,0,0,1-.06-.44h0c.77-1,1.54-2,2.26-3a.31.31,0,0,1,.44-.07.32.32,0,0,1,.07.44C148.24,293.05,147.83,293.6,147.42,294.15ZM144,298.46l0,0c-.77.92-1.6,1.88-2.47,2.86a.33.33,0,0,1-.45,0,.32.32,0,0,1,0-.45c.86-1,1.69-1.93,2.46-2.85a.32.32,0,0,1,.5.39Zm6.77-9.07a.31.31,0,0,1-.42.08.32.32,0,0,1-.09-.44c.54-.84,1.06-1.68,1.55-2.52l.4-.69a.31.31,0,1,1,.54.31c-.13.23-.26.47-.4.7-.49.84-1,1.7-1.56,2.54ZM139,304.12l0,0c-.76.84-1.61,1.74-2.58,2.76a.31.31,0,0,1-.44,0,.32.32,0,0,1,0-.45c1-1,1.81-1.92,2.58-2.75a.32.32,0,0,1,.45,0A.32.32,0,0,1,139,304.12Zm15.48-21.31a.31.31,0,0,1-.38.1.31.31,0,0,1-.15-.42c.53-1.12,1-2.28,1.5-3.45a.31.31,0,0,1,.41-.17.31.31,0,0,1,.17.41c-.46,1.17-1,2.35-1.51,3.48A.1.1,0,0,1,154.45,282.81Zm-45.54,59.85a.31.31,0,0,1-.39.09.32.32,0,0,1-.15-.42c.56-1.12,1.15-2.25,1.75-3.36a.31.31,0,1,1,.55.3c-.59,1.1-1.18,2.22-1.73,3.34Zm24.87-33.05,0,0-.33.35-2.27,2.38a.31.31,0,0,1-.46-.43l2.28-2.39.33-.34a.31.31,0,0,1,.44,0A.31.31,0,0,1,133.78,309.61Zm-5.2,5.48,0,0c-.94,1-1.77,1.91-2.56,2.78a.31.31,0,0,1-.44,0,.32.32,0,0,1,0-.45c.78-.87,1.62-1.78,2.56-2.78a.31.31,0,0,1,.44,0A.32.32,0,0,1,128.58,315.09ZM112.51,336a.31.31,0,0,1-.52-.35c.64-1.08,1.31-2.17,2-3.23a.32.32,0,0,1,.44-.09.31.31,0,0,1,.09.43c-.67,1.05-1.33,2.13-2,3.21Zm11-15.31h0c-.76.88-1.48,1.75-2.16,2.58l-.25.32a.32.32,0,0,1-.44,0,.31.31,0,0,1-.06-.43h0l.25-.31c.68-.84,1.41-1.71,2.17-2.6a.33.33,0,0,1,.45,0A.32.32,0,0,1,123.52,320.71Zm33.71-44.92a.3.3,0,0,1-.34.12.33.33,0,0,1-.21-.4c.38-1.18.73-2.4,1-3.61a.31.31,0,1,1,.61.15c-.31,1.23-.66,2.46-1.05,3.65A.19.19,0,0,1,157.23,275.79Zm-40.65,53.87a.32.32,0,0,1-.43.07.32.32,0,0,1-.08-.44c.72-1,1.46-2.07,2.21-3.08h0a.32.32,0,0,1,.44-.06.33.33,0,0,1,.06.44c-.75,1-1.49,2-2.2,3.06Zm42.49-61.19a.32.32,0,0,1-.31.12.31.31,0,0,1-.25-.36c.23-1.23.41-2.48.56-3.72a.32.32,0,0,1,.35-.28.31.31,0,0,1,.27.35c-.14,1.25-.33,2.52-.56,3.76A.31.31,0,0,1,159.07,268.47ZM160,261a.34.34,0,0,1-.27.13.33.33,0,0,1-.3-.33c.07-1.25.09-2.52.07-3.76a.32.32,0,1,1,.63,0c0,1.26,0,2.53-.07,3.8A.27.27,0,0,1,160,261Zm-.12-7.55a.28.28,0,0,1-.23.12.31.31,0,0,1-.34-.28c-.1-1.25-.26-2.51-.45-3.73a.32.32,0,0,1,.26-.36.3.3,0,0,1,.36.26c.2,1.24.35,2.51.46,3.77A.32.32,0,0,1,159.83,253.42ZM158.65,246a.32.32,0,0,1-.56-.11c-.29-1.23-.62-2.45-1-3.62a.32.32,0,0,1,.21-.4.31.31,0,0,1,.39.21c.38,1.19.72,2.42,1,3.66A.29.29,0,0,1,158.65,246Zm-2.3-7.19a.35.35,0,0,1-.13.11.33.33,0,0,1-.41-.18c-.48-1.16-1-2.3-1.57-3.4a.31.31,0,0,1,.13-.42.32.32,0,0,1,.43.13c.57,1.11,1.11,2.28,1.59,3.45A.29.29,0,0,1,156.35,238.77Zm-3.46-6.7a.3.3,0,0,1-.08.08.31.31,0,0,1-.43-.1c-.67-1.06-1.4-2.09-2.15-3.07a.32.32,0,0,1,.05-.44.32.32,0,0,1,.45.06c.76,1,1.5,2,2.18,3.11A.32.32,0,0,1,152.89,232.07Z"/></svg>