<?xml version="1.0" encoding="utf-8"?>
<!-- Generator: Adobe Illustrator 24.1.2, SVG Export Plug-In . SVG Version: 6.00 Build 0)  -->
<svg version="1.1" id="Capa_1" xmlns="http://www.w3.org/2000/svg" xmlns:xlink="http://www.w3.org/1999/xlink" x="0px" y="0px"
	 viewBox="0 0 90 90" style="enable-background:new 0 0 90 90;" xml:space="preserve">
<style type="text/css">
	.st0{fill:#FFFFFF;}
	.st1{opacity:0.7;fill:#EAA79F;}
	.st2{fill:#EAA79F;}
	.st3{fill:#F2F2F2;}
	.st4{fill:#F5D3CF;}
	.st5{fill:none;stroke:#FFFFFF;stroke-width:3;stroke-miterlimit:10;}
	.st6{fill:none;stroke:#FFFFFF;stroke-width:2;stroke-miterlimit:10;}
	.st7{fill-rule:evenodd;clip-rule:evenodd;fill:#FFFFFF;}
	.st8{opacity:0.2;clip-path:url(#SVGID_2_);}
	.st9{fill:none;stroke:#EAA79F;stroke-width:2.1892;stroke-linecap:round;stroke-linejoin:round;stroke-miterlimit:10;}
	.st10{fill:none;stroke:#EAA79F;stroke-width:3.1276;stroke-linecap:round;stroke-linejoin:round;stroke-miterlimit:10;}
	.st11{fill:#393B50;}
	.st12{fill:#9A9AA0;}
	.st13{fill:#F4F4F4;}
	.st14{fill:#FFDDD4;}
	.st15{opacity:0.8;}
	.st16{opacity:0.2;}
	.st17{fill:#FFFFFF;stroke:#AFAFAF;stroke-width:0.4386;stroke-miterlimit:10;}
	.st18{fill:#FFFFFF;stroke:#AFAFAF;stroke-width:0.6806;stroke-miterlimit:10;}
	.st19{fill:none;}
	.st20{clip-path:url(#SVGID_6_);}
</style>
<g>
	<g>
		<path class="st2" d="M75.4,62.7V19.7c0-0.7-0.6-1.3-1.3-1.3H15.9c-0.7,0-1.3,0.6-1.3,1.3v43.1c0,0.7,0.6,1.3,1.3,1.3h58.3
			C74.8,64,75.4,63.4,75.4,62.7z M72.9,61.5H17.1V20.9h55.7V61.5z"/>
		<path class="st2" d="M84.3,66.5h-3.8V18.4c0-2.8-2.3-5.1-5.1-5.1H14.6c-2.8,0-5.1,2.3-5.1,5.1v48.1H5.7c-0.7,0-1.3,0.6-1.3,1.3
			v3.8c0,2.8,2.3,5.1,5.1,5.1h70.9c2.8,0,5.1-2.3,5.1-5.1v-3.8C85.5,67.1,85,66.5,84.3,66.5z M12.1,18.4c0-1.4,1.1-2.5,2.5-2.5h60.8
			c1.4,0,2.5,1.1,2.5,2.5v48.1H50.1c-0.7,0-1.3,0.6-1.3,1.3v1.3h-7.6v-1.3c0-0.7-0.6-1.3-1.3-1.3H12.1V18.4z M83,71.6
			c0,1.4-1.1,2.5-2.5,2.5H9.5C8.1,74.1,7,73,7,71.6v-2.5h31.7v1.3c0,0.7,0.6,1.3,1.3,1.3h10.1c0.7,0,1.3-0.6,1.3-1.3v-1.3H83V71.6z"
			/>
	</g>
</g>
</svg>
