<?xml version="1.0" encoding="utf-8"?>
<!-- Generator: Adobe Illustrator 24.1.2, SVG Export Plug-In . SVG Version: 6.00 Build 0)  -->
<svg version="1.1" id="Capa_1" xmlns="http://www.w3.org/2000/svg" xmlns:xlink="http://www.w3.org/1999/xlink" x="0px" y="0px"
	 viewBox="0 0 90 90" style="enable-background:new 0 0 90 90;" xml:space="preserve">
<style type="text/css">
	.st0{fill:#FFFFFF;}
	.st1{opacity:0.7;fill:#EAA79F;}
	.st2{fill:#EAA79F;}
	.st3{fill:#F2F2F2;}
	.st4{fill:#F5D3CF;}
	.st5{fill:none;stroke:#FFFFFF;stroke-width:3;stroke-miterlimit:10;}
	.st6{fill:none;stroke:#FFFFFF;stroke-width:2;stroke-miterlimit:10;}
	.st7{fill-rule:evenodd;clip-rule:evenodd;fill:#FFFFFF;}
	.st8{opacity:0.2;clip-path:url(#SVGID_2_);}
	.st9{fill:none;stroke:#EAA79F;stroke-width:2.1892;stroke-linecap:round;stroke-linejoin:round;stroke-miterlimit:10;}
	.st10{fill:none;stroke:#EAA79F;stroke-width:3.1276;stroke-linecap:round;stroke-linejoin:round;stroke-miterlimit:10;}
	.st11{fill:#393B50;}
	.st12{fill:#9A9AA0;}
	.st13{fill:#F4F4F4;}
	.st14{fill:#FFDDD4;}
	.st15{opacity:0.8;}
	.st16{opacity:0.2;}
	.st17{fill:#FFFFFF;stroke:#AFAFAF;stroke-width:0.4386;stroke-miterlimit:10;}
	.st18{fill:#FFFFFF;stroke:#AFAFAF;stroke-width:0.6806;stroke-miterlimit:10;}
	.st19{fill:none;}
	.st20{clip-path:url(#SVGID_6_);}
</style>
<g>
	<g>
		<g>
			<path class="st2" d="M21.2,59.9c-3.6,0-6.9-1.3-9.5-3.8c-2.7-2.5-4.2-6-4.3-9.7c-0.1-3.7,1.3-7.2,3.8-9.9s6-4.2,9.7-4.3l15-0.4
				c0.3,0,0.7,0.1,0.9,0.4c0.2,0.2,0.4,0.6,0.4,0.9l0.6,25c0,0.3-0.1,0.7-0.4,0.9c-0.2,0.2-0.6,0.4-0.9,0.4l-15,0.4
				C21.4,59.9,21.3,59.9,21.2,59.9z M34.7,34.6L21,34.9c-3,0.1-5.8,1.3-7.9,3.5s-3.2,5-3.1,8c0.1,3,1.3,5.8,3.5,7.9
				c2.2,2.1,5,3.2,8,3.1L35.2,57L34.7,34.6z"/>
		</g>
		<g>
			<path class="st2" d="M29.6,78.1c-2.2,0-4.3-0.8-5.9-2.4c-0.2-0.2-0.4-0.6-0.4-0.9l-0.4-16.2c0-0.7,0.6-1.3,1.3-1.3L36.5,57
				c0.3,0,0.7,0.1,0.9,0.4c0.2,0.2,0.4,0.6,0.4,0.9l0.3,11.1c0.1,3.5-1.9,6.6-5.1,8C31.9,77.9,30.7,78.1,29.6,78.1z M25.9,74.2
				c1.7,1.4,4.1,1.7,6.1,0.8c2.2-1,3.6-3.2,3.5-5.6c0,0,0,0,0,0l-0.2-9.8l-9.8,0.2L25.9,74.2z"/>
		</g>
		<g>
			<path class="st2" d="M69.5,78.8c-0.2,0-0.5-0.1-0.7-0.2l-33-19.2c-0.4-0.2-0.6-0.6-0.6-1.1l-0.6-25c0-0.5,0.2-0.9,0.6-1.1
				l32.1-20.8c0.4-0.3,0.9-0.3,1.3-0.1c0.4,0.2,0.7,0.6,0.7,1.1l1.5,65.1c0,0.5-0.2,0.9-0.6,1.2C70,78.8,69.8,78.8,69.5,78.8z
				 M37.8,57.5l30.4,17.7l-1.4-60.4L37.3,33.9L37.8,57.5z"/>
		</g>
		<g>
			<path class="st2" d="M69.1,58.8c-0.7,0-1.3-0.6-1.3-1.3l-0.6-25c0-0.7,0.6-1.3,1.3-1.3c3.7-0.1,7.2,1.3,9.9,3.8
				c2.7,2.5,4.2,6,4.3,9.7c0.1,3.7-1.3,7.2-3.8,9.9C76.2,57.2,72.8,58.7,69.1,58.8C69.1,58.8,69.1,58.8,69.1,58.8z M69.8,33.8
				l0.5,22.3c2.5-0.3,4.8-1.5,6.6-3.4c2.1-2.2,3.2-5,3.1-8c-0.1-3-1.3-5.8-3.5-7.9C74.7,35.1,72.3,34.1,69.8,33.8z"/>
		</g>
	</g>
</g>
</svg>
