<svg id="Capa_1" data-name="Capa 1" xmlns="http://www.w3.org/2000/svg" xmlns:xlink="http://www.w3.org/1999/xlink" viewBox="0 0 409.71 355.6"><defs><style>.cls-1{fill:#fff;}.cls-2{fill:#393b50;}.cls-3{fill:#eaa79f;}.cls-4{clip-path:url(#clip-path);}.cls-5{fill:#f5d3cf;}</style><clipPath id="clip-path"><circle class="cls-1" cx="357.94" cy="158.48" r="26.86"/></clipPath></defs><ellipse class="cls-2" cx="79.86" cy="245.24" rx="75.47" ry="14.96"/><ellipse class="cls-2" cx="333.71" cy="245.24" rx="73.9" ry="14.96"/><ellipse class="cls-2" cx="220.12" cy="262.43" rx="96.63" ry="14.96"/><rect class="cls-3" x="253.64" y="34.63" width="152.81" height="209.12" rx="16.61"/><path class="cls-2" d="M389.84,244.9H270.25a17.78,17.78,0,0,1-17.76-17.76V51.24a17.77,17.77,0,0,1,17.76-17.76H389.84a17.78,17.78,0,0,1,17.77,17.76v175.9A17.79,17.79,0,0,1,389.84,244.9ZM270.25,35.79A15.47,15.47,0,0,0,254.8,51.24v175.9a15.47,15.47,0,0,0,15.45,15.45H389.84a15.47,15.47,0,0,0,15.45-15.45V51.24a15.47,15.47,0,0,0-15.45-15.45Z"/><rect class="cls-1" x="264.08" y="46.58" width="133.44" height="150.22" rx="13.15"/><path class="cls-2" d="M383,197.63H278.59c-8.56,0-15.52-5.72-15.52-12.76V58.51c0-7,7-12.76,15.52-12.76H383c8.55,0,15.51,5.72,15.51,12.76V184.87C398.53,191.91,391.57,197.63,383,197.63ZM278.59,47.41c-7.44,0-13.5,5-13.5,11.1V184.87c0,6.12,6.06,11.1,13.5,11.1H383c7.44,0,13.49-5,13.49-11.1V58.51c0-6.12-6.05-11.1-13.49-11.1Z"/><rect class="cls-2" x="311.93" y="57.58" width="22.93" height="50.94" rx="2.58"/><path class="cls-1" d="M342.13,184.1H305c-4.44,0-8.08-4.07-8.19-9.16l-1.42-61.09c-.12-5.29,3.58-9.65,8.2-9.65H343.4c4.61,0,8.31,4.35,8.2,9.63l-1.27,61.08C350.22,180,346.58,184.1,342.13,184.1Z"/><path class="cls-2" d="M342.13,184.3H305c-4.59,0-8.28-4.11-8.4-9.36l-1.42-61.08a10.31,10.31,0,0,1,2.8-7.42,7.82,7.82,0,0,1,5.61-2.45H343.4a7.8,7.8,0,0,1,5.6,2.44,10.29,10.29,0,0,1,2.81,7.4l-1.27,61.09a10.26,10.26,0,0,1-2.52,6.64A7.85,7.85,0,0,1,342.13,184.3Zm-38.52-79.89a7.4,7.4,0,0,0-5.31,2.32,9.91,9.91,0,0,0-2.68,7.12L297,174.93c.11,5,3.62,9,8,9h37.11c4.3,0,7.89-4,8-9l1.27-61.09a9.83,9.83,0,0,0-2.69-7.1,7.41,7.41,0,0,0-5.3-2.31Z"/><path class="cls-2" d="M340,181.12h-32.9c-4.09,0-7.37-3.93-7.48-9l-1.26-58.4a4.35,4.35,0,0,1,1.27-3.15,4.45,4.45,0,0,1,3.21-1.35h41.31a4.46,4.46,0,0,1,3.19,1.34,4.33,4.33,0,0,1,1.26,3.13v.05l-1.12,58.35C347.4,177.18,344.12,181.12,340,181.12Zm-37.16-71.43a4.06,4.06,0,0,0-2.91,1.22,3.92,3.92,0,0,0-1.15,2.85v0l1.26,58.36c.1,4.79,3.2,8.54,7.06,8.54H340c3.8,0,7-3.84,7.06-8.56l1.13-58.4a3.94,3.94,0,0,0-1.15-2.84,4,4,0,0,0-2.89-1.21Z"/><path class="cls-2" d="M337.47,177.94H310.29c-3.39,0-6.12-3.22-6.21-7.32l-.4-18.15a.22.22,0,0,1,.21-.22.21.21,0,0,1,.21.21l.4,18.15c.08,3.87,2.63,6.91,5.79,6.91h27.18c3.12,0,5.71-3.11,5.79-6.93l.65-33.4a.22.22,0,0,1,.21-.21h0a.21.21,0,0,1,.2.21l-.65,33.41C343.6,174.71,340.87,177.94,337.47,177.94Z"/><path class="cls-2" d="M303.33,136.76a.21.21,0,0,1-.21-.21l-.32-21.65a.21.21,0,0,1,.21-.21h0a.21.21,0,0,1,.21.2l.32,21.65a.22.22,0,0,1-.21.22Z"/><path class="cls-1" d="M315.43,101.73a.21.21,0,0,1-.21-.21l-.32-36.29a.22.22,0,0,1,.21-.22h0a.22.22,0,0,1,.21.21l.32,36.3a.21.21,0,0,1-.21.21Z"/><circle class="cls-1" cx="357.94" cy="158.48" r="26.86"/><g class="cls-4"><path class="cls-1" d="M342.6,191.23l-9.67-4.9a1.78,1.78,0,0,1-.78-2.38l12.77-25.18a7.59,7.59,0,0,1,10.22-3.34,6.78,6.78,0,0,1,3,9.11L345,190.45A1.77,1.77,0,0,1,342.6,191.23Z"/><path class="cls-2" d="M343.4,191.58a1.83,1.83,0,0,1-.87-.21l-9.67-4.9a1.93,1.93,0,0,1-.85-2.59l12.76-25.18a7.78,7.78,0,0,1,10.44-3.42,6.93,6.93,0,0,1,3.05,9.33l-13.14,25.92A1.92,1.92,0,0,1,343.4,191.58Zm-.72-.49a1.61,1.61,0,0,0,2.16-.71L358,164.46a6.62,6.62,0,0,0-2.92-8.89,7.44,7.44,0,0,0-10,3.27L332.29,184a1.62,1.62,0,0,0,.71,2.17Z"/><path class="cls-2" d="M349.32,154.07l-5.09,10.46a2,2,0,0,0-.17,1.33,6.06,6.06,0,0,0,7.18,4.31,2.93,2.93,0,0,0,1.89-1.5l5.52-10.92a3.31,3.31,0,0,0,.38-1.57,5.1,5.1,0,0,0-9.71-2.11Z"/><path class="cls-1" d="M349.83,163.4h-.07a.16.16,0,0,1-.07-.22l2.19-4.45a.15.15,0,0,1,.21-.07.15.15,0,0,1,.07.21L350,163.31A.15.15,0,0,1,349.83,163.4Z"/><path class="cls-1" d="M348.14,166.84a.08.08,0,0,1-.07,0,.15.15,0,0,1-.07-.21l1-2a.16.16,0,0,1,.21-.08.16.16,0,0,1,.07.22l-1,2A.15.15,0,0,1,348.14,166.84Z"/><path class="cls-1" d="M352.42,165.69l-.07,0a.15.15,0,0,1-.07-.21l2.09-4.26a.16.16,0,0,1,.21-.07.16.16,0,0,1,.08.21l-2.1,4.26A.14.14,0,0,1,352.42,165.69Z"/><path class="cls-1" d="M350.79,169h-.07a.17.17,0,0,1-.08-.22l1-2a.16.16,0,0,1,.22-.07.15.15,0,0,1,.07.21l-1,2A.15.15,0,0,1,350.79,169Z"/><rect class="cls-1" x="368.78" y="135.6" width="15.61" height="16.24" transform="translate(289.84 -249.92) rotate(56.68)"/><path class="cls-2" d="M374.09,154.86h0a.13.13,0,0,1-.1-.07l-8.58-13a.15.15,0,0,1,.05-.22L379,132.6a.17.17,0,0,1,.12,0,.13.13,0,0,1,.1.07l8.58,13a.15.15,0,0,1-.05.22l-13.56,8.92A.16.16,0,0,1,374.09,154.86Zm-8.36-13.16,8.4,12.78,13.3-8.75L379,133Z"/><ellipse class="cls-1" cx="369.8" cy="148.17" rx="1.67" ry="7.81" transform="translate(-20.61 227.47) rotate(-33.32)"/><path class="cls-2" d="M373.86,154.92c-1.18,0-3.66-2.81-5.58-5.74-2.12-3.23-3.84-7-2.85-7.66s3.78,2.42,5.9,5.65,3.84,7,2.85,7.66A.57.57,0,0,1,373.86,154.92Zm.23-.22Zm-8.32-13a.31.31,0,0,0-.17,0c-.59.4.47,3.46,2.94,7.22s4.87,5.95,5.46,5.56-.47-3.45-2.94-7.21C368.78,143.87,366.56,141.74,365.77,141.74Z"/><path class="cls-1" d="M355.17,160.4a2.61,2.61,0,0,1-2-3l9.88-5.62,1.32,2Z"/><path class="cls-2" d="M355.17,160.56h-.05a2.76,2.76,0,0,1-2.11-3.2.2.2,0,0,1,.08-.13L363,151.6a.17.17,0,0,1,.22.05l1.31,2a.16.16,0,0,1,0,.22l-9.19,6.66A.17.17,0,0,1,355.17,160.56Zm-1.85-3.1a2.43,2.43,0,0,0,1.83,2.76l9-6.52L363,152Z"/><path class="cls-1" d="M362.28,155.11l-1.43-2.17,8.35-5.49c1,.19,1.43,1,1.43,2.17Z"/><path class="cls-2" d="M362.28,155.27h0a.18.18,0,0,1-.1-.07L360.72,153a.16.16,0,0,1,0-.22l8.35-5.49a.17.17,0,0,1,.12,0c1,.21,1.56,1,1.56,2.33a.17.17,0,0,1-.07.14l-8.35,5.48A.16.16,0,0,1,362.28,155.27ZM361.07,153l1.26,1.91,8.14-5.35c0-1.11-.42-1.73-1.24-1.92Z"/><path class="cls-2" d="M357.94,186.32a27.84,27.84,0,1,1,27.84-27.84A27.86,27.86,0,0,1,357.94,186.32Zm0-53.72a25.88,25.88,0,1,0,25.88,25.88A25.91,25.91,0,0,0,357.94,132.6Z"/></g><rect class="cls-3" x="5.94" y="34.63" width="152.81" height="209.12" rx="16.61"/><path class="cls-2" d="M142.14,244.9H22.55A17.79,17.79,0,0,1,4.78,227.14V51.24A17.78,17.78,0,0,1,22.55,33.48H142.14A17.78,17.78,0,0,1,159.9,51.24v175.9A17.78,17.78,0,0,1,142.14,244.9ZM22.55,35.79A15.47,15.47,0,0,0,7.09,51.24v175.9a15.47,15.47,0,0,0,15.46,15.45H142.14a15.47,15.47,0,0,0,15.45-15.45V51.24a15.47,15.47,0,0,0-15.45-15.45Z"/><rect class="cls-1" x="17.22" y="46.58" width="133.44" height="150.22" rx="13.15"/><path class="cls-2" d="M136.16,197.63H31.72c-8.55,0-15.51-5.72-15.51-12.76V58.51c0-7,7-12.76,15.51-12.76H136.16c8.55,0,15.51,5.72,15.51,12.76V184.87C151.67,191.91,144.71,197.63,136.16,197.63ZM31.72,47.41c-7.44,0-13.49,5-13.49,11.1V184.87c0,6.12,6.05,11.1,13.49,11.1H136.16c7.44,0,13.49-5,13.49-11.1V58.51c0-6.12-6.05-11.1-13.49-11.1Z"/><rect class="cls-5" x="128.02" y="17.32" width="180.88" height="247.53" rx="19.66"/><path class="cls-2" d="M289.25,266.22H147.68a21.05,21.05,0,0,1-21-21V37a21.06,21.06,0,0,1,21-21H289.25a21.05,21.05,0,0,1,21,21V245.2A21,21,0,0,1,289.25,266.22ZM147.68,18.69A18.31,18.31,0,0,0,129.39,37V245.2a18.32,18.32,0,0,0,18.29,18.29H289.25a18.32,18.32,0,0,0,18.29-18.29V37a18.31,18.31,0,0,0-18.29-18.29Z"/><rect class="cls-1" x="138.91" y="28.88" width="159.11" height="179.13" rx="15.68"/><path class="cls-2" d="M280.73,209H156.2c-10.2,0-18.5-6.82-18.5-15.21V43.1c0-8.39,8.3-15.21,18.5-15.21H280.73c10.2,0,18.49,6.82,18.49,15.21V193.78C299.22,202.17,290.93,209,280.73,209ZM156.2,29.87c-8.87,0-16.09,5.93-16.09,13.23V193.78c0,7.3,7.22,13.23,16.09,13.23H280.73c8.87,0,16.09-5.93,16.09-13.23V43.1c0-7.3-7.22-13.23-16.09-13.23Z"/><path class="cls-2" d="M283.13,83.85a.63.63,0,0,1-.32-.1L256.1,66.37a.6.6,0,0,1-.18-.83.61.61,0,0,1,.83-.17l26.71,17.37a.6.6,0,0,1,.18.83A.61.61,0,0,1,283.13,83.85Z"/><path class="cls-2" d="M279.69,89.13a.55.55,0,0,1-.32-.1L253.31,72.09a.61.61,0,0,1-.17-.83.6.6,0,0,1,.83-.18l26,17a.6.6,0,0,1-.33,1.1Z"/><path class="cls-2" d="M276.26,94.42a.56.56,0,0,1-.33-.1L250.12,77.53a.6.6,0,1,1,.65-1l25.81,16.79a.59.59,0,0,1,.18.82A.61.61,0,0,1,276.26,94.42Z"/><path class="cls-2" d="M272.82,99.7a.66.66,0,0,1-.33-.09L247.05,83.05a.6.6,0,0,1-.18-.83.61.61,0,0,1,.83-.17L273.15,98.6a.61.61,0,0,1,.17.83A.58.58,0,0,1,272.82,99.7Z"/><path class="cls-2" d="M269.38,105a.6.6,0,0,1-.33-.1l-26.2-17a.6.6,0,0,1,.66-1l26.2,17a.6.6,0,0,1-.33,1.1Z"/><path class="cls-2" d="M265.94,110.27a.62.62,0,0,1-.32-.09L239,92.85a.6.6,0,0,1-.18-.83.61.61,0,0,1,.83-.17l26.63,17.32a.6.6,0,0,1-.33,1.1Z"/><path class="cls-2" d="M262.5,115.56a.55.55,0,0,1-.32-.1l-25.84-16.8a.61.61,0,0,1-.17-.83.6.6,0,0,1,.83-.18l25.83,16.81a.6.6,0,0,1,.18.83A.63.63,0,0,1,262.5,115.56Z"/><path class="cls-2" d="M259.07,120.84a.63.63,0,0,1-.33-.09l-25.85-16.82a.6.6,0,0,1,.65-1l25.85,16.82a.6.6,0,0,1-.32,1.1Z"/><path class="cls-2" d="M288,75.77l1.51-2.32a2.61,2.61,0,0,0-.77-3.61l-26-16.93a5.86,5.86,0,0,0-8.1,1.72L177.4,173.36a5.55,5.55,0,1,0,9.3,6l38.84-59.72a2.69,2.69,0,0,1,3.72-.78l19.37,12.6a2.62,2.62,0,0,0,3.61-.77l1.51-2.32a2.62,2.62,0,0,0-.76-3.62l-18.58-12.08a3.62,3.62,0,0,1-1.06-5L260.7,65.64a3.79,3.79,0,0,1,5.23-1.11l18.45,12A2.63,2.63,0,0,0,288,75.77Z"/><circle class="cls-1" cx="244.03" cy="171.67" r="11.71" transform="translate(20.89 369.73) rotate(-76.72)"/><path class="cls-2" d="M244,184a12.31,12.31,0,1,1,12.31-12.3A12.32,12.32,0,0,1,244,184Zm0-23.41a11.11,11.11,0,1,0,11.11,11.11A11.12,11.12,0,0,0,244,160.56Z"/><path class="cls-1" d="M241.19,160.31c-7-14.89-66.71-108.12-66-106.51,19.41,43.44,55.65,100.59,61.09,109.09A11.63,11.63,0,0,1,241.19,160.31Z"/><path class="cls-2" d="M236.29,163.49h-.09a.66.66,0,0,1-.42-.27C228.94,152.52,193.85,97,174.65,54a.61.61,0,0,1,.29-.81c.25-.12.38-.17.79.33h0l0,0c.42.52,1.14,1.62,2.55,3.8C180,60,182.38,63.69,185.13,68c6.53,10.18,14.2,22.27,21.06,33.16,11.61,18.45,31.66,50.65,35.55,58.91a.63.63,0,0,1,0,.52.57.57,0,0,1-.39.32,11.32,11.32,0,0,0-4.66,2.45A.58.58,0,0,1,236.29,163.49ZM179,60.71c19.67,41.67,52.07,92.94,57.4,101.29a12.26,12.26,0,0,1,3.91-2.07c-4.47-9.05-23.54-39.66-34.7-57.4C195.14,85.84,184.69,69.47,179,60.71Z"/><path class="cls-1" d="M256.39,142.17l0-.06S194.53,101.29,147.62,80c-1.64-.75,95.6,62.56,106.37,66.79A11.79,11.79,0,0,1,256.39,142.17Z"/><path class="cls-2" d="M254,147.37a.59.59,0,0,1-.22-.05c-5.69-2.23-34.29-20.2-57.29-34.89-15.13-9.67-27.84-17.91-34.07-22-10.9-7.1-14.07-9.19-15-9.93l0,0h0c-.34-.28-.35-.36-.37-.46a.61.61,0,0,1,.24-.56.65.65,0,0,1,.63-.06c46.42,21.09,108.26,61.77,108.88,62.18a.6.6,0,0,1,.21.76l0,.07a.83.83,0,0,1-.08.12,11.21,11.21,0,0,0-2.28,4.36.59.59,0,0,1-.31.38A.6.6,0,0,1,254,147.37ZM154.73,84c21.44,14,87.44,56.86,98.88,62a12.43,12.43,0,0,1,1.94-3.69C249.69,138.42,197.59,104.55,154.73,84Zm101.66,58.21h0Z"/><path class="cls-2" d="M265.32,162.05a12.31,12.31,0,1,1,12.3-12.31A12.32,12.32,0,0,1,265.32,162.05Zm0-23.41a11.11,11.11,0,1,0,11.1,11.1A11.12,11.12,0,0,0,265.32,138.64Z"/><circle class="cls-1" cx="265.32" cy="149.74" r="11.71"/><path class="cls-2" d="M265.32,162.05a12.31,12.31,0,1,1,12.3-12.31A12.32,12.32,0,0,1,265.32,162.05Zm0-23.41a11.11,11.11,0,1,0,11.1,11.1A11.12,11.12,0,0,0,265.32,138.64Z"/><path class="cls-2" d="M279.26,147.59a16.8,16.8,0,0,1-2.71-.23.6.6,0,0,1,.19-1.19c6.8,1.1,9.23-2.43,9.25-2.47a.6.6,0,0,1,1,.67C286.89,144.52,284.78,147.59,279.26,147.59Z"/><path class="cls-1" d="M103.32,304l4.32,16.32a26.19,26.19,0,0,1,.68,10l-.87,6.89,21.85-3.54-2.82-2.07a25.6,25.6,0,0,1-9.78-14.7L113,301.16Z"/><path class="cls-2" d="M107.45,337.68a.48.48,0,0,1-.32-.13.48.48,0,0,1-.14-.39l.87-6.9a25.86,25.86,0,0,0-.66-9.83l-4.33-16.32a.47.47,0,0,1,.32-.56l9.62-2.84a.48.48,0,0,1,.37.05.45.45,0,0,1,.21.29l3.76,15.75a25.12,25.12,0,0,0,9.6,14.42l2.82,2.07a.47.47,0,0,1,.18.48.46.46,0,0,1-.38.35l-21.85,3.55Zm-3.57-33.37,4.21,15.88a26.73,26.73,0,0,1,.69,10.19l-.79,6.28,20.15-3.27L126.2,332a26.09,26.09,0,0,1-9.94-15l-3.65-15.27Z"/><path class="cls-1" d="M105.32,340.58c-.16-2.88-.2-8.61,1.69-12.21a1.41,1.41,0,0,1,1.78-.65l5,2a1.18,1.18,0,0,0,1.62-1.09v-.34a.9.9,0,0,1,.87-.9l4.3-.23a10.3,10.3,0,0,1,4.68.87c4.45,2,13.91,6.68,16.17,11.59a1.75,1.75,0,0,1-1.55,2.44c-3.9.18-13.78.48-32.67.32A1.9,1.9,0,0,1,105.32,340.58Z"/><path class="cls-2" d="M117.35,342.88c-3,0-6.42,0-10.14,0a2.38,2.38,0,0,1-2.35-2.23h0c-.17-3.08-.18-8.8,1.74-12.46a1.87,1.87,0,0,1,2.36-.86l5,2a.72.72,0,0,0,.68-.07.7.7,0,0,0,.31-.59v-.34a1.37,1.37,0,0,1,1.3-1.37l4.31-.22a10.71,10.71,0,0,1,4.89.91c5.15,2.3,14.13,6.89,16.4,11.81a2.1,2.1,0,0,1-.12,2,2.26,2.26,0,0,1-1.83,1.08C136.53,342.66,129.54,342.88,117.35,342.88Zm-11.57-2.32a1.45,1.45,0,0,0,1.44,1.35c18.59.16,28.43-.13,32.64-.32a1.34,1.34,0,0,0,1.08-.64,1.18,1.18,0,0,0,.07-1.15c-2.22-4.82-11.88-9.55-15.94-11.35a9.67,9.67,0,0,0-4.46-.84l-4.31.23a.44.44,0,0,0-.43.44v.34a1.62,1.62,0,0,1-.71,1.35,1.66,1.66,0,0,1-1.54.17l-5-2a1,1,0,0,0-1.2.43C105.6,332.05,105.61,337.57,105.78,340.56Z"/><path class="cls-2" d="M122.89,339.57c-3.93,0-8.73-.09-14.47-.35a.47.47,0,0,1-.44-.48.46.46,0,0,1,.48-.44c18.9.86,27.68-.13,27.76-.14a.46.46,0,0,1,.51.41.46.46,0,0,1-.4.51A133.9,133.9,0,0,1,122.89,339.57Z"/><path class="cls-2" d="M127.8,335a.45.45,0,0,1-.25-.07L120.11,330a.47.47,0,0,1-.13-.64.46.46,0,0,1,.64-.14l7.43,4.85a.46.46,0,0,1-.25.85Z"/><polygon class="cls-1" points="59.04 306.75 56.4 325.2 49.71 325.2 50.36 307.05 59.04 306.75"/><path class="cls-2" d="M56.4,325.67H49.71a.45.45,0,0,1-.33-.15.42.42,0,0,1-.13-.33L49.9,307a.46.46,0,0,1,.44-.45l8.68-.3a.46.46,0,0,1,.36.15.46.46,0,0,1,.12.37l-2.65,18.46A.45.45,0,0,1,56.4,325.67Zm-6.21-.93H56l2.5-17.51-7.69.27Z"/><path class="cls-1" d="M56.14,342.38a40.24,40.24,0,0,1-12.43.05,2.89,2.89,0,0,1-2.33-3.65c1.24-4.38,3.84-12.47,7.12-16.71a.49.49,0,0,1,.85.15l.12.76a.47.47,0,0,0,.89.13l.72-1.53a1,1,0,0,1,.79-.49l2.54-.1a1,1,0,0,1,1.12.85l.09,1.2a.47.47,0,0,0,.88.19l1.1-1.12a.38.38,0,0,1,.69.24l-.14,4.79a52,52,0,0,0,.76,10.35l.3,1.72C59.37,340.79,57.73,342.21,56.14,342.38Z"/><path class="cls-2" d="M49.47,343.36a37,37,0,0,1-5.83-.47,3.37,3.37,0,0,1-2.3-1.5,3.41,3.41,0,0,1-.4-2.73c1.26-4.46,3.87-12.58,7.19-16.87a1,1,0,0,1,1.66.28.31.31,0,0,0,0,.08l.11.76.74-1.52a1.52,1.52,0,0,1,1.17-.76l2.57-.1A1.51,1.51,0,0,1,56,321.76v.05l.09,1.2a.43.43,0,0,1,.09-.1l1.08-1.1a.84.84,0,0,1,1.5.55l-.13,4.8a51.07,51.07,0,0,0,.74,10.25l.3,1.72c.19,1.9-1.68,3.52-3.47,3.71L55.1,343A43.39,43.39,0,0,1,49.47,343.36Zm-.61-21c-3.22,4.17-5.79,12.17-7,16.56a2.47,2.47,0,0,0,.29,2A2.44,2.44,0,0,0,43.78,342a37.45,37.45,0,0,0,11.21.07l1.1-.13c1.34-.14,2.79-1.34,2.66-2.67l-.3-1.68a52.92,52.92,0,0,1-.76-10.44l.13-4.58-1,1a.93.93,0,0,1-1.71-.45l-.09-1.17a.58.58,0,0,0-.61-.45l-2.57.1a.55.55,0,0,0-.41.27l-.71,1.48a.91.91,0,0,1-1,.53.93.93,0,0,1-.79-.78l-.1-.69Z"/><path class="cls-2" d="M50.44,339.93a23.41,23.41,0,0,1-5.89-.77.47.47,0,0,1,.24-.9,19.26,19.26,0,0,0,10.73,0,.46.46,0,1,1,.33.86A16.36,16.36,0,0,1,50.44,339.93Z"/><path class="cls-2" d="M53.47,333.19H47.34a.47.47,0,1,1,0-.93h6.13a.47.47,0,0,1,0,.93Z"/><path class="cls-2" d="M102.22,185.32s8.77,56.35,9.12,69.81,6,54.18,6,54.18a30.24,30.24,0,0,1-15.49.8S76,238,74,215.89s4.53-32.23,4.53-32.23Z"/><path class="cls-2" d="M93.65,181.81s-29.72,90.3-30.21,127a45.12,45.12,0,0,1-16,0s-6-100.78,11.37-129Z"/><path class="cls-2" d="M85.19,104.49c-1.87,10.7-12.79,22.18-23.77,20.66-1.79-.24-6.62-1.26-11.7-7.11-7,5-15.93,3.66-20.75-2.12-5.88-7.08-5.08-20.16,3.49-26.88-6.79-.06-8.61-2.65-9.15-3.68-3.18-6,5.21-20.14,13.05-20.16,2.89,0,6.72,3.55,14.28,10.66,7.8,7.34,8.13,8.76,10.49,9,6.94.75,9-11,18.23-12.33,6.3-.89,13.34,3.5,13.88,7.63.45,3.56-4.16,4.81-6.75,11.9C84.56,97.37,86.05,99.57,85.19,104.49Z"/><path class="cls-2" d="M76.06,68.57c.54,1.64,0,6.28-2.47,7.08s-6-2.53-6.48-4.17,1-3.61,3.5-4.42S75.52,66.94,76.06,68.57Z"/><path class="cls-1" d="M105.91,186s2.75,18.29-.62,21.8c0,0-11-12-11.53-20.67Z"/><path class="cls-2" d="M105.29,208.28h0a.49.49,0,0,1-.34-.15c-.45-.5-11.12-12.22-11.65-20.95a.47.47,0,0,1,.42-.49l12.14-1.13a.44.44,0,0,1,.5.39c.12.75,2.75,18.56-.73,22.19A.48.48,0,0,1,105.29,208.28Zm-11-20.71c.75,7.47,9.15,17.41,11,19.53,2.14-3.37,1-15.48.24-20.58Z"/><path class="cls-1" d="M90.64,186.2s-3.43,14.76-7.5,18.44S68,191.86,61.78,191.51s-13,14.49-13,14.49,1.73-18.54,6.82-22.46Z"/><path class="cls-2" d="M48.79,206.47l-.12,0a.47.47,0,0,1-.34-.49c.07-.76,1.81-18.78,7-22.79a.42.42,0,0,1,.31-.09l35,2.66a.46.46,0,0,1,.34.19.46.46,0,0,1,.08.38c-.14.6-3.51,14.94-7.64,18.67-2.51,2.28-6.89-1.73-11.52-6-3.69-3.38-7.5-6.88-10.17-7-5.81-.32-12.48,14.08-12.55,14.23A.46.46,0,0,1,48.79,206.47ZM61.57,191h.24c3,.17,6.93,3.78,10.74,7.27,4.13,3.78,8.39,7.69,10.28,6,3.49-3.16,6.58-15,7.23-17.68L55.75,184c-3.66,3.06-5.52,14.28-6.19,19.43C51.77,199.25,56.73,191,61.57,191Z"/><path class="cls-1" d="M145.67,98l5.65-5.87a1.22,1.22,0,0,1,2,1.37l-1.74,3.57a7.55,7.55,0,0,0,1.78.59,4.42,4.42,0,0,0,3.43-1.4c1-1.07,2.7-2.78,3.27-3.2.84-.63,1.92-1.6,3.12-1.69h0a1.52,1.52,0,0,1,1.39,2.34l-2.36,3.64a14.8,14.8,0,0,1-7.2,5.78L147.39,106l-.57,21.7-9.94-7.56,4.47-14.35A22,22,0,0,1,145.67,98Z"/><path class="cls-2" d="M146.82,128.2a.47.47,0,0,1-.28-.09l-9.94-7.56a.48.48,0,0,1-.16-.5l4.46-14.35a22.25,22.25,0,0,1,4.42-8v0L151,91.84a1.65,1.65,0,0,1,2.18-.21,1.64,1.64,0,0,1,.54,2.1l-1.53,3.14a5.1,5.1,0,0,0,1.19.36A4,4,0,0,0,156.44,96c1.2-1.25,2.76-2.83,3.32-3.25l.36-.28a6,6,0,0,1,3-1.5,2,2,0,0,1,1.89,1A2,2,0,0,1,165,94l-2.37,3.64a15.16,15.16,0,0,1-7.41,6l-7.36,2.78-.56,21.39a.47.47,0,0,1-.26.4A.37.37,0,0,1,146.82,128.2Zm-9.4-8.19,9,6.82.54-20.8a.47.47,0,0,1,.3-.42l7.65-2.89a14.34,14.34,0,0,0,7-5.6l2.36-3.64a1,1,0,0,0,0-1.11,1.09,1.09,0,0,0-1-.52,5.34,5.34,0,0,0-2.54,1.33l-.37.28a43.28,43.28,0,0,0-3.22,3.15,4.84,4.84,0,0,1-3.79,1.54,7.47,7.47,0,0,1-1.95-.63.47.47,0,0,1-.24-.26.5.5,0,0,1,0-.36l1.74-3.58a.7.7,0,0,0-.24-.93.72.72,0,0,0-1,.09L146,98.34a21.2,21.2,0,0,0-4.22,7.63Z"/><polygon class="cls-1" points="134.87 115.6 159.64 135.14 148.6 146.53 127.58 129.11 134.87 115.6"/><path class="cls-2" d="M148.6,147a.48.48,0,0,1-.3-.11l-21-17.42a.47.47,0,0,1-.12-.58l7.29-13.51a.46.46,0,0,1,.31-.23.47.47,0,0,1,.38.09l24.78,19.54a.43.43,0,0,1,.17.33.42.42,0,0,1-.13.35l-11,11.4A.47.47,0,0,1,148.6,147Zm-20.43-18,20.39,16.91L159,135.19l-24-18.88Z"/><path class="cls-5" d="M157.06,143.88,128.6,122s-3.11,4.72-8.22,5.23-18.4-13.2-18.4-13.2l-.42,31.25S121.89,171.43,157.06,143.88Z"/><path class="cls-5" d="M92.7,109.91c-5.73-1.16-12.06-3.89-27.88,2,0,0-7.73,4.37-8.22,10.74-.54,6.94,4.42,19.5,2.65,28.71-3.23,16.85-6.93,22.37-8.78,36.18a46.7,46.7,0,0,1,11.05-1.2L105.35,188a5.58,5.58,0,0,0,5.78-4.92c.46-4.05.47-11.22-1.21-23.8-.86-6.44-.47-27.72-5.06-40.81C103.55,114.72,96.59,110.7,92.7,109.91Z"/><path class="cls-1" d="M48.39,146.39l6.42,13L35.15,175s-6.92-14.35-7.59-19.1Z"/><path class="cls-2" d="M35.15,175.43h-.1a.44.44,0,0,1-.31-.25c-.29-.59-7-14.46-7.64-19.24a.47.47,0,0,1,.27-.49L48.2,146a.46.46,0,0,1,.6.21l6.42,13a.46.46,0,0,1-.12.57L35.44,175.33A.45.45,0,0,1,35.15,175.43Zm-7.08-19.29c.81,4.39,6,15.56,7.25,18.11l18.91-15L48.17,147Z"/><path class="cls-5" d="M67.65,131.38l-13.31,7.09a6.12,6.12,0,0,0-2.79,7.77l.4,1L25.35,160s-4-12.09.16-24.65c7.06-21.56,52.2-26.42,52.2-26.42Z"/><path class="cls-2" d="M105.56,188.45h-.23l-43.82-1.66C57,186.48,50.64,188,50.57,188a.42.42,0,0,1-.41-.11.46.46,0,0,1-.15-.4,104.61,104.61,0,0,1,4.16-17.92,168.73,168.73,0,0,0,4.63-18.28c.82-4.26.16-9.34-.72-14.25l-3.52,1.88A5.67,5.67,0,0,0,52,146.07l.4,1a.46.46,0,0,1-.22.6l-26.6,12.77a.46.46,0,0,1-.38,0,.48.48,0,0,1-.26-.28c0-.12-3.95-12.38.16-24.93,5.66-17.28,35.11-24,47.51-26a45.61,45.61,0,0,1,5-.72h.18c7.53-.63,10.71.07,14.07.81l1.57.33c2.58.52,8.11,3,9.8,5,6.14,6.1,13.9,12.53,17.18,12.21,4.82-.48,7.85-5,7.88-5a.44.44,0,0,1,.3-.2.46.46,0,0,1,.36.09l28.46,21.84a.46.46,0,0,1,0,.73c-10,7.85-19.81,12.11-29.1,12.66a32.62,32.62,0,0,1-18.33-4.21c.15,2.88.27,5.06.47,6.51,1.41,10.54,1.82,18.58,1.21,23.91A6.07,6.07,0,0,1,105.56,188.45ZM60.2,185.81c.46,0,.91,0,1.35,0l43.81,1.67a5.16,5.16,0,0,0,5.32-4.51c.4-3.62.53-10.66-1.22-23.69-.21-1.62-.35-4.11-.52-7.44a.48.48,0,0,1,.23-.42.44.44,0,0,1,.47,0c9.49,5.69,25.27,8.95,46.66-7.58l-27.6-21.19c-.9,1.19-3.84,4.58-8.27,5h-.32c-4.53,0-13.79-8.7-17.63-12.51-1.58-1.85-6.9-4.25-9.3-4.74l-1.59-.33c-3.3-.73-6.42-1.41-13.85-.78h-.1a44.33,44.33,0,0,0-4.89.71c-12.25,2-41.3,8.59-46.8,25.39-3.55,10.84-1,21.44-.31,23.85L51.35,147l-.23-.55a6.58,6.58,0,0,1,3-8.36l4.07-2.17a.48.48,0,0,1,.42,0,.46.46,0,0,1,.25.33c1,5.19,1.72,10.63.84,15.21a167.75,167.75,0,0,1-4.66,18.37,105,105,0,0,0-4,17.13A49,49,0,0,1,60.2,185.81Z"/><path class="cls-2" d="M109.63,156.36a.46.46,0,0,1-.46-.41l-.54-5.58c-.24-3.13-.36-6-.48-8.81-.06-1.58-.13-3.21-.22-4.84l-.23-4.29a.46.46,0,0,1,.92-.05l.24,4.29c.08,1.64.15,3.27.22,4.86.11,2.78.23,5.66.47,8.76l.53,5.57a.45.45,0,0,1-.41.5Z"/><path class="cls-1" d="M52.46,161.22l7.11,11,3.54-2.39a10.07,10.07,0,0,1,7.38-1.55s3.81.5,5.43,1.8c3.91,3.14.44,5.1-.31,5.49a7.79,7.79,0,0,1-4.66,1,12.32,12.32,0,0,0-6.28,1.54c-1.87,1-4.07,3.09-7.05,2.28A7,7,0,0,1,54,178.21l-9.47-10.66Z"/><path class="cls-2" d="M59,181a5.51,5.51,0,0,1-1.46-.2,7.45,7.45,0,0,1-3.91-2.35l-9.45-10.64a.47.47,0,0,1-.11-.34.44.44,0,0,1,.17-.32l8-6.33a.47.47,0,0,1,.36-.1.45.45,0,0,1,.31.21l6.87,10.62,3.14-2.12a10.49,10.49,0,0,1,7.72-1.63c.14,0,3.93.53,5.64,1.9,1.43,1.15,2.1,2.3,2,3.43A3.92,3.92,0,0,1,75.83,176a8.33,8.33,0,0,1-5,1,12.13,12.13,0,0,0-6,1.5c-.36.2-.75.44-1.15.7A9,9,0,0,1,59,181Zm-13.8-13.43,9.14,10.3a6.73,6.73,0,0,0,3.45,2c2.18.59,3.94-.53,5.49-1.51.42-.27.82-.52,1.22-.73a12.61,12.61,0,0,1,6.55-1.6,7.51,7.51,0,0,0,4.39-.92c.66-.35,1.78-1.09,1.88-2.11.08-.8-.48-1.68-1.65-2.62-1.5-1.21-5.16-1.7-5.2-1.71a9.56,9.56,0,0,0-7.06,1.49l-3.54,2.38a.45.45,0,0,1-.64-.13L52.34,161.9Z"/><path class="cls-1" d="M90.41,97.24l-1.7,14.07,8.8,2.7s-12.58,8.66-27.91-.07l8.28-3.52,4.26-16.33Z"/><path class="cls-2" d="M83.67,118.27a28.59,28.59,0,0,1-14.3-3.93.48.48,0,0,1-.23-.43.46.46,0,0,1,.28-.4l8.07-3.43L81.7,94a.45.45,0,0,1,.23-.29.46.46,0,0,1,.38,0l8.26,3.14a.48.48,0,0,1,.3.49L89.21,111l8.44,2.59a.45.45,0,0,1,.32.37.47.47,0,0,1-.19.45A27.2,27.2,0,0,1,83.67,118.27Zm-13-4.28a26.91,26.91,0,0,0,25.73.16l-7.81-2.4a.46.46,0,0,1-.32-.5l1.66-13.71L82.46,94.7l-4.14,15.84a.43.43,0,0,1-.26.3Z"/><path class="cls-1" d="M82,98s-3.16,1.19-4-1.55a1.78,1.78,0,0,1,1.89-2.56s-2.9-6,1.61-6.56a26.79,26.79,0,0,0,7.8-2.25,45.35,45.35,0,0,1,4.33,10.5c.64,2.89.46,5.44-1.73,6.2C85.87,103.89,82,98,82,98Z"/><path class="cls-2" d="M89.32,102.71c-4,0-6.79-3.17-7.54-4.14A4.2,4.2,0,0,1,79,98.43a2.85,2.85,0,0,1-1.45-1.81,2.44,2.44,0,0,1,.23-2.33,2.29,2.29,0,0,1,1.42-.78c-.43-1.1-1.16-3.46-.29-5.06A3.08,3.08,0,0,1,81.4,86.9a26.43,26.43,0,0,0,7.65-2.2.47.47,0,0,1,.61.18A45,45,0,0,1,94,95.51c.82,3.72.14,6-2,6.73A8.16,8.16,0,0,1,89.32,102.71ZM82,97.57a.47.47,0,0,1,.39.2c.15.23,3.79,5.54,9.37,3.6,1.65-.57,2.13-2.48,1.43-5.66a43.59,43.59,0,0,0-4.07-10,28,28,0,0,1-7.55,2.09,2.25,2.25,0,0,0-1.83,1.07c-.76,1.42.16,4,.58,4.84a.47.47,0,0,1,0,.46.48.48,0,0,1-.42.21,1.76,1.76,0,0,0-1.35.47,1.64,1.64,0,0,0-.07,1.49,1.93,1.93,0,0,0,1,1.25,3.61,3.61,0,0,0,2.41,0A.45.45,0,0,1,82,97.57Z"/><path class="cls-2" d="M180.05,298.61a.31.31,0,0,1-.13,0,.48.48,0,0,1-.29-.61l1.06-3.74a.45.45,0,0,1,.56-.32.52.52,0,0,1,.29.62l-1.07,3.73A.45.45,0,0,1,180.05,298.61Z"/><path class="cls-2" d="M177.65,307l-.13,0a.52.52,0,0,1-.29-.62l1.07-3.73a.43.43,0,0,1,.55-.32.48.48,0,0,1,.29.61l-1.06,3.74A.47.47,0,0,1,177.65,307Z"/><path class="cls-2" d="M177.12,299.9l-.13,0-3.39-1.18a.48.48,0,0,1-.29-.61.43.43,0,0,1,.55-.32l3.39,1.17a.49.49,0,0,1,.29.62A.44.44,0,0,1,177.12,299.9Z"/><path class="cls-2" d="M184.75,302.54l-.14,0-3.38-1.18a.5.5,0,0,1-.3-.61.44.44,0,0,1,.56-.32l3.39,1.17a.5.5,0,0,1,.29.62A.44.44,0,0,1,184.75,302.54Z"/><path class="cls-2" d="M152.74,319.94a.46.46,0,0,1-.44-.49v-3.91a.44.44,0,1,1,.88,0v3.91A.46.46,0,0,1,152.74,319.94Z"/><path class="cls-2" d="M152.74,328.75a.46.46,0,0,1-.44-.49v-3.91a.44.44,0,1,1,.88,0v3.91A.46.46,0,0,1,152.74,328.75Z"/><path class="cls-2" d="M150.74,322.14h-3.55a.46.46,0,0,1-.45-.48.47.47,0,0,1,.45-.49h3.55a.47.47,0,0,1,.45.49A.46.46,0,0,1,150.74,322.14Z"/><path class="cls-2" d="M158.74,322.14h-3.56a.46.46,0,0,1-.44-.48.47.47,0,0,1,.44-.49h3.56a.47.47,0,0,1,.44.49A.46.46,0,0,1,158.74,322.14Z"/><path class="cls-2" d="M154.86,290.72a4.07,4.07,0,1,1,3.68-4.05A3.88,3.88,0,0,1,154.86,290.72Zm0-7.13a3.09,3.09,0,1,0,2.8,3.08A3,3,0,0,0,154.86,283.59Z"/></svg>