<?xml version="1.0" encoding="utf-8"?>
<!-- Generator: Adobe Illustrator 24.1.2, SVG Export Plug-In . SVG Version: 6.00 Build 0)  -->
<svg version="1.1" id="Capa_1" xmlns="http://www.w3.org/2000/svg" xmlns:xlink="http://www.w3.org/1999/xlink" x="0px" y="0px"
	 viewBox="0 0 90 90" style="enable-background:new 0 0 90 90;" xml:space="preserve">
<style type="text/css">
	.st0{fill:#FFFFFF;}
	.st1{opacity:0.7;fill:#EAA79F;}
	.st2{fill:#EAA79F;}
	.st3{fill:#F2F2F2;}
	.st4{fill:#F5D3CF;}
	.st5{fill:none;stroke:#FFFFFF;stroke-width:3;stroke-miterlimit:10;}
	.st6{fill:none;stroke:#FFFFFF;stroke-width:2;stroke-miterlimit:10;}
	.st7{fill-rule:evenodd;clip-rule:evenodd;fill:#FFFFFF;}
	.st8{opacity:0.2;clip-path:url(#SVGID_2_);}
	.st9{fill:none;stroke:#EAA79F;stroke-width:2.1892;stroke-linecap:round;stroke-linejoin:round;stroke-miterlimit:10;}
	.st10{fill:none;stroke:#EAA79F;stroke-width:3.1276;stroke-linecap:round;stroke-linejoin:round;stroke-miterlimit:10;}
	.st11{fill:#393B50;}
	.st12{fill:#9A9AA0;}
	.st13{fill:#F4F4F4;}
	.st14{fill:#FFDDD4;}
	.st15{opacity:0.8;}
	.st16{opacity:0.2;}
	.st17{fill:#FFFFFF;stroke:#AFAFAF;stroke-width:0.4386;stroke-miterlimit:10;}
	.st18{fill:#FFFFFF;stroke:#AFAFAF;stroke-width:0.6806;stroke-miterlimit:10;}
	.st19{fill:none;}
	.st20{clip-path:url(#SVGID_6_);}
</style>
<g>
	<g>
		<path class="st2" d="M23.1,67.9h6.2c0.6,0,1-0.5,1-1v-5.2c0-0.6-0.5-1-1-1h-6.2c-0.6,0-1,0.5-1,1v5.2
			C22.1,67.4,22.6,67.9,23.1,67.9z M24.2,62.7h4.2v3.1h-4.2V62.7z"/>
		<path class="st2" d="M35.6,67.9h6.2c0.6,0,1-0.5,1-1v-5.2c0-0.6-0.5-1-1-1h-6.2c-0.6,0-1,0.5-1,1v5.2
			C34.6,67.4,35.1,67.9,35.6,67.9z M36.7,62.7h4.2v3.1h-4.2V62.7z"/>
		<path class="st2" d="M48.1,67.9h6.2c0.6,0,1-0.5,1-1v-5.2c0-0.6-0.5-1-1-1h-6.2c-0.6,0-1,0.5-1,1v5.2
			C47.1,67.4,47.5,67.9,48.1,67.9z M49.2,62.7h4.2v3.1h-4.2V62.7z"/>
		<path class="st2" d="M23.1,56.4h6.2c0.6,0,1-0.5,1-1v-5.2c0-0.6-0.5-1-1-1h-6.2c-0.6,0-1,0.5-1,1v5.2C22.1,56,22.6,56.4,23.1,56.4
			z M24.2,51.2h4.2v3.1h-4.2V51.2z"/>
		<path class="st2" d="M35.6,56.4h6.2c0.6,0,1-0.5,1-1v-5.2c0-0.6-0.5-1-1-1h-6.2c-0.6,0-1,0.5-1,1v5.2C34.6,56,35.1,56.4,35.6,56.4
			z M36.7,51.2h4.2v3.1h-4.2V51.2z"/>
		<path class="st2" d="M48.1,56.4h6.2c0.6,0,1-0.5,1-1v-5.2c0-0.6-0.5-1-1-1h-6.2c-0.6,0-1,0.5-1,1v5.2C47.1,56,47.5,56.4,48.1,56.4
			z M49.2,51.2h4.2v3.1h-4.2V51.2z"/>
		<path class="st2" d="M60.6,56.4h6.2c0.6,0,1-0.5,1-1v-5.2c0-0.6-0.5-1-1-1h-6.2c-0.6,0-1,0.5-1,1v5.2C59.6,56,60,56.4,60.6,56.4z
			 M61.7,51.2h4.2v3.1h-4.2V51.2z"/>
		<path class="st2" d="M23.1,45h6.2c0.6,0,1-0.5,1-1v-5.2c0-0.6-0.5-1-1-1h-6.2c-0.6,0-1,0.5-1,1V44C22.1,44.5,22.6,45,23.1,45z
			 M24.2,39.8h4.2v3.1h-4.2V39.8z"/>
		<path class="st2" d="M35.6,45h6.2c0.6,0,1-0.5,1-1v-5.2c0-0.6-0.5-1-1-1h-6.2c-0.6,0-1,0.5-1,1V44C34.6,44.5,35.1,45,35.6,45z
			 M36.7,39.8h4.2v3.1h-4.2V39.8z"/>
		<path class="st2" d="M48.1,45h6.2c0.6,0,1-0.5,1-1v-5.2c0-0.6-0.5-1-1-1h-6.2c-0.6,0-1,0.5-1,1V44C47.1,44.5,47.5,45,48.1,45z
			 M49.2,39.8h4.2v3.1h-4.2V39.8z"/>
		<path class="st2" d="M60.6,45h6.2c0.6,0,1-0.5,1-1v-5.2c0-0.6-0.5-1-1-1h-6.2c-0.6,0-1,0.5-1,1V44C59.6,44.5,60,45,60.6,45z
			 M61.7,39.8h4.2v3.1h-4.2V39.8z"/>
		<path class="st2" d="M74.1,15.9h-7.3v-1c0-1.7-1.4-3.1-3.1-3.1c-1.7,0-3.1,1.4-3.1,3.1v1H29.4v-1c0-1.7-1.4-3.1-3.1-3.1
			c-1.7,0-3.1,1.4-3.1,3.1v1h-7.3c-2.3,0-4.2,1.9-4.2,4.2v54.1c0,2.3,1.9,4.2,4.2,4.2h58.3c2.3,0,4.2-1.9,4.2-4.2V20
			C78.3,17.7,76.4,15.9,74.1,15.9z M62.7,14.8c0-0.6,0.5-1,1-1c0.6,0,1,0.5,1,1v3.1v4.2c0,0.6-0.5,1-1,1c-0.6,0-1-0.5-1-1v-4.2V14.8
			z M25.2,14.8c0-0.6,0.5-1,1-1c0.6,0,1,0.5,1,1v3.1v4.2c0,0.6-0.5,1-1,1c-0.6,0-1-0.5-1-1v-4.2V14.8z M76.2,74.1
			c0,1.1-0.9,2.1-2.1,2.1H15.9c-1.1,0-2.1-0.9-2.1-2.1V29.4h62.5V74.1z M76.2,27.3H13.8V20c0-1.1,0.9-2.1,2.1-2.1h7.3v4.2
			c0,1.7,1.4,3.1,3.1,3.1c1.7,0,3.1-1.4,3.1-3.1v-4.2h31.2v4.2c0,1.7,1.4,3.1,3.1,3.1c1.7,0,3.1-1.4,3.1-3.1v-4.2h7.3
			c1.1,0,2.1,0.9,2.1,2.1V27.3z"/>
	</g>
</g>
</svg>
