<?xml version="1.0" encoding="utf-8"?>
<!-- Generator: Adobe Illustrator 24.1.2, SVG Export Plug-In . SVG Version: 6.00 Build 0)  -->
<svg version="1.1" id="Capa_1" xmlns="http://www.w3.org/2000/svg" xmlns:xlink="http://www.w3.org/1999/xlink" x="0px" y="0px"
	 viewBox="0 0 90 90" style="enable-background:new 0 0 90 90;" xml:space="preserve">
<style type="text/css">
	.st0{fill:#FFFFFF;}
	.st1{opacity:0.7;fill:#EAA79F;}
	.st2{fill:#EAA79F;}
	.st3{fill:#F2F2F2;}
	.st4{fill:#F5D3CF;}
	.st5{fill:none;stroke:#FFFFFF;stroke-width:3;stroke-miterlimit:10;}
	.st6{fill:none;stroke:#FFFFFF;stroke-width:2;stroke-miterlimit:10;}
	.st7{fill-rule:evenodd;clip-rule:evenodd;fill:#FFFFFF;}
	.st8{opacity:0.2;clip-path:url(#SVGID_2_);}
	.st9{fill:none;stroke:#EAA79F;stroke-width:2.1892;stroke-linecap:round;stroke-linejoin:round;stroke-miterlimit:10;}
	.st10{fill:none;stroke:#EAA79F;stroke-width:3.1276;stroke-linecap:round;stroke-linejoin:round;stroke-miterlimit:10;}
	.st11{fill:#393B50;}
	.st12{fill:#9A9AA0;}
	.st13{fill:#F4F4F4;}
	.st14{fill:#FFDDD4;}
	.st15{opacity:0.8;}
	.st16{opacity:0.2;}
	.st17{fill:#FFFFFF;stroke:#AFAFAF;stroke-width:0.4386;stroke-miterlimit:10;}
	.st18{fill:#FFFFFF;stroke:#AFAFAF;stroke-width:0.6806;stroke-miterlimit:10;}
	.st19{fill:none;}
	.st20{clip-path:url(#SVGID_6_);}
</style>
<g>
	<g>
		<path class="st2" d="M45,11.2c-14,0-25.3,11.3-25.3,25.3c0,6,2.6,11.3,5.6,15.8l18.1,25.5c0.4,0.6,1,0.9,1.7,0.9
			c0.7,0,1.3-0.3,1.7-0.9l18.1-25.5c2.8-3.8,5.6-9.8,5.6-15.8C70.3,22.6,59,11.2,45,11.2z M62,52.4L62,52.4L45,75.6L28,52.4h0
			c-2.6-3.7-6.2-9.7-6.2-15.8c0-12.8,10.4-23.2,23.2-23.2c12.8,0,23.2,10.4,23.2,23.2C68.2,42.7,64.3,49,62,52.4z"/>
		<path class="st2" d="M45,26c-5.8,0-10.6,4.7-10.6,10.6S39.2,47.1,45,47.1c5.8,0,10.6-4.7,10.6-10.6S50.8,26,45,26z M45,45
			c-4.7,0-8.4-3.8-8.4-8.4s3.8-8.4,8.4-8.4s8.4,3.8,8.4,8.4S49.7,45,45,45z"/>
		<path class="st2" d="M45,21.8c-8.2,0-14.8,6.6-14.8,14.8S36.8,51.3,45,51.3c8.2,0,14.8-6.6,14.8-14.8S53.2,21.8,45,21.8z M45,49.2
			c-7,0-12.7-5.7-12.7-12.7S38,23.9,45,23.9s12.7,5.7,12.7,12.7S52,49.2,45,49.2z"/>
	</g>
</g>
</svg>
